<?xml version="1.0" encoding="UTF-8" standalone="no"?>
<!DOCTYPE svg PUBLIC "-//W3C//DTD SVG 1.1//EN"
 "http://www.w3.org/Graphics/SVG/1.1/DTD/svg11.dtd">
<!-- Generated by graphviz version 2.43.0 (0)
 -->
<!-- Title: dtpo Pages: 1 -->
<svg width="1164pt" height="476pt"
 viewBox="0.00 0.00 1163.75 476.00" xmlns="http://www.w3.org/2000/svg" xmlns:xlink="http://www.w3.org/1999/xlink">
<g id="graph0" class="graph" transform="scale(1 1) rotate(0) translate(4 472)">
<title>dtpo</title>
<polygon fill="white" stroke="transparent" points="-4,4 -4,-472 1159.75,-472 1159.75,4 -4,4"/>
<!-- 0 -->
<g id="node1" class="node">
<title>0</title>
<ellipse fill="#eef3fb" stroke="black" cx="63.74" cy="-185" rx="63.98" ry="18"/>
<text text-anchor="middle" x="63.74" y="-182.2" font-family="Helvetica,sans-Serif" font-size="11.00">obs_18 ≤ &#45;0.688</text>
</g>
<!-- 1 -->
<g id="node2" class="node">
<title>1</title>
<ellipse fill="#eef3fb" stroke="black" cx="238.82" cy="-221" rx="61.17" ry="18"/>
<text text-anchor="middle" x="238.82" y="-218.2" font-family="Helvetica,sans-Serif" font-size="11.00">obs_273 ≤ 1.35</text>
</g>
<!-- 0&#45;&gt;1 -->
<g id="edge1" class="edge">
<title>0&#45;&gt;1</title>
<path fill="none" stroke="#555555" d="M115.73,-195.61C135.44,-199.71 158.13,-204.42 178.56,-208.67"/>
<polygon fill="#555555" stroke="#555555" points="177.88,-212.11 188.38,-210.72 179.3,-205.25 177.88,-212.11"/>
<text text-anchor="middle" x="152.48" y="-207" font-family="Helvetica,sans-Serif" font-size="10.00">yes</text>
</g>
<!-- 2 -->
<g id="node3" class="node">
<title>2</title>
<ellipse fill="#eef3fb" stroke="black" cx="238.82" cy="-131" rx="61.17" ry="18"/>
<text text-anchor="middle" x="238.82" y="-128.2" font-family="Helvetica,sans-Serif" font-size="11.00">obs_488 ≤ 7.52</text>
</g>
<!-- 0&#45;&gt;2 -->
<g id="edge2" class="edge">
<title>0&#45;&gt;2</title>
<path fill="none" stroke="#555555" d="M107.08,-171.79C131.02,-164.32 161.14,-154.92 186.43,-147.03"/>
<polygon fill="#555555" stroke="#555555" points="187.71,-150.3 196.22,-143.98 185.63,-143.62 187.71,-150.3"/>
<text text-anchor="middle" x="152.48" y="-162" font-family="Helvetica,sans-Serif" font-size="10.00">no</text>
</g>
<!-- 3 -->
<g id="node4" class="node">
<title>3</title>
<ellipse fill="#eef3fb" stroke="black" cx="418.11" cy="-285" rx="65.59" ry="18"/>
<text text-anchor="middle" x="418.11" y="-282.2" font-family="Helvetica,sans-Serif" font-size="11.00">obs_380 ≤ 0.573</text>
</g>
<!-- 1&#45;&gt;3 -->
<g id="edge3" class="edge">
<title>1&#45;&gt;3</title>
<path fill="none" stroke="#555555" d="M278.29,-234.89C304.53,-244.36 339.51,-256.99 367.79,-267.2"/>
<polygon fill="#555555" stroke="#555555" points="366.89,-270.59 377.49,-270.7 369.27,-264.01 366.89,-270.59"/>
<text text-anchor="middle" x="325.16" y="-257" font-family="Helvetica,sans-Serif" font-size="10.00">yes</text>
</g>
<!-- 4 -->
<g id="node5" class="node">
<title>4</title>
<ellipse fill="#eef3fb" stroke="black" cx="418.11" cy="-221" rx="65.59" ry="18"/>
<text text-anchor="middle" x="418.11" y="-218.2" font-family="Helvetica,sans-Serif" font-size="11.00">obs_380 ≤ 0.641</text>
</g>
<!-- 1&#45;&gt;4 -->
<g id="edge4" class="edge">
<title>1&#45;&gt;4</title>
<path fill="none" stroke="#555555" d="M300.34,-221C313.82,-221 328.26,-221 342.24,-221"/>
<polygon fill="#555555" stroke="#555555" points="342.32,-224.5 352.32,-221 342.32,-217.5 342.32,-224.5"/>
<text text-anchor="middle" x="325.16" y="-224" font-family="Helvetica,sans-Serif" font-size="10.00">no</text>
</g>
<!-- 17 -->
<g id="node26" class="node">
<title>17</title>
<path fill="#ffb7b7" stroke="black" d="M436.61,-149C436.61,-149 399.61,-149 399.61,-149 393.61,-149 387.61,-143 387.61,-137 387.61,-137 387.61,-125 387.61,-125 387.61,-119 393.61,-113 399.61,-113 399.61,-113 436.61,-113 436.61,-113 442.61,-113 448.61,-119 448.61,-125 448.61,-125 448.61,-137 448.61,-137 448.61,-143 442.61,-149 436.61,-149"/>
<text text-anchor="middle" x="418.11" y="-134.2" font-family="Helvetica,sans-Serif" font-size="11.00">action 0</text>
<text text-anchor="middle" x="418.11" y="-122.2" font-family="Helvetica,sans-Serif" font-size="11.00">p=0.98</text>
</g>
<!-- 2&#45;&gt;17 -->
<g id="edge25" class="edge">
<title>2&#45;&gt;17</title>
<path fill="none" stroke="#555555" d="M300.34,-131C325.62,-131 354.32,-131 376.93,-131"/>
<polygon fill="#555555" stroke="#555555" points="377.18,-134.5 387.18,-131 377.18,-127.5 377.18,-134.5"/>
<text text-anchor="middle" x="325.16" y="-134" font-family="Helvetica,sans-Serif" font-size="10.00">yes</text>
</g>
<!-- 18 -->
<g id="node27" class="node">
<title>18</title>
<ellipse fill="#eef3fb" stroke="black" cx="418.11" cy="-72" rx="67.9" ry="18"/>
<text text-anchor="middle" x="418.11" y="-69.2" font-family="Helvetica,sans-Serif" font-size="11.00">obs_380 ≤ &#45;0.429</text>
</g>
<!-- 2&#45;&gt;18 -->
<g id="edge26" class="edge">
<title>2&#45;&gt;18</title>
<path fill="none" stroke="#555555" d="M280.05,-117.61C305.25,-109.22 337.99,-98.33 365.15,-89.29"/>
<polygon fill="#555555" stroke="#555555" points="366.49,-92.53 374.88,-86.05 364.28,-85.89 366.49,-92.53"/>
<text text-anchor="middle" x="325.16" y="-108" font-family="Helvetica,sans-Serif" font-size="10.00">no</text>
</g>
<!-- 9 -->
<g id="node6" class="node">
<title>9</title>
<ellipse fill="#eef3fb" stroke="black" cx="607.62" cy="-396" rx="63.98" ry="18"/>
<text text-anchor="middle" x="607.62" y="-393.2" font-family="Helvetica,sans-Serif" font-size="11.00">obs_64 ≤ &#45;0.923</text>
</g>
<!-- 3&#45;&gt;9 -->
<g id="edge5" class="edge">
<title>3&#45;&gt;9</title>
<path fill="none" stroke="#555555" d="M446.78,-301.38C479.55,-320.78 534.25,-353.16 570.38,-374.55"/>
<polygon fill="#555555" stroke="#555555" points="568.75,-377.65 579.14,-379.74 572.32,-371.63 568.75,-377.65"/>
<text text-anchor="middle" x="511.06" y="-346" font-family="Helvetica,sans-Serif" font-size="10.00">yes</text>
</g>
<!-- 10 -->
<g id="node7" class="node">
<title>10</title>
<ellipse fill="#eef3fb" stroke="black" cx="607.62" cy="-285" rx="63.98" ry="18"/>
<text text-anchor="middle" x="607.62" y="-282.2" font-family="Helvetica,sans-Serif" font-size="11.00">obs_64 ≤ &#45;0.923</text>
</g>
<!-- 3&#45;&gt;10 -->
<g id="edge6" class="edge">
<title>3&#45;&gt;10</title>
<path fill="none" stroke="#555555" d="M483.9,-285C499.94,-285 517.24,-285 533.64,-285"/>
<polygon fill="#555555" stroke="#555555" points="533.72,-288.5 543.72,-285 533.72,-281.5 533.72,-288.5"/>
<text text-anchor="middle" x="511.06" y="-288" font-family="Helvetica,sans-Serif" font-size="10.00">no</text>
</g>
<!-- 5 -->
<g id="node22" class="node">
<title>5</title>
<path fill="#ffb7b7" stroke="black" d="M626.12,-248C626.12,-248 589.12,-248 589.12,-248 583.12,-248 577.12,-242 577.12,-236 577.12,-236 577.12,-224 577.12,-224 577.12,-218 583.12,-212 589.12,-212 589.12,-212 626.12,-212 626.12,-212 632.12,-212 638.12,-218 638.12,-224 638.12,-224 638.12,-236 638.12,-236 638.12,-242 632.12,-248 626.12,-248"/>
<text text-anchor="middle" x="607.62" y="-233.2" font-family="Helvetica,sans-Serif" font-size="11.00">action 0</text>
<text text-anchor="middle" x="607.62" y="-221.2" font-family="Helvetica,sans-Serif" font-size="11.00">p=0.74</text>
</g>
<!-- 4&#45;&gt;5 -->
<g id="edge21" class="edge">
<title>4&#45;&gt;5</title>
<path fill="none" stroke="#555555" d="M482.85,-224.06C510.6,-225.39 542.26,-226.91 566.62,-228.08"/>
<polygon fill="#555555" stroke="#555555" points="566.76,-231.59 576.91,-228.57 567.09,-224.6 566.76,-231.59"/>
<text text-anchor="middle" x="511.06" y="-228" font-family="Helvetica,sans-Serif" font-size="10.00">yes</text>
</g>
<!-- 6 -->
<g id="node23" class="node">
<title>6</title>
<ellipse fill="#eef3fb" stroke="black" cx="607.62" cy="-176" rx="71.62" ry="18"/>
<text text-anchor="middle" x="607.62" y="-173.2" font-family="Helvetica,sans-Serif" font-size="11.00">obs_462 ≤ &#45;0.0504</text>
</g>
<!-- 4&#45;&gt;6 -->
<g id="edge22" class="edge">
<title>4&#45;&gt;6</title>
<path fill="none" stroke="#555555" d="M468.37,-209.18C491.94,-203.52 520.39,-196.69 545.33,-190.71"/>
<polygon fill="#555555" stroke="#555555" points="546.16,-194.11 555.06,-188.37 544.52,-187.3 546.16,-194.11"/>
<text text-anchor="middle" x="511.06" y="-202" font-family="Helvetica,sans-Serif" font-size="10.00">no</text>
</g>
<!-- 11 -->
<g id="node8" class="node">
<title>11</title>
<path fill="#b7edff" stroke="black" d="M812.51,-468C812.51,-468 768.51,-468 768.51,-468 762.51,-468 756.51,-462 756.51,-456 756.51,-456 756.51,-444 756.51,-444 756.51,-438 762.51,-432 768.51,-432 768.51,-432 812.51,-432 812.51,-432 818.51,-432 824.51,-438 824.51,-444 824.51,-444 824.51,-456 824.51,-456 824.51,-462 818.51,-468 812.51,-468"/>
<text text-anchor="middle" x="790.51" y="-453.2" font-family="Helvetica,sans-Serif" font-size="11.00">action 30</text>
<text text-anchor="middle" x="790.51" y="-441.2" font-family="Helvetica,sans-Serif" font-size="11.00">p=0.78</text>
</g>
<!-- 9&#45;&gt;11 -->
<g id="edge7" class="edge">
<title>9&#45;&gt;11</title>
<path fill="none" stroke="#555555" d="M652.41,-409.07C681.03,-417.62 718.24,-428.72 746.67,-437.21"/>
<polygon fill="#555555" stroke="#555555" points="745.74,-440.59 756.33,-440.09 747.75,-433.88 745.74,-440.59"/>
<text text-anchor="middle" x="704.18" y="-429" font-family="Helvetica,sans-Serif" font-size="10.00">yes</text>
</g>
<!-- 12 -->
<g id="node9" class="node">
<title>12</title>
<ellipse fill="#eef3fb" stroke="black" cx="790.51" cy="-396" rx="61.17" ry="18"/>
<text text-anchor="middle" x="790.51" y="-393.2" font-family="Helvetica,sans-Serif" font-size="11.00">obs_275 ≤ 2.37</text>
</g>
<!-- 9&#45;&gt;12 -->
<g id="edge8" class="edge">
<title>9&#45;&gt;12</title>
<path fill="none" stroke="#555555" d="M671.38,-396C686.7,-396 703.19,-396 718.85,-396"/>
<polygon fill="#555555" stroke="#555555" points="719,-399.5 729,-396 719,-392.5 719,-399.5"/>
<text text-anchor="middle" x="704.18" y="-399" font-family="Helvetica,sans-Serif" font-size="10.00">no</text>
</g>
<!-- 13 -->
<g id="node12" class="node">
<title>13</title>
<ellipse fill="#eef3fb" stroke="black" cx="790.51" cy="-288" rx="61.17" ry="18"/>
<text text-anchor="middle" x="790.51" y="-285.2" font-family="Helvetica,sans-Serif" font-size="11.00">obs_380 ≤ 1.19</text>
</g>
<!-- 10&#45;&gt;13 -->
<g id="edge11" class="edge">
<title>10&#45;&gt;13</title>
<path fill="none" stroke="#555555" d="M671.38,-286.04C686.7,-286.29 703.19,-286.57 718.85,-286.83"/>
<polygon fill="#555555" stroke="#555555" points="718.94,-290.33 729,-287 719.06,-283.33 718.94,-290.33"/>
<text text-anchor="middle" x="704.18" y="-289" font-family="Helvetica,sans-Serif" font-size="10.00">yes</text>
</g>
<!-- 14 -->
<g id="node13" class="node">
<title>14</title>
<ellipse fill="#eef3fb" stroke="black" cx="790.51" cy="-234" rx="61.17" ry="18"/>
<text text-anchor="middle" x="790.51" y="-231.2" font-family="Helvetica,sans-Serif" font-size="11.00">obs_488 ≤ 10.5</text>
</g>
<!-- 10&#45;&gt;14 -->
<g id="edge12" class="edge">
<title>10&#45;&gt;14</title>
<path fill="none" stroke="#555555" d="M653.33,-272.39C678.29,-265.36 709.55,-256.54 735.82,-249.14"/>
<polygon fill="#555555" stroke="#555555" points="736.95,-252.46 745.62,-246.37 735.05,-245.72 736.95,-252.46"/>
<text text-anchor="middle" x="704.18" y="-262" font-family="Helvetica,sans-Serif" font-size="10.00">no</text>
</g>
<!-- 19 -->
<g id="node10" class="node">
<title>19</title>
<path fill="#ffb7b7" stroke="black" d="M988.3,-468C988.3,-468 951.3,-468 951.3,-468 945.3,-468 939.3,-462 939.3,-456 939.3,-456 939.3,-444 939.3,-444 939.3,-438 945.3,-432 951.3,-432 951.3,-432 988.3,-432 988.3,-432 994.3,-432 1000.3,-438 1000.3,-444 1000.3,-444 1000.3,-456 1000.3,-456 1000.3,-462 994.3,-468 988.3,-468"/>
<text text-anchor="middle" x="969.8" y="-453.2" font-family="Helvetica,sans-Serif" font-size="11.00">action 0</text>
<text text-anchor="middle" x="969.8" y="-441.2" font-family="Helvetica,sans-Serif" font-size="11.00">p=0.72</text>
</g>
<!-- 12&#45;&gt;19 -->
<g id="edge9" class="edge">
<title>12&#45;&gt;19</title>
<path fill="none" stroke="#555555" d="M833.98,-408.93C863.03,-417.78 901.25,-429.43 929.58,-438.05"/>
<polygon fill="#555555" stroke="#555555" points="928.57,-441.41 939.16,-440.97 930.61,-434.71 928.57,-441.41"/>
<text text-anchor="middle" x="876.85" y="-427" font-family="Helvetica,sans-Serif" font-size="10.00">yes</text>
</g>
<!-- 20 -->
<g id="node11" class="node">
<title>20</title>
<path fill="#b7edff" stroke="black" d="M991.8,-414C991.8,-414 947.8,-414 947.8,-414 941.8,-414 935.8,-408 935.8,-402 935.8,-402 935.8,-390 935.8,-390 935.8,-384 941.8,-378 947.8,-378 947.8,-378 991.8,-378 991.8,-378 997.8,-378 1003.8,-384 1003.8,-390 1003.8,-390 1003.8,-402 1003.8,-402 1003.8,-408 997.8,-414 991.8,-414"/>
<text text-anchor="middle" x="969.8" y="-399.2" font-family="Helvetica,sans-Serif" font-size="11.00">action 30</text>
<text text-anchor="middle" x="969.8" y="-387.2" font-family="Helvetica,sans-Serif" font-size="11.00">p=0.52</text>
</g>
<!-- 12&#45;&gt;20 -->
<g id="edge10" class="edge">
<title>12&#45;&gt;20</title>
<path fill="none" stroke="#555555" d="M852.03,-396C876.19,-396 903.46,-396 925.57,-396"/>
<polygon fill="#555555" stroke="#555555" points="925.65,-399.5 935.65,-396 925.65,-392.5 925.65,-399.5"/>
<text text-anchor="middle" x="876.85" y="-399" font-family="Helvetica,sans-Serif" font-size="10.00">no</text>
</g>
<!-- 15 -->
<g id="node14" class="node">
<title>15</title>
<ellipse fill="#eef3fb" stroke="black" cx="969.8" cy="-342" rx="67.9" ry="18"/>
<text text-anchor="middle" x="969.8" y="-339.2" font-family="Helvetica,sans-Serif" font-size="11.00">obs_404 ≤ &#45;0.168</text>
</g>
<!-- 13&#45;&gt;15 -->
<g id="edge13" class="edge">
<title>13&#45;&gt;15</title>
<path fill="none" stroke="#555555" d="M833.98,-300.93C858.23,-308.32 888.88,-317.66 914.83,-325.56"/>
<polygon fill="#555555" stroke="#555555" points="913.93,-328.95 924.52,-328.51 915.97,-322.25 913.93,-328.95"/>
<text text-anchor="middle" x="876.85" y="-319" font-family="Helvetica,sans-Serif" font-size="10.00">yes</text>
</g>
<!-- 16 -->
<g id="node15" class="node">
<title>16</title>
<path fill="#ffb7b7" stroke="black" d="M988.3,-306C988.3,-306 951.3,-306 951.3,-306 945.3,-306 939.3,-300 939.3,-294 939.3,-294 939.3,-282 939.3,-282 939.3,-276 945.3,-270 951.3,-270 951.3,-270 988.3,-270 988.3,-270 994.3,-270 1000.3,-276 1000.3,-282 1000.3,-282 1000.3,-294 1000.3,-294 1000.3,-300 994.3,-306 988.3,-306"/>
<text text-anchor="middle" x="969.8" y="-291.2" font-family="Helvetica,sans-Serif" font-size="11.00">action 0</text>
<text text-anchor="middle" x="969.8" y="-279.2" font-family="Helvetica,sans-Serif" font-size="11.00">p=0.78</text>
</g>
<!-- 13&#45;&gt;16 -->
<g id="edge14" class="edge">
<title>13&#45;&gt;16</title>
<path fill="none" stroke="#555555" d="M852.03,-288C877.32,-288 906.01,-288 928.62,-288"/>
<polygon fill="#555555" stroke="#555555" points="928.87,-291.5 938.87,-288 928.87,-284.5 928.87,-291.5"/>
<text text-anchor="middle" x="876.85" y="-291" font-family="Helvetica,sans-Serif" font-size="10.00">no</text>
</g>
<!-- 21 -->
<g id="node18" class="node">
<title>21</title>
<path fill="#ffb7b7" stroke="black" d="M988.3,-252C988.3,-252 951.3,-252 951.3,-252 945.3,-252 939.3,-246 939.3,-240 939.3,-240 939.3,-228 939.3,-228 939.3,-222 945.3,-216 951.3,-216 951.3,-216 988.3,-216 988.3,-216 994.3,-216 1000.3,-222 1000.3,-228 1000.3,-228 1000.3,-240 1000.3,-240 1000.3,-246 994.3,-252 988.3,-252"/>
<text text-anchor="middle" x="969.8" y="-237.2" font-family="Helvetica,sans-Serif" font-size="11.00">action 0</text>
<text text-anchor="middle" x="969.8" y="-225.2" font-family="Helvetica,sans-Serif" font-size="11.00">p=0.86</text>
</g>
<!-- 14&#45;&gt;21 -->
<g id="edge17" class="edge">
<title>14&#45;&gt;21</title>
<path fill="none" stroke="#555555" d="M852.03,-234C877.32,-234 906.01,-234 928.62,-234"/>
<polygon fill="#555555" stroke="#555555" points="928.87,-237.5 938.87,-234 928.87,-230.5 928.87,-237.5"/>
<text text-anchor="middle" x="876.85" y="-237" font-family="Helvetica,sans-Serif" font-size="10.00">yes</text>
</g>
<!-- 22 -->
<g id="node19" class="node">
<title>22</title>
<ellipse fill="#eef3fb" stroke="black" cx="969.8" cy="-180" rx="67.9" ry="18"/>
<text text-anchor="middle" x="969.8" y="-177.2" font-family="Helvetica,sans-Serif" font-size="11.00">obs_187 ≤ &#45;0.785</text>
</g>
<!-- 14&#45;&gt;22 -->
<g id="edge18" class="edge">
<title>14&#45;&gt;22</title>
<path fill="none" stroke="#555555" d="M833.98,-221.07C858.23,-213.68 888.88,-204.34 914.83,-196.44"/>
<polygon fill="#555555" stroke="#555555" points="915.97,-199.75 924.52,-193.49 913.93,-193.05 915.97,-199.75"/>
<text text-anchor="middle" x="876.85" y="-213" font-family="Helvetica,sans-Serif" font-size="10.00">no</text>
</g>
<!-- 27 -->
<g id="node16" class="node">
<title>27</title>
<path fill="#b7edff" stroke="black" d="M1143.75,-360C1143.75,-360 1099.75,-360 1099.75,-360 1093.75,-360 1087.75,-354 1087.75,-348 1087.75,-348 1087.75,-336 1087.75,-336 1087.75,-330 1093.75,-324 1099.75,-324 1099.75,-324 1143.75,-324 1143.75,-324 1149.75,-324 1155.75,-330 1155.75,-336 1155.75,-336 1155.75,-348 1155.75,-348 1155.75,-354 1149.75,-360 1143.75,-360"/>
<text text-anchor="middle" x="1121.75" y="-345.2" font-family="Helvetica,sans-Serif" font-size="11.00">action 30</text>
<text text-anchor="middle" x="1121.75" y="-333.2" font-family="Helvetica,sans-Serif" font-size="11.00">p=0.71</text>
</g>
<!-- 15&#45;&gt;27 -->
<g id="edge15" class="edge">
<title>15&#45;&gt;27</title>
<path fill="none" stroke="#555555" d="M1037.88,-342C1051.29,-342 1065.03,-342 1077.37,-342"/>
<polygon fill="#555555" stroke="#555555" points="1077.37,-345.5 1087.37,-342 1077.37,-338.5 1077.37,-345.5"/>
<text text-anchor="middle" x="1062.75" y="-345" font-family="Helvetica,sans-Serif" font-size="10.00">yes</text>
</g>
<!-- 28 -->
<g id="node17" class="node">
<title>28</title>
<path fill="#ffb7b7" stroke="black" d="M1140.25,-306C1140.25,-306 1103.25,-306 1103.25,-306 1097.25,-306 1091.25,-300 1091.25,-294 1091.25,-294 1091.25,-282 1091.25,-282 1091.25,-276 1097.25,-270 1103.25,-270 1103.25,-270 1140.25,-270 1140.25,-270 1146.25,-270 1152.25,-276 1152.25,-282 1152.25,-282 1152.25,-294 1152.25,-294 1152.25,-300 1146.25,-306 1140.25,-306"/>
<text text-anchor="middle" x="1121.75" y="-291.2" font-family="Helvetica,sans-Serif" font-size="11.00">action 0</text>
<text text-anchor="middle" x="1121.75" y="-279.2" font-family="Helvetica,sans-Serif" font-size="11.00">p=0.81</text>
</g>
<!-- 15&#45;&gt;28 -->
<g id="edge16" class="edge">
<title>15&#45;&gt;28</title>
<path fill="none" stroke="#555555" d="M1010.99,-327.53C1032.8,-319.67 1059.67,-310 1081.36,-302.19"/>
<polygon fill="#555555" stroke="#555555" points="1082.71,-305.42 1090.93,-298.74 1080.33,-298.84 1082.71,-305.42"/>
<text text-anchor="middle" x="1062.75" y="-314" font-family="Helvetica,sans-Serif" font-size="10.00">no</text>
</g>
<!-- 23 -->
<g id="node20" class="node">
<title>23</title>
<path fill="#ffb7b7" stroke="black" d="M1140.25,-225C1140.25,-225 1103.25,-225 1103.25,-225 1097.25,-225 1091.25,-219 1091.25,-213 1091.25,-213 1091.25,-201 1091.25,-201 1091.25,-195 1097.25,-189 1103.25,-189 1103.25,-189 1140.25,-189 1140.25,-189 1146.25,-189 1152.25,-195 1152.25,-201 1152.25,-201 1152.25,-213 1152.25,-213 1152.25,-219 1146.25,-225 1140.25,-225"/>
<text text-anchor="middle" x="1121.75" y="-210.2" font-family="Helvetica,sans-Serif" font-size="11.00">action 0</text>
<text text-anchor="middle" x="1121.75" y="-198.2" font-family="Helvetica,sans-Serif" font-size="11.00">p=0.69</text>
</g>
<!-- 22&#45;&gt;23 -->
<g id="edge19" class="edge">
<title>22&#45;&gt;23</title>
<path fill="none" stroke="#555555" d="M1026.64,-190.05C1044.7,-193.31 1064.36,-196.85 1081.01,-199.84"/>
<polygon fill="#555555" stroke="#555555" points="1080.49,-203.31 1090.95,-201.63 1081.73,-196.42 1080.49,-203.31"/>
<text text-anchor="middle" x="1062.75" y="-200" font-family="Helvetica,sans-Serif" font-size="10.00">yes</text>
</g>
<!-- 24 -->
<g id="node21" class="node">
<title>24</title>
<path fill="#b7edff" stroke="black" d="M1143.75,-171C1143.75,-171 1099.75,-171 1099.75,-171 1093.75,-171 1087.75,-165 1087.75,-159 1087.75,-159 1087.75,-147 1087.75,-147 1087.75,-141 1093.75,-135 1099.75,-135 1099.75,-135 1143.75,-135 1143.75,-135 1149.75,-135 1155.75,-141 1155.75,-147 1155.75,-147 1155.75,-159 1155.75,-159 1155.75,-165 1149.75,-171 1143.75,-171"/>
<text text-anchor="middle" x="1121.75" y="-156.2" font-family="Helvetica,sans-Serif" font-size="11.00">action 30</text>
<text text-anchor="middle" x="1121.75" y="-144.2" font-family="Helvetica,sans-Serif" font-size="11.00">p=0.81</text>
</g>
<!-- 22&#45;&gt;24 -->
<g id="edge20" class="edge">
<title>22&#45;&gt;24</title>
<path fill="none" stroke="#555555" d="M1026.64,-169.95C1043.44,-166.92 1061.62,-163.65 1077.48,-160.79"/>
<polygon fill="#555555" stroke="#555555" points="1078.3,-164.2 1087.53,-158.98 1077.06,-157.31 1078.3,-164.2"/>
<text text-anchor="middle" x="1062.75" y="-167" font-family="Helvetica,sans-Serif" font-size="10.00">no</text>
</g>
<!-- 7 -->
<g id="node24" class="node">
<title>7</title>
<path fill="#ffb7b7" stroke="black" d="M809.01,-198C809.01,-198 772.01,-198 772.01,-198 766.01,-198 760.01,-192 760.01,-186 760.01,-186 760.01,-174 760.01,-174 760.01,-168 766.01,-162 772.01,-162 772.01,-162 809.01,-162 809.01,-162 815.01,-162 821.01,-168 821.01,-174 821.01,-174 821.01,-186 821.01,-186 821.01,-192 815.01,-198 809.01,-198"/>
<text text-anchor="middle" x="790.51" y="-183.2" font-family="Helvetica,sans-Serif" font-size="11.00">action 0</text>
<text text-anchor="middle" x="790.51" y="-171.2" font-family="Helvetica,sans-Serif" font-size="11.00">p=0.83</text>
</g>
<!-- 6&#45;&gt;7 -->
<g id="edge23" class="edge">
<title>6&#45;&gt;7</title>
<path fill="none" stroke="#555555" d="M679.08,-177.56C703.01,-178.09 728.91,-178.66 749.6,-179.12"/>
<polygon fill="#555555" stroke="#555555" points="749.54,-182.62 759.61,-179.34 749.69,-175.62 749.54,-182.62"/>
<text text-anchor="middle" x="704.18" y="-181" font-family="Helvetica,sans-Serif" font-size="10.00">yes</text>
</g>
<!-- 8 -->
<g id="node25" class="node">
<title>8</title>
<path fill="#b7edff" stroke="black" d="M812.51,-144C812.51,-144 768.51,-144 768.51,-144 762.51,-144 756.51,-138 756.51,-132 756.51,-132 756.51,-120 756.51,-120 756.51,-114 762.51,-108 768.51,-108 768.51,-108 812.51,-108 812.51,-108 818.51,-108 824.51,-114 824.51,-120 824.51,-120 824.51,-132 824.51,-132 824.51,-138 818.51,-144 812.51,-144"/>
<text text-anchor="middle" x="790.51" y="-129.2" font-family="Helvetica,sans-Serif" font-size="11.00">action 30</text>
<text text-anchor="middle" x="790.51" y="-117.2" font-family="Helvetica,sans-Serif" font-size="11.00">p=0.99</text>
</g>
<!-- 6&#45;&gt;8 -->
<g id="edge24" class="edge">
<title>6&#45;&gt;8</title>
<path fill="none" stroke="#555555" d="M656.62,-162.73C684.56,-155.01 719.48,-145.36 746.51,-137.88"/>
<polygon fill="#555555" stroke="#555555" points="747.75,-141.17 756.46,-135.14 745.89,-134.43 747.75,-141.17"/>
<text text-anchor="middle" x="704.18" y="-154" font-family="Helvetica,sans-Serif" font-size="10.00">no</text>
</g>
<!-- 25 -->
<g id="node28" class="node">
<title>25</title>
<ellipse fill="#eef3fb" stroke="black" cx="607.62" cy="-72" rx="67.9" ry="18"/>
<text text-anchor="middle" x="607.62" y="-69.2" font-family="Helvetica,sans-Serif" font-size="11.00">obs_429 ≤ &#45;0.379</text>
</g>
<!-- 18&#45;&gt;25 -->
<g id="edge27" class="edge">
<title>18&#45;&gt;25</title>
<path fill="none" stroke="#555555" d="M486.27,-72C500.23,-72 515.04,-72 529.32,-72"/>
<polygon fill="#555555" stroke="#555555" points="529.61,-75.5 539.61,-72 529.61,-68.5 529.61,-75.5"/>
<text text-anchor="middle" x="511.06" y="-75" font-family="Helvetica,sans-Serif" font-size="10.00">yes</text>
</g>
<!-- 26 -->
<g id="node29" class="node">
<title>26</title>
<path fill="#ffb7b7" stroke="black" d="M626.12,-36C626.12,-36 589.12,-36 589.12,-36 583.12,-36 577.12,-30 577.12,-24 577.12,-24 577.12,-12 577.12,-12 577.12,-6 583.12,0 589.12,0 589.12,0 626.12,0 626.12,0 632.12,0 638.12,-6 638.12,-12 638.12,-12 638.12,-24 638.12,-24 638.12,-30 632.12,-36 626.12,-36"/>
<text text-anchor="middle" x="607.62" y="-21.2" font-family="Helvetica,sans-Serif" font-size="11.00">action 0</text>
<text text-anchor="middle" x="607.62" y="-9.2" font-family="Helvetica,sans-Serif" font-size="11.00">p=0.75</text>
</g>
<!-- 18&#45;&gt;26 -->
<g id="edge28" class="edge">
<title>18&#45;&gt;26</title>
<path fill="none" stroke="#555555" d="M464.98,-58.79C496.34,-49.76 537.48,-37.91 567.34,-29.31"/>
<polygon fill="#555555" stroke="#555555" points="568.36,-32.66 577,-26.53 566.42,-25.93 568.36,-32.66"/>
<text text-anchor="middle" x="511.06" y="-49" font-family="Helvetica,sans-Serif" font-size="10.00">no</text>
</g>
<!-- 29 -->
<g id="node30" class="node">
<title>29</title>
<path fill="#b7edff" stroke="black" d="M812.51,-90C812.51,-90 768.51,-90 768.51,-90 762.51,-90 756.51,-84 756.51,-78 756.51,-78 756.51,-66 756.51,-66 756.51,-60 762.51,-54 768.51,-54 768.51,-54 812.51,-54 812.51,-54 818.51,-54 824.51,-60 824.51,-66 824.51,-66 824.51,-78 824.51,-78 824.51,-84 818.51,-90 812.51,-90"/>
<text text-anchor="middle" x="790.51" y="-75.2" font-family="Helvetica,sans-Serif" font-size="11.00">action 30</text>
<text text-anchor="middle" x="790.51" y="-63.2" font-family="Helvetica,sans-Serif" font-size="11.00">p=0.74</text>
</g>
<!-- 25&#45;&gt;29 -->
<g id="edge29" class="edge">
<title>25&#45;&gt;29</title>
<path fill="none" stroke="#555555" d="M675.72,-72C699.29,-72 725.13,-72 746.22,-72"/>
<polygon fill="#555555" stroke="#555555" points="746.47,-75.5 756.47,-72 746.47,-68.5 746.47,-75.5"/>
<text text-anchor="middle" x="704.18" y="-75" font-family="Helvetica,sans-Serif" font-size="10.00">yes</text>
</g>
<!-- 30 -->
<g id="node31" class="node">
<title>30</title>
<path fill="#ffb7b7" stroke="black" d="M809.01,-36C809.01,-36 772.01,-36 772.01,-36 766.01,-36 760.01,-30 760.01,-24 760.01,-24 760.01,-12 760.01,-12 760.01,-6 766.01,0 772.01,0 772.01,0 809.01,0 809.01,0 815.01,0 821.01,-6 821.01,-12 821.01,-12 821.01,-24 821.01,-24 821.01,-30 815.01,-36 809.01,-36"/>
<text text-anchor="middle" x="790.51" y="-21.2" font-family="Helvetica,sans-Serif" font-size="11.00">action 0</text>
<text text-anchor="middle" x="790.51" y="-9.2" font-family="Helvetica,sans-Serif" font-size="11.00">p=0.61</text>
</g>
<!-- 25&#45;&gt;30 -->
<g id="edge30" class="edge">
<title>25&#45;&gt;30</title>
<path fill="none" stroke="#555555" d="M653.33,-58.65C683.1,-49.77 721.82,-38.21 750.37,-29.69"/>
<polygon fill="#555555" stroke="#555555" points="751.43,-33.02 760.01,-26.81 749.42,-26.32 751.43,-33.02"/>
<text text-anchor="middle" x="704.18" y="-48" font-family="Helvetica,sans-Serif" font-size="10.00">no</text>
</g>
</g>
</svg>
