<?xml version="1.0" encoding="UTF-8" standalone="no"?>
<!DOCTYPE svg PUBLIC "-//W3C//DTD SVG 1.1//EN"
 "http://www.w3.org/Graphics/SVG/1.1/DTD/svg11.dtd">
<!-- Generated by graphviz version 2.43.0 (0)
 -->
<!-- Title: dtpo Pages: 1 -->
<svg width="788pt" height="246pt"
 viewBox="0.00 0.00 788.34 246.00" xmlns="http://www.w3.org/2000/svg" xmlns:xlink="http://www.w3.org/1999/xlink">
<g id="graph0" class="graph" transform="scale(1 1) rotate(0) translate(4 242)">
<title>dtpo</title>
<polygon fill="white" stroke="transparent" points="-4,4 -4,-242 784.34,-242 784.34,4 -4,4"/>
<!-- 0 -->
<g id="node1" class="node">
<title>0</title>
<ellipse fill="#eef3fb" stroke="black" cx="65.55" cy="-99" rx="65.59" ry="18"/>
<text text-anchor="middle" x="65.55" y="-96.2" font-family="Helvetica,sans-Serif" font-size="11.00">obs_55 ≤ 0.0221</text>
</g>
<!-- 1 -->
<g id="node2" class="node">
<title>1</title>
<ellipse fill="#eef3fb" stroke="black" cx="244.83" cy="-126" rx="63.98" ry="18"/>
<text text-anchor="middle" x="244.83" y="-123.2" font-family="Helvetica,sans-Serif" font-size="11.00">obs_73 ≤ &#45;0.767</text>
</g>
<!-- 0&#45;&gt;1 -->
<g id="edge1" class="edge">
<title>0&#45;&gt;1</title>
<path fill="none" stroke="#555555" d="M123.13,-107.62C140.74,-110.3 160.31,-113.28 178.47,-116.05"/>
<polygon fill="#555555" stroke="#555555" points="177.98,-119.51 188.39,-117.56 179.03,-112.59 177.98,-119.51"/>
<text text-anchor="middle" x="156.09" y="-116" font-family="Helvetica,sans-Serif" font-size="10.00">yes</text>
</g>
<!-- 2 -->
<g id="node3" class="node">
<title>2</title>
<ellipse fill="#eef3fb" stroke="black" cx="244.83" cy="-72" rx="61.17" ry="18"/>
<text text-anchor="middle" x="244.83" y="-69.2" font-family="Helvetica,sans-Serif" font-size="11.00">obs_143 ≤ 1.14</text>
</g>
<!-- 0&#45;&gt;2 -->
<g id="edge2" class="edge">
<title>0&#45;&gt;2</title>
<path fill="none" stroke="#555555" d="M123.13,-90.38C141.17,-87.64 161.26,-84.58 179.79,-81.75"/>
<polygon fill="#555555" stroke="#555555" points="180.54,-85.18 189.9,-80.21 179.49,-78.26 180.54,-85.18"/>
<text text-anchor="middle" x="156.09" y="-89" font-family="Helvetica,sans-Serif" font-size="10.00">no</text>
</g>
<!-- 3 -->
<g id="node4" class="node">
<title>3</title>
<path fill="#eaffb7" stroke="black" d="M441.91,-198C441.91,-198 397.91,-198 397.91,-198 391.91,-198 385.91,-192 385.91,-186 385.91,-186 385.91,-174 385.91,-174 385.91,-168 391.91,-162 397.91,-162 397.91,-162 441.91,-162 441.91,-162 447.91,-162 453.91,-168 453.91,-174 453.91,-174 453.91,-186 453.91,-186 453.91,-192 447.91,-198 441.91,-198"/>
<text text-anchor="middle" x="419.91" y="-183.2" font-family="Helvetica,sans-Serif" font-size="11.00">action 23</text>
<text text-anchor="middle" x="419.91" y="-171.2" font-family="Helvetica,sans-Serif" font-size="11.00">p=0.89</text>
</g>
<!-- 1&#45;&gt;3 -->
<g id="edge3" class="edge">
<title>1&#45;&gt;3</title>
<path fill="none" stroke="#555555" d="M288.17,-139.21C314.8,-147.52 349.05,-158.2 375.81,-166.55"/>
<polygon fill="#555555" stroke="#555555" points="375.08,-169.99 385.67,-169.63 377.17,-163.31 375.08,-169.99"/>
<text text-anchor="middle" x="333.58" y="-157" font-family="Helvetica,sans-Serif" font-size="10.00">yes</text>
</g>
<!-- 4 -->
<g id="node5" class="node">
<title>4</title>
<ellipse fill="#eef3fb" stroke="black" cx="419.91" cy="-126" rx="57.25" ry="18"/>
<text text-anchor="middle" x="419.91" y="-123.2" font-family="Helvetica,sans-Serif" font-size="11.00">obs_60 ≤ 1.49</text>
</g>
<!-- 1&#45;&gt;4 -->
<g id="edge4" class="edge">
<title>1&#45;&gt;4</title>
<path fill="none" stroke="#555555" d="M308.81,-126C322.96,-126 338.03,-126 352.33,-126"/>
<polygon fill="#555555" stroke="#555555" points="352.58,-129.5 362.58,-126 352.58,-122.5 352.58,-129.5"/>
<text text-anchor="middle" x="333.58" y="-129" font-family="Helvetica,sans-Serif" font-size="10.00">no</text>
</g>
<!-- 5 -->
<g id="node10" class="node">
<title>5</title>
<ellipse fill="#eef3fb" stroke="black" cx="419.91" cy="-72" rx="61.17" ry="18"/>
<text text-anchor="middle" x="419.91" y="-69.2" font-family="Helvetica,sans-Serif" font-size="11.00">obs_36 ≤ 0.319</text>
</g>
<!-- 2&#45;&gt;5 -->
<g id="edge9" class="edge">
<title>2&#45;&gt;5</title>
<path fill="none" stroke="#555555" d="M306.37,-72C319.94,-72 334.45,-72 348.39,-72"/>
<polygon fill="#555555" stroke="#555555" points="348.41,-75.5 358.41,-72 348.41,-68.5 348.41,-75.5"/>
<text text-anchor="middle" x="333.58" y="-75" font-family="Helvetica,sans-Serif" font-size="10.00">yes</text>
</g>
<!-- 6 -->
<g id="node11" class="node">
<title>6</title>
<path fill="#f9ffb7" stroke="black" d="M441.91,-36C441.91,-36 397.91,-36 397.91,-36 391.91,-36 385.91,-30 385.91,-24 385.91,-24 385.91,-12 385.91,-12 385.91,-6 391.91,0 397.91,0 397.91,0 441.91,0 441.91,0 447.91,0 453.91,-6 453.91,-12 453.91,-12 453.91,-24 453.91,-24 453.91,-30 447.91,-36 441.91,-36"/>
<text text-anchor="middle" x="419.91" y="-21.2" font-family="Helvetica,sans-Serif" font-size="11.00">action 10</text>
<text text-anchor="middle" x="419.91" y="-9.2" font-family="Helvetica,sans-Serif" font-size="11.00">p=0.93</text>
</g>
<!-- 2&#45;&gt;6 -->
<g id="edge10" class="edge">
<title>2&#45;&gt;6</title>
<path fill="none" stroke="#555555" d="M287.73,-58.93C314.55,-50.56 349.25,-39.73 376.22,-31.32"/>
<polygon fill="#555555" stroke="#555555" points="377.28,-34.66 385.78,-28.34 375.19,-27.97 377.28,-34.66"/>
<text text-anchor="middle" x="333.58" y="-49" font-family="Helvetica,sans-Serif" font-size="10.00">no</text>
</g>
<!-- 9 -->
<g id="node6" class="node">
<title>9</title>
<ellipse fill="#eef3fb" stroke="black" cx="596.79" cy="-180" rx="65.59" ry="18"/>
<text text-anchor="middle" x="596.79" y="-177.2" font-family="Helvetica,sans-Serif" font-size="11.00">obs_143 ≤ 0.925</text>
</g>
<!-- 4&#45;&gt;9 -->
<g id="edge5" class="edge">
<title>4&#45;&gt;9</title>
<path fill="none" stroke="#555555" d="M461.47,-138.52C485.63,-145.98 516.57,-155.54 542.66,-163.59"/>
<polygon fill="#555555" stroke="#555555" points="541.81,-166.99 552.4,-166.6 543.87,-160.31 541.81,-166.99"/>
<text text-anchor="middle" x="506.25" y="-157" font-family="Helvetica,sans-Serif" font-size="10.00">yes</text>
</g>
<!-- 10 -->
<g id="node7" class="node">
<title>10</title>
<path fill="#b7bdff" stroke="black" d="M618.79,-144C618.79,-144 574.79,-144 574.79,-144 568.79,-144 562.79,-138 562.79,-132 562.79,-132 562.79,-120 562.79,-120 562.79,-114 568.79,-108 574.79,-108 574.79,-108 618.79,-108 618.79,-108 624.79,-108 630.79,-114 630.79,-120 630.79,-120 630.79,-132 630.79,-132 630.79,-138 624.79,-144 618.79,-144"/>
<text text-anchor="middle" x="596.79" y="-129.2" font-family="Helvetica,sans-Serif" font-size="11.00">action 14</text>
<text text-anchor="middle" x="596.79" y="-117.2" font-family="Helvetica,sans-Serif" font-size="11.00">p=0.75</text>
</g>
<!-- 4&#45;&gt;10 -->
<g id="edge6" class="edge">
<title>4&#45;&gt;10</title>
<path fill="none" stroke="#555555" d="M477.21,-126C501.63,-126 529.77,-126 552.51,-126"/>
<polygon fill="#555555" stroke="#555555" points="552.55,-129.5 562.55,-126 552.55,-122.5 552.55,-129.5"/>
<text text-anchor="middle" x="506.25" y="-129" font-family="Helvetica,sans-Serif" font-size="10.00">no</text>
</g>
<!-- 13 -->
<g id="node8" class="node">
<title>13</title>
<path fill="#b7e4ff" stroke="black" d="M764.84,-238C764.84,-238 727.84,-238 727.84,-238 721.84,-238 715.84,-232 715.84,-226 715.84,-226 715.84,-214 715.84,-214 715.84,-208 721.84,-202 727.84,-202 727.84,-202 764.84,-202 764.84,-202 770.84,-202 776.84,-208 776.84,-214 776.84,-214 776.84,-226 776.84,-226 776.84,-232 770.84,-238 764.84,-238"/>
<text text-anchor="middle" x="746.34" y="-223.2" font-family="Helvetica,sans-Serif" font-size="11.00">action 9</text>
<text text-anchor="middle" x="746.34" y="-211.2" font-family="Helvetica,sans-Serif" font-size="11.00">p=0.31</text>
</g>
<!-- 9&#45;&gt;13 -->
<g id="edge7" class="edge">
<title>9&#45;&gt;13</title>
<path fill="none" stroke="#555555" d="M644.07,-192.55C663.85,-197.91 686.69,-204.1 705.68,-209.25"/>
<polygon fill="#555555" stroke="#555555" points="704.93,-212.67 715.5,-211.91 706.76,-205.91 704.93,-212.67"/>
<text text-anchor="middle" x="687.34" y="-208" font-family="Helvetica,sans-Serif" font-size="10.00">yes</text>
</g>
<!-- 14 -->
<g id="node9" class="node">
<title>14</title>
<path fill="#f9ffb7" stroke="black" d="M768.34,-184C768.34,-184 724.34,-184 724.34,-184 718.34,-184 712.34,-178 712.34,-172 712.34,-172 712.34,-160 712.34,-160 712.34,-154 718.34,-148 724.34,-148 724.34,-148 768.34,-148 768.34,-148 774.34,-148 780.34,-154 780.34,-160 780.34,-160 780.34,-172 780.34,-172 780.34,-178 774.34,-184 768.34,-184"/>
<text text-anchor="middle" x="746.34" y="-169.2" font-family="Helvetica,sans-Serif" font-size="11.00">action 10</text>
<text text-anchor="middle" x="746.34" y="-157.2" font-family="Helvetica,sans-Serif" font-size="11.00">p=0.99</text>
</g>
<!-- 9&#45;&gt;14 -->
<g id="edge8" class="edge">
<title>9&#45;&gt;14</title>
<path fill="none" stroke="#555555" d="M659.08,-174.18C673.6,-172.81 688.77,-171.37 702.28,-170.09"/>
<polygon fill="#555555" stroke="#555555" points="702.61,-173.57 712.24,-169.14 701.95,-166.6 702.61,-173.57"/>
<text text-anchor="middle" x="687.34" y="-175" font-family="Helvetica,sans-Serif" font-size="10.00">no</text>
</g>
<!-- 7 -->
<g id="node12" class="node">
<title>7</title>
<ellipse fill="#eef3fb" stroke="black" cx="596.79" cy="-72" rx="63.98" ry="18"/>
<text text-anchor="middle" x="596.79" y="-69.2" font-family="Helvetica,sans-Serif" font-size="11.00">obs_73 ≤ &#45;0.728</text>
</g>
<!-- 5&#45;&gt;7 -->
<g id="edge11" class="edge">
<title>5&#45;&gt;7</title>
<path fill="none" stroke="#555555" d="M481.59,-72C494.79,-72 508.9,-72 522.54,-72"/>
<polygon fill="#555555" stroke="#555555" points="522.85,-75.5 532.85,-72 522.85,-68.5 522.85,-75.5"/>
<text text-anchor="middle" x="506.25" y="-75" font-family="Helvetica,sans-Serif" font-size="10.00">yes</text>
</g>
<!-- 8 -->
<g id="node13" class="node">
<title>8</title>
<path fill="#ffb7b7" stroke="black" d="M615.29,-36C615.29,-36 578.29,-36 578.29,-36 572.29,-36 566.29,-30 566.29,-24 566.29,-24 566.29,-12 566.29,-12 566.29,-6 572.29,0 578.29,0 578.29,0 615.29,0 615.29,0 621.29,0 627.29,-6 627.29,-12 627.29,-12 627.29,-24 627.29,-24 627.29,-30 621.29,-36 615.29,-36"/>
<text text-anchor="middle" x="596.79" y="-21.2" font-family="Helvetica,sans-Serif" font-size="11.00">action 0</text>
<text text-anchor="middle" x="596.79" y="-9.2" font-family="Helvetica,sans-Serif" font-size="11.00">p=0.60</text>
</g>
<!-- 5&#45;&gt;8 -->
<g id="edge12" class="edge">
<title>5&#45;&gt;8</title>
<path fill="none" stroke="#555555" d="M462.8,-59.07C491.24,-50.28 528.6,-38.75 556.48,-30.14"/>
<polygon fill="#555555" stroke="#555555" points="557.76,-33.41 566.29,-27.11 555.7,-26.72 557.76,-33.41"/>
<text text-anchor="middle" x="506.25" y="-51" font-family="Helvetica,sans-Serif" font-size="10.00">no</text>
</g>
<!-- 11 -->
<g id="node14" class="node">
<title>11</title>
<path fill="#eaffb7" stroke="black" d="M768.34,-117C768.34,-117 724.34,-117 724.34,-117 718.34,-117 712.34,-111 712.34,-105 712.34,-105 712.34,-93 712.34,-93 712.34,-87 718.34,-81 724.34,-81 724.34,-81 768.34,-81 768.34,-81 774.34,-81 780.34,-87 780.34,-93 780.34,-93 780.34,-105 780.34,-105 780.34,-111 774.34,-117 768.34,-117"/>
<text text-anchor="middle" x="746.34" y="-102.2" font-family="Helvetica,sans-Serif" font-size="11.00">action 23</text>
<text text-anchor="middle" x="746.34" y="-90.2" font-family="Helvetica,sans-Serif" font-size="11.00">p=0.90</text>
</g>
<!-- 7&#45;&gt;11 -->
<g id="edge13" class="edge">
<title>7&#45;&gt;11</title>
<path fill="none" stroke="#555555" d="M650.64,-81.67C667.47,-84.75 685.87,-88.12 701.94,-91.06"/>
<polygon fill="#555555" stroke="#555555" points="701.66,-94.57 712.13,-92.92 702.92,-87.68 701.66,-94.57"/>
<text text-anchor="middle" x="687.34" y="-92" font-family="Helvetica,sans-Serif" font-size="10.00">yes</text>
</g>
<!-- 12 -->
<g id="node15" class="node">
<title>12</title>
<path fill="#e1ffb7" stroke="black" d="M764.84,-63C764.84,-63 727.84,-63 727.84,-63 721.84,-63 715.84,-57 715.84,-51 715.84,-51 715.84,-39 715.84,-39 715.84,-33 721.84,-27 727.84,-27 727.84,-27 764.84,-27 764.84,-27 770.84,-27 776.84,-33 776.84,-39 776.84,-39 776.84,-51 776.84,-51 776.84,-57 770.84,-63 764.84,-63"/>
<text text-anchor="middle" x="746.34" y="-48.2" font-family="Helvetica,sans-Serif" font-size="11.00">action 2</text>
<text text-anchor="middle" x="746.34" y="-36.2" font-family="Helvetica,sans-Serif" font-size="11.00">p=0.51</text>
</g>
<!-- 7&#45;&gt;12 -->
<g id="edge14" class="edge">
<title>7&#45;&gt;12</title>
<path fill="none" stroke="#555555" d="M650.64,-62.33C668.72,-59.02 688.63,-55.38 705.5,-52.29"/>
<polygon fill="#555555" stroke="#555555" points="706.37,-55.69 715.58,-50.45 705.11,-48.8 706.37,-55.69"/>
<text text-anchor="middle" x="687.34" y="-59" font-family="Helvetica,sans-Serif" font-size="10.00">no</text>
</g>
</g>
</svg>
