<?xml version="1.0" encoding="UTF-8" standalone="no"?>
<!DOCTYPE svg PUBLIC "-//W3C//DTD SVG 1.1//EN"
 "http://www.w3.org/Graphics/SVG/1.1/DTD/svg11.dtd">
<!-- Generated by graphviz version 2.43.0 (0)
 -->
<!-- Title: dtpo Pages: 1 -->
<svg width="1300pt" height="476pt"
 viewBox="0.00 0.00 1300.35 476.00" xmlns="http://www.w3.org/2000/svg" xmlns:xlink="http://www.w3.org/1999/xlink">
<g id="graph0" class="graph" transform="scale(1 1) rotate(0) translate(4 472)">
<title>dtpo</title>
<polygon fill="white" stroke="transparent" points="-4,4 -4,-472 1296.35,-472 1296.35,4 -4,4"/>
<!-- 0 -->
<g id="node1" class="node">
<title>0</title>
<ellipse fill="#eef3fb" stroke="black" cx="57.13" cy="-291" rx="57.25" ry="18"/>
<text text-anchor="middle" x="57.13" y="-288.2" font-family="Helvetica,sans-Serif" font-size="11.00">obs_25 ≤ 2.01</text>
</g>
<!-- 1 -->
<g id="node2" class="node">
<title>1</title>
<ellipse fill="#eef3fb" stroke="black" cx="223.79" cy="-318" rx="59.56" ry="18"/>
<text text-anchor="middle" x="223.79" y="-315.2" font-family="Helvetica,sans-Serif" font-size="11.00">obs_23 ≤ &#45;2.26</text>
</g>
<!-- 0&#45;&gt;1 -->
<g id="edge1" class="edge">
<title>0&#45;&gt;1</title>
<path fill="none" stroke="#555555" d="M108.43,-299.25C125.03,-301.97 143.69,-305.03 161.05,-307.88"/>
<polygon fill="#555555" stroke="#555555" points="160.66,-311.36 171.09,-309.52 161.79,-304.45 160.66,-311.36"/>
<text text-anchor="middle" x="139.25" y="-308" font-family="Helvetica,sans-Serif" font-size="10.00">yes</text>
</g>
<!-- 2 -->
<g id="node3" class="node">
<title>2</title>
<ellipse fill="#eef3fb" stroke="black" cx="223.79" cy="-264" rx="59.56" ry="18"/>
<text text-anchor="middle" x="223.79" y="-261.2" font-family="Helvetica,sans-Serif" font-size="11.00">obs_48 ≤ &#45;1.31</text>
</g>
<!-- 0&#45;&gt;2 -->
<g id="edge2" class="edge">
<title>0&#45;&gt;2</title>
<path fill="none" stroke="#555555" d="M108.43,-282.75C125.03,-280.03 143.69,-276.97 161.05,-274.12"/>
<polygon fill="#555555" stroke="#555555" points="161.79,-277.55 171.09,-272.48 160.66,-270.64 161.79,-277.55"/>
<text text-anchor="middle" x="139.25" y="-283" font-family="Helvetica,sans-Serif" font-size="10.00">no</text>
</g>
<!-- 3 -->
<g id="node4" class="node">
<title>3</title>
<path fill="#b7bdff" stroke="black" d="M419.06,-390C419.06,-390 375.06,-390 375.06,-390 369.06,-390 363.06,-384 363.06,-378 363.06,-378 363.06,-366 363.06,-366 363.06,-360 369.06,-354 375.06,-354 375.06,-354 419.06,-354 419.06,-354 425.06,-354 431.06,-360 431.06,-366 431.06,-366 431.06,-378 431.06,-378 431.06,-384 425.06,-390 419.06,-390"/>
<text text-anchor="middle" x="397.06" y="-375.2" font-family="Helvetica,sans-Serif" font-size="11.00">action 14</text>
<text text-anchor="middle" x="397.06" y="-363.2" font-family="Helvetica,sans-Serif" font-size="11.00">p=1.00</text>
</g>
<!-- 1&#45;&gt;3 -->
<g id="edge3" class="edge">
<title>1&#45;&gt;3</title>
<path fill="none" stroke="#555555" d="M265.81,-330.93C292.14,-339.23 326.27,-350 352.99,-358.42"/>
<polygon fill="#555555" stroke="#555555" points="352.24,-361.85 362.83,-361.52 354.35,-355.18 352.24,-361.85"/>
<text text-anchor="middle" x="308.32" y="-349" font-family="Helvetica,sans-Serif" font-size="10.00">yes</text>
</g>
<!-- 4 -->
<g id="node5" class="node">
<title>4</title>
<ellipse fill="#eef3fb" stroke="black" cx="397.06" cy="-318" rx="63.98" ry="18"/>
<text text-anchor="middle" x="397.06" y="-315.2" font-family="Helvetica,sans-Serif" font-size="11.00">obs_18 ≤ &#45;0.183</text>
</g>
<!-- 1&#45;&gt;4 -->
<g id="edge4" class="edge">
<title>1&#45;&gt;4</title>
<path fill="none" stroke="#555555" d="M283.73,-318C296.33,-318 309.78,-318 322.84,-318"/>
<polygon fill="#555555" stroke="#555555" points="323.21,-321.5 333.21,-318 323.21,-314.5 323.21,-321.5"/>
<text text-anchor="middle" x="308.32" y="-321" font-family="Helvetica,sans-Serif" font-size="10.00">no</text>
</g>
<!-- 13 -->
<g id="node30" class="node">
<title>13</title>
<path fill="#b7e4ff" stroke="black" d="M415.56,-282C415.56,-282 378.56,-282 378.56,-282 372.56,-282 366.56,-276 366.56,-270 366.56,-270 366.56,-258 366.56,-258 366.56,-252 372.56,-246 378.56,-246 378.56,-246 415.56,-246 415.56,-246 421.56,-246 427.56,-252 427.56,-258 427.56,-258 427.56,-270 427.56,-270 427.56,-276 421.56,-282 415.56,-282"/>
<text text-anchor="middle" x="397.06" y="-267.2" font-family="Helvetica,sans-Serif" font-size="11.00">action 9</text>
<text text-anchor="middle" x="397.06" y="-255.2" font-family="Helvetica,sans-Serif" font-size="11.00">p=0.75</text>
</g>
<!-- 2&#45;&gt;13 -->
<g id="edge29" class="edge">
<title>2&#45;&gt;13</title>
<path fill="none" stroke="#555555" d="M283.73,-264C307.68,-264 334.72,-264 356.27,-264"/>
<polygon fill="#555555" stroke="#555555" points="356.37,-267.5 366.37,-264 356.37,-260.5 356.37,-267.5"/>
<text text-anchor="middle" x="308.32" y="-267" font-family="Helvetica,sans-Serif" font-size="10.00">yes</text>
</g>
<!-- 14 -->
<g id="node31" class="node">
<title>14</title>
<path fill="#b7fff3" stroke="black" d="M415.56,-228C415.56,-228 378.56,-228 378.56,-228 372.56,-228 366.56,-222 366.56,-216 366.56,-216 366.56,-204 366.56,-204 366.56,-198 372.56,-192 378.56,-192 378.56,-192 415.56,-192 415.56,-192 421.56,-192 427.56,-198 427.56,-204 427.56,-204 427.56,-216 427.56,-216 427.56,-222 421.56,-228 415.56,-228"/>
<text text-anchor="middle" x="397.06" y="-213.2" font-family="Helvetica,sans-Serif" font-size="11.00">action 4</text>
<text text-anchor="middle" x="397.06" y="-201.2" font-family="Helvetica,sans-Serif" font-size="11.00">p=0.99</text>
</g>
<!-- 2&#45;&gt;14 -->
<g id="edge30" class="edge">
<title>2&#45;&gt;14</title>
<path fill="none" stroke="#555555" d="M265.81,-251.07C293.4,-242.37 329.56,-230.97 356.77,-222.39"/>
<polygon fill="#555555" stroke="#555555" points="357.88,-225.71 366.37,-219.36 355.78,-219.03 357.88,-225.71"/>
<text text-anchor="middle" x="308.32" y="-244" font-family="Helvetica,sans-Serif" font-size="10.00">no</text>
</g>
<!-- 5 -->
<g id="node6" class="node">
<title>5</title>
<ellipse fill="#eef3fb" stroke="black" cx="574.54" cy="-342" rx="57.25" ry="18"/>
<text text-anchor="middle" x="574.54" y="-339.2" font-family="Helvetica,sans-Serif" font-size="11.00">obs_62 ≤ 1.33</text>
</g>
<!-- 4&#45;&gt;5 -->
<g id="edge5" class="edge">
<title>4&#45;&gt;5</title>
<path fill="none" stroke="#555555" d="M455.04,-325.79C473.19,-328.28 493.36,-331.03 511.83,-333.56"/>
<polygon fill="#555555" stroke="#555555" points="511.52,-337.05 521.9,-334.94 512.46,-330.11 511.52,-337.05"/>
<text text-anchor="middle" x="485.8" y="-333" font-family="Helvetica,sans-Serif" font-size="10.00">yes</text>
</g>
<!-- 6 -->
<g id="node7" class="node">
<title>6</title>
<ellipse fill="#eef3fb" stroke="black" cx="574.54" cy="-288" rx="63.98" ry="18"/>
<text text-anchor="middle" x="574.54" y="-285.2" font-family="Helvetica,sans-Serif" font-size="11.00">obs_62 ≤ &#45;0.679</text>
</g>
<!-- 4&#45;&gt;6 -->
<g id="edge6" class="edge">
<title>4&#45;&gt;6</title>
<path fill="none" stroke="#555555" d="M452.14,-308.75C470.33,-305.65 490.78,-302.15 509.65,-298.92"/>
<polygon fill="#555555" stroke="#555555" points="510.37,-302.35 519.64,-297.22 509.19,-295.45 510.37,-302.35"/>
<text text-anchor="middle" x="485.8" y="-306" font-family="Helvetica,sans-Serif" font-size="10.00">no</text>
</g>
<!-- 11 -->
<g id="node8" class="node">
<title>11</title>
<ellipse fill="#eef3fb" stroke="black" cx="752.03" cy="-396" rx="61.17" ry="18"/>
<text text-anchor="middle" x="752.03" y="-393.2" font-family="Helvetica,sans-Serif" font-size="11.00">obs_51 ≤ 0.837</text>
</g>
<!-- 5&#45;&gt;11 -->
<g id="edge7" class="edge">
<title>5&#45;&gt;11</title>
<path fill="none" stroke="#555555" d="M616.25,-354.52C640.93,-362.12 672.68,-371.89 699.16,-380.04"/>
<polygon fill="#555555" stroke="#555555" points="698.44,-383.48 709.02,-383.07 700.49,-376.79 698.44,-383.48"/>
<text text-anchor="middle" x="663.29" y="-373" font-family="Helvetica,sans-Serif" font-size="10.00">yes</text>
</g>
<!-- 12 -->
<g id="node9" class="node">
<title>12</title>
<ellipse fill="#eef3fb" stroke="black" cx="752.03" cy="-342" rx="63.98" ry="18"/>
<text text-anchor="middle" x="752.03" y="-339.2" font-family="Helvetica,sans-Serif" font-size="11.00">obs_21 ≤ &#45;0.576</text>
</g>
<!-- 5&#45;&gt;12 -->
<g id="edge8" class="edge">
<title>5&#45;&gt;12</title>
<path fill="none" stroke="#555555" d="M632.03,-342C646.75,-342 662.81,-342 678.23,-342"/>
<polygon fill="#555555" stroke="#555555" points="678.26,-345.5 688.26,-342 678.26,-338.5 678.26,-345.5"/>
<text text-anchor="middle" x="663.29" y="-345" font-family="Helvetica,sans-Serif" font-size="10.00">no</text>
</g>
<!-- 7 -->
<g id="node16" class="node">
<title>7</title>
<path fill="#f0b7ff" stroke="black" d="M774.03,-306C774.03,-306 730.03,-306 730.03,-306 724.03,-306 718.03,-300 718.03,-294 718.03,-294 718.03,-282 718.03,-282 718.03,-276 724.03,-270 730.03,-270 730.03,-270 774.03,-270 774.03,-270 780.03,-270 786.03,-276 786.03,-282 786.03,-282 786.03,-294 786.03,-294 786.03,-300 780.03,-306 774.03,-306"/>
<text text-anchor="middle" x="752.03" y="-291.2" font-family="Helvetica,sans-Serif" font-size="11.00">action 11</text>
<text text-anchor="middle" x="752.03" y="-279.2" font-family="Helvetica,sans-Serif" font-size="11.00">p=0.88</text>
</g>
<!-- 6&#45;&gt;7 -->
<g id="edge15" class="edge">
<title>6&#45;&gt;7</title>
<path fill="none" stroke="#555555" d="M638.4,-288C661.29,-288 686.63,-288 707.48,-288"/>
<polygon fill="#555555" stroke="#555555" points="707.62,-291.5 717.62,-288 707.62,-284.5 707.62,-291.5"/>
<text text-anchor="middle" x="663.29" y="-291" font-family="Helvetica,sans-Serif" font-size="10.00">yes</text>
</g>
<!-- 8 -->
<g id="node17" class="node">
<title>8</title>
<ellipse fill="#eef3fb" stroke="black" cx="752.03" cy="-211" rx="57.25" ry="18"/>
<text text-anchor="middle" x="752.03" y="-208.2" font-family="Helvetica,sans-Serif" font-size="11.00">obs_62 ≤ 1.16</text>
</g>
<!-- 6&#45;&gt;8 -->
<g id="edge16" class="edge">
<title>6&#45;&gt;8</title>
<path fill="none" stroke="#555555" d="M609.8,-272.97C637.97,-260.61 678.03,-243.03 708.3,-229.75"/>
<polygon fill="#555555" stroke="#555555" points="710,-232.82 717.76,-225.6 707.19,-226.41 710,-232.82"/>
<text text-anchor="middle" x="663.29" y="-255" font-family="Helvetica,sans-Serif" font-size="10.00">no</text>
</g>
<!-- 27 -->
<g id="node10" class="node">
<title>27</title>
<path fill="#ffb7b7" stroke="black" d="M952.22,-468C952.22,-468 915.22,-468 915.22,-468 909.22,-468 903.22,-462 903.22,-456 903.22,-456 903.22,-444 903.22,-444 903.22,-438 909.22,-432 915.22,-432 915.22,-432 952.22,-432 952.22,-432 958.22,-432 964.22,-438 964.22,-444 964.22,-444 964.22,-456 964.22,-456 964.22,-462 958.22,-468 952.22,-468"/>
<text text-anchor="middle" x="933.72" y="-453.2" font-family="Helvetica,sans-Serif" font-size="11.00">action 0</text>
<text text-anchor="middle" x="933.72" y="-441.2" font-family="Helvetica,sans-Serif" font-size="11.00">p=0.92</text>
</g>
<!-- 11&#45;&gt;27 -->
<g id="edge9" class="edge">
<title>11&#45;&gt;27</title>
<path fill="none" stroke="#555555" d="M795.61,-408.8C825.23,-417.7 864.42,-429.48 893.32,-438.16"/>
<polygon fill="#555555" stroke="#555555" points="892.49,-441.56 903.08,-441.09 894.51,-434.86 892.49,-441.56"/>
<text text-anchor="middle" x="840.77" y="-427" font-family="Helvetica,sans-Serif" font-size="10.00">yes</text>
</g>
<!-- 28 -->
<g id="node11" class="node">
<title>28</title>
<path fill="#b7bdff" stroke="black" d="M955.72,-414C955.72,-414 911.72,-414 911.72,-414 905.72,-414 899.72,-408 899.72,-402 899.72,-402 899.72,-390 899.72,-390 899.72,-384 905.72,-378 911.72,-378 911.72,-378 955.72,-378 955.72,-378 961.72,-378 967.72,-384 967.72,-390 967.72,-390 967.72,-402 967.72,-402 967.72,-408 961.72,-414 955.72,-414"/>
<text text-anchor="middle" x="933.72" y="-399.2" font-family="Helvetica,sans-Serif" font-size="11.00">action 14</text>
<text text-anchor="middle" x="933.72" y="-387.2" font-family="Helvetica,sans-Serif" font-size="11.00">p=0.49</text>
</g>
<!-- 11&#45;&gt;28 -->
<g id="edge10" class="edge">
<title>11&#45;&gt;28</title>
<path fill="none" stroke="#555555" d="M813.86,-396C838.76,-396 866.99,-396 889.69,-396"/>
<polygon fill="#555555" stroke="#555555" points="889.7,-399.5 899.7,-396 889.7,-392.5 889.7,-399.5"/>
<text text-anchor="middle" x="840.77" y="-399" font-family="Helvetica,sans-Serif" font-size="10.00">no</text>
</g>
<!-- 19 -->
<g id="node12" class="node">
<title>19</title>
<path fill="#b7fcff" stroke="black" d="M955.72,-360C955.72,-360 911.72,-360 911.72,-360 905.72,-360 899.72,-354 899.72,-348 899.72,-348 899.72,-336 899.72,-336 899.72,-330 905.72,-324 911.72,-324 911.72,-324 955.72,-324 955.72,-324 961.72,-324 967.72,-330 967.72,-336 967.72,-336 967.72,-348 967.72,-348 967.72,-354 961.72,-360 955.72,-360"/>
<text text-anchor="middle" x="933.72" y="-345.2" font-family="Helvetica,sans-Serif" font-size="11.00">action 17</text>
<text text-anchor="middle" x="933.72" y="-333.2" font-family="Helvetica,sans-Serif" font-size="11.00">p=1.00</text>
</g>
<!-- 12&#45;&gt;19 -->
<g id="edge11" class="edge">
<title>12&#45;&gt;19</title>
<path fill="none" stroke="#555555" d="M815.88,-342C840.25,-342 867.55,-342 889.63,-342"/>
<polygon fill="#555555" stroke="#555555" points="889.69,-345.5 899.69,-342 889.69,-338.5 889.69,-345.5"/>
<text text-anchor="middle" x="840.77" y="-345" font-family="Helvetica,sans-Serif" font-size="10.00">yes</text>
</g>
<!-- 20 -->
<g id="node13" class="node">
<title>20</title>
<ellipse fill="#eef3fb" stroke="black" cx="933.72" cy="-288" rx="63.98" ry="18"/>
<text text-anchor="middle" x="933.72" y="-285.2" font-family="Helvetica,sans-Serif" font-size="11.00">obs_63 ≤ &#45;0.324</text>
</g>
<!-- 12&#45;&gt;20 -->
<g id="edge12" class="edge">
<title>12&#45;&gt;20</title>
<path fill="none" stroke="#555555" d="M796.53,-328.93C821.49,-321.43 853.02,-311.95 879.45,-304.01"/>
<polygon fill="#555555" stroke="#555555" points="880.74,-307.27 889.31,-301.04 878.73,-300.57 880.74,-307.27"/>
<text text-anchor="middle" x="840.77" y="-321" font-family="Helvetica,sans-Serif" font-size="10.00">no</text>
</g>
<!-- 21 -->
<g id="node14" class="node">
<title>21</title>
<path fill="#ffdeb7" stroke="black" d="M1131.51,-360C1131.51,-360 1094.51,-360 1094.51,-360 1088.51,-360 1082.51,-354 1082.51,-348 1082.51,-348 1082.51,-336 1082.51,-336 1082.51,-330 1088.51,-324 1094.51,-324 1094.51,-324 1131.51,-324 1131.51,-324 1137.51,-324 1143.51,-330 1143.51,-336 1143.51,-336 1143.51,-348 1143.51,-348 1143.51,-354 1137.51,-360 1131.51,-360"/>
<text text-anchor="middle" x="1113.01" y="-345.2" font-family="Helvetica,sans-Serif" font-size="11.00">action 5</text>
<text text-anchor="middle" x="1113.01" y="-333.2" font-family="Helvetica,sans-Serif" font-size="11.00">p=0.81</text>
</g>
<!-- 20&#45;&gt;21 -->
<g id="edge13" class="edge">
<title>20&#45;&gt;21</title>
<path fill="none" stroke="#555555" d="M977.64,-301.07C1006.48,-309.86 1044.21,-321.35 1072.35,-329.92"/>
<polygon fill="#555555" stroke="#555555" points="1071.66,-333.37 1082.25,-332.93 1073.7,-326.67 1071.66,-333.37"/>
<text text-anchor="middle" x="1026.67" y="-321" font-family="Helvetica,sans-Serif" font-size="10.00">yes</text>
</g>
<!-- 22 -->
<g id="node15" class="node">
<title>22</title>
<path fill="#ffecb7" stroke="black" d="M1135.01,-306C1135.01,-306 1091.01,-306 1091.01,-306 1085.01,-306 1079.01,-300 1079.01,-294 1079.01,-294 1079.01,-282 1079.01,-282 1079.01,-276 1085.01,-270 1091.01,-270 1091.01,-270 1135.01,-270 1135.01,-270 1141.01,-270 1147.01,-276 1147.01,-282 1147.01,-282 1147.01,-294 1147.01,-294 1147.01,-300 1141.01,-306 1135.01,-306"/>
<text text-anchor="middle" x="1113.01" y="-291.2" font-family="Helvetica,sans-Serif" font-size="11.00">action 18</text>
<text text-anchor="middle" x="1113.01" y="-279.2" font-family="Helvetica,sans-Serif" font-size="11.00">p=0.98</text>
</g>
<!-- 20&#45;&gt;22 -->
<g id="edge14" class="edge">
<title>20&#45;&gt;22</title>
<path fill="none" stroke="#555555" d="M997.73,-288C1021.16,-288 1047.21,-288 1068.52,-288"/>
<polygon fill="#555555" stroke="#555555" points="1068.56,-291.5 1078.56,-288 1068.56,-284.5 1068.56,-291.5"/>
<text text-anchor="middle" x="1026.67" y="-291" font-family="Helvetica,sans-Serif" font-size="10.00">no</text>
</g>
<!-- 9 -->
<g id="node18" class="node">
<title>9</title>
<ellipse fill="#eef3fb" stroke="black" cx="933.72" cy="-211" rx="53.54" ry="18"/>
<text text-anchor="middle" x="933.72" y="-208.2" font-family="Helvetica,sans-Serif" font-size="11.00">obs_0 ≤ 1.35</text>
</g>
<!-- 8&#45;&gt;9 -->
<g id="edge17" class="edge">
<title>8&#45;&gt;9</title>
<path fill="none" stroke="#555555" d="M809.39,-211C828.59,-211 850.16,-211 869.83,-211"/>
<polygon fill="#555555" stroke="#555555" points="869.93,-214.5 879.93,-211 869.93,-207.5 869.93,-214.5"/>
<text text-anchor="middle" x="840.77" y="-214" font-family="Helvetica,sans-Serif" font-size="10.00">yes</text>
</g>
<!-- 10 -->
<g id="node19" class="node">
<title>10</title>
<ellipse fill="#eef3fb" stroke="black" cx="933.72" cy="-126" rx="67.9" ry="18"/>
<text text-anchor="middle" x="933.72" y="-123.2" font-family="Helvetica,sans-Serif" font-size="11.00">obs_46 ≤ &#45;0.0247</text>
</g>
<!-- 8&#45;&gt;10 -->
<g id="edge18" class="edge">
<title>8&#45;&gt;10</title>
<path fill="none" stroke="#555555" d="M784.74,-196C814.08,-182.12 857.93,-161.38 890.28,-146.08"/>
<polygon fill="#555555" stroke="#555555" points="891.96,-149.15 899.5,-141.71 888.96,-142.83 891.96,-149.15"/>
<text text-anchor="middle" x="840.77" y="-177" font-family="Helvetica,sans-Serif" font-size="10.00">no</text>
</g>
<!-- 17 -->
<g id="node20" class="node">
<title>17</title>
<ellipse fill="#eef3fb" stroke="black" cx="1113.01" cy="-234" rx="61.17" ry="18"/>
<text text-anchor="middle" x="1113.01" y="-231.2" font-family="Helvetica,sans-Serif" font-size="11.00">obs_48 ≤ 0.219</text>
</g>
<!-- 9&#45;&gt;17 -->
<g id="edge19" class="edge">
<title>9&#45;&gt;17</title>
<path fill="none" stroke="#555555" d="M984.11,-217.41C1003.48,-219.92 1025.98,-222.84 1046.66,-225.52"/>
<polygon fill="#555555" stroke="#555555" points="1046.28,-229 1056.65,-226.82 1047.18,-222.06 1046.28,-229"/>
<text text-anchor="middle" x="1026.67" y="-227" font-family="Helvetica,sans-Serif" font-size="10.00">yes</text>
</g>
<!-- 18 -->
<g id="node21" class="node">
<title>18</title>
<path fill="#b7bdff" stroke="black" d="M1135.01,-198C1135.01,-198 1091.01,-198 1091.01,-198 1085.01,-198 1079.01,-192 1079.01,-186 1079.01,-186 1079.01,-174 1079.01,-174 1079.01,-168 1085.01,-162 1091.01,-162 1091.01,-162 1135.01,-162 1135.01,-162 1141.01,-162 1147.01,-168 1147.01,-174 1147.01,-174 1147.01,-186 1147.01,-186 1147.01,-192 1141.01,-198 1135.01,-198"/>
<text text-anchor="middle" x="1113.01" y="-183.2" font-family="Helvetica,sans-Serif" font-size="11.00">action 14</text>
<text text-anchor="middle" x="1113.01" y="-171.2" font-family="Helvetica,sans-Serif" font-size="11.00">p=0.80</text>
</g>
<!-- 9&#45;&gt;18 -->
<g id="edge20" class="edge">
<title>9&#45;&gt;18</title>
<path fill="none" stroke="#555555" d="M981.77,-202.77C1008.75,-198.06 1042.39,-192.17 1068.72,-187.57"/>
<polygon fill="#555555" stroke="#555555" points="1069.54,-190.98 1078.79,-185.81 1068.34,-184.08 1069.54,-190.98"/>
<text text-anchor="middle" x="1026.67" y="-200" font-family="Helvetica,sans-Serif" font-size="10.00">no</text>
</g>
<!-- 15 -->
<g id="node24" class="node">
<title>15</title>
<ellipse fill="#eef3fb" stroke="black" cx="1113.01" cy="-126" rx="57.25" ry="18"/>
<text text-anchor="middle" x="1113.01" y="-123.2" font-family="Helvetica,sans-Serif" font-size="11.00">obs_63 ≤ 2.62</text>
</g>
<!-- 10&#45;&gt;15 -->
<g id="edge23" class="edge">
<title>10&#45;&gt;15</title>
<path fill="none" stroke="#555555" d="M1001.75,-126C1016.11,-126 1031.27,-126 1045.61,-126"/>
<polygon fill="#555555" stroke="#555555" points="1045.88,-129.5 1055.88,-126 1045.88,-122.5 1045.88,-129.5"/>
<text text-anchor="middle" x="1026.67" y="-129" font-family="Helvetica,sans-Serif" font-size="10.00">yes</text>
</g>
<!-- 16 -->
<g id="node25" class="node">
<title>16</title>
<ellipse fill="#eef3fb" stroke="black" cx="1113.01" cy="-72" rx="46.81" ry="18"/>
<text text-anchor="middle" x="1113.01" y="-69.2" font-family="Helvetica,sans-Serif" font-size="11.00">obs_63 ≤ 1</text>
</g>
<!-- 10&#45;&gt;16 -->
<g id="edge24" class="edge">
<title>10&#45;&gt;16</title>
<path fill="none" stroke="#555555" d="M979,-112.51C1005.47,-104.45 1039.04,-94.23 1065.83,-86.07"/>
<polygon fill="#555555" stroke="#555555" points="1067.19,-89.31 1075.74,-83.05 1065.15,-82.61 1067.19,-89.31"/>
<text text-anchor="middle" x="1026.67" y="-104" font-family="Helvetica,sans-Serif" font-size="10.00">no</text>
</g>
<!-- 25 -->
<g id="node22" class="node">
<title>25</title>
<path fill="#ffb7f6" stroke="black" d="M1276.85,-306C1276.85,-306 1239.85,-306 1239.85,-306 1233.85,-306 1227.85,-300 1227.85,-294 1227.85,-294 1227.85,-282 1227.85,-282 1227.85,-276 1233.85,-270 1239.85,-270 1239.85,-270 1276.85,-270 1276.85,-270 1282.85,-270 1288.85,-276 1288.85,-282 1288.85,-282 1288.85,-294 1288.85,-294 1288.85,-300 1282.85,-306 1276.85,-306"/>
<text text-anchor="middle" x="1258.35" y="-291.2" font-family="Helvetica,sans-Serif" font-size="11.00">action 3</text>
<text text-anchor="middle" x="1258.35" y="-279.2" font-family="Helvetica,sans-Serif" font-size="11.00">p=0.92</text>
</g>
<!-- 17&#45;&gt;25 -->
<g id="edge21" class="edge">
<title>17&#45;&gt;25</title>
<path fill="none" stroke="#555555" d="M1151.67,-248.19C1172.15,-255.9 1197.45,-265.44 1218.16,-273.24"/>
<polygon fill="#555555" stroke="#555555" points="1217.03,-276.55 1227.62,-276.8 1219.49,-270 1217.03,-276.55"/>
<text text-anchor="middle" x="1199.35" y="-272" font-family="Helvetica,sans-Serif" font-size="10.00">yes</text>
</g>
<!-- 26 -->
<g id="node23" class="node">
<title>26</title>
<path fill="#b7fcff" stroke="black" d="M1280.35,-252C1280.35,-252 1236.35,-252 1236.35,-252 1230.35,-252 1224.35,-246 1224.35,-240 1224.35,-240 1224.35,-228 1224.35,-228 1224.35,-222 1230.35,-216 1236.35,-216 1236.35,-216 1280.35,-216 1280.35,-216 1286.35,-216 1292.35,-222 1292.35,-228 1292.35,-228 1292.35,-240 1292.35,-240 1292.35,-246 1286.35,-252 1280.35,-252"/>
<text text-anchor="middle" x="1258.35" y="-237.2" font-family="Helvetica,sans-Serif" font-size="11.00">action 17</text>
<text text-anchor="middle" x="1258.35" y="-225.2" font-family="Helvetica,sans-Serif" font-size="11.00">p=0.56</text>
</g>
<!-- 17&#45;&gt;26 -->
<g id="edge22" class="edge">
<title>17&#45;&gt;26</title>
<path fill="none" stroke="#555555" d="M1174.38,-234C1187.65,-234 1201.45,-234 1213.9,-234"/>
<polygon fill="#555555" stroke="#555555" points="1213.99,-237.5 1223.99,-234 1213.99,-230.5 1213.99,-237.5"/>
<text text-anchor="middle" x="1199.35" y="-237" font-family="Helvetica,sans-Serif" font-size="10.00">no</text>
</g>
<!-- 29 -->
<g id="node26" class="node">
<title>29</title>
<path fill="#ffdeb7" stroke="black" d="M1276.85,-198C1276.85,-198 1239.85,-198 1239.85,-198 1233.85,-198 1227.85,-192 1227.85,-186 1227.85,-186 1227.85,-174 1227.85,-174 1227.85,-168 1233.85,-162 1239.85,-162 1239.85,-162 1276.85,-162 1276.85,-162 1282.85,-162 1288.85,-168 1288.85,-174 1288.85,-174 1288.85,-186 1288.85,-186 1288.85,-192 1282.85,-198 1276.85,-198"/>
<text text-anchor="middle" x="1258.35" y="-183.2" font-family="Helvetica,sans-Serif" font-size="11.00">action 5</text>
<text text-anchor="middle" x="1258.35" y="-171.2" font-family="Helvetica,sans-Serif" font-size="11.00">p=0.71</text>
</g>
<!-- 15&#45;&gt;29 -->
<g id="edge25" class="edge">
<title>15&#45;&gt;29</title>
<path fill="none" stroke="#555555" d="M1150.55,-139.77C1171.17,-147.54 1196.95,-157.25 1218.01,-165.18"/>
<polygon fill="#555555" stroke="#555555" points="1217.03,-168.55 1227.62,-168.8 1219.5,-162 1217.03,-168.55"/>
<text text-anchor="middle" x="1199.35" y="-164" font-family="Helvetica,sans-Serif" font-size="10.00">yes</text>
</g>
<!-- 30 -->
<g id="node27" class="node">
<title>30</title>
<path fill="#ffecb7" stroke="black" d="M1280.35,-144C1280.35,-144 1236.35,-144 1236.35,-144 1230.35,-144 1224.35,-138 1224.35,-132 1224.35,-132 1224.35,-120 1224.35,-120 1224.35,-114 1230.35,-108 1236.35,-108 1236.35,-108 1280.35,-108 1280.35,-108 1286.35,-108 1292.35,-114 1292.35,-120 1292.35,-120 1292.35,-132 1292.35,-132 1292.35,-138 1286.35,-144 1280.35,-144"/>
<text text-anchor="middle" x="1258.35" y="-129.2" font-family="Helvetica,sans-Serif" font-size="11.00">action 18</text>
<text text-anchor="middle" x="1258.35" y="-117.2" font-family="Helvetica,sans-Serif" font-size="11.00">p=1.00</text>
</g>
<!-- 15&#45;&gt;30 -->
<g id="edge26" class="edge">
<title>15&#45;&gt;30</title>
<path fill="none" stroke="#555555" d="M1170.25,-126C1184.75,-126 1200.13,-126 1213.87,-126"/>
<polygon fill="#555555" stroke="#555555" points="1214.02,-129.5 1224.02,-126 1214.02,-122.5 1214.02,-129.5"/>
<text text-anchor="middle" x="1199.35" y="-129" font-family="Helvetica,sans-Serif" font-size="10.00">no</text>
</g>
<!-- 23 -->
<g id="node28" class="node">
<title>23</title>
<path fill="#b7e4ff" stroke="black" d="M1276.85,-90C1276.85,-90 1239.85,-90 1239.85,-90 1233.85,-90 1227.85,-84 1227.85,-78 1227.85,-78 1227.85,-66 1227.85,-66 1227.85,-60 1233.85,-54 1239.85,-54 1239.85,-54 1276.85,-54 1276.85,-54 1282.85,-54 1288.85,-60 1288.85,-66 1288.85,-66 1288.85,-78 1288.85,-78 1288.85,-84 1282.85,-90 1276.85,-90"/>
<text text-anchor="middle" x="1258.35" y="-75.2" font-family="Helvetica,sans-Serif" font-size="11.00">action 9</text>
<text text-anchor="middle" x="1258.35" y="-63.2" font-family="Helvetica,sans-Serif" font-size="11.00">p=0.93</text>
</g>
<!-- 16&#45;&gt;23 -->
<g id="edge27" class="edge">
<title>16&#45;&gt;23</title>
<path fill="none" stroke="#555555" d="M1160.15,-72C1178.62,-72 1199.7,-72 1217.49,-72"/>
<polygon fill="#555555" stroke="#555555" points="1217.54,-75.5 1227.54,-72 1217.54,-68.5 1217.54,-75.5"/>
<text text-anchor="middle" x="1199.35" y="-75" font-family="Helvetica,sans-Serif" font-size="10.00">yes</text>
</g>
<!-- 24 -->
<g id="node29" class="node">
<title>24</title>
<path fill="#b7fff3" stroke="black" d="M1276.85,-36C1276.85,-36 1239.85,-36 1239.85,-36 1233.85,-36 1227.85,-30 1227.85,-24 1227.85,-24 1227.85,-12 1227.85,-12 1227.85,-6 1233.85,0 1239.85,0 1239.85,0 1276.85,0 1276.85,0 1282.85,0 1288.85,-6 1288.85,-12 1288.85,-12 1288.85,-24 1288.85,-24 1288.85,-30 1282.85,-36 1276.85,-36"/>
<text text-anchor="middle" x="1258.35" y="-21.2" font-family="Helvetica,sans-Serif" font-size="11.00">action 4</text>
<text text-anchor="middle" x="1258.35" y="-9.2" font-family="Helvetica,sans-Serif" font-size="11.00">p=0.91</text>
</g>
<!-- 16&#45;&gt;24 -->
<g id="edge28" class="edge">
<title>16&#45;&gt;24</title>
<path fill="none" stroke="#555555" d="M1147.25,-59.48C1168.43,-51.5 1195.97,-41.12 1218.2,-32.75"/>
<polygon fill="#555555" stroke="#555555" points="1219.57,-35.97 1227.69,-29.17 1217.1,-29.42 1219.57,-35.97"/>
<text text-anchor="middle" x="1199.35" y="-45" font-family="Helvetica,sans-Serif" font-size="10.00">no</text>
</g>
</g>
</svg>
