<?xml version="1.0" encoding="UTF-8" standalone="no"?>
<!DOCTYPE svg PUBLIC "-//W3C//DTD SVG 1.1//EN"
 "http://www.w3.org/Graphics/SVG/1.1/DTD/svg11.dtd">
<!-- Generated by graphviz version 2.43.0 (0)
 -->
<!-- Title: dtpo Pages: 1 -->
<svg width="971pt" height="514pt"
 viewBox="0.00 0.00 970.63 514.00" xmlns="http://www.w3.org/2000/svg" xmlns:xlink="http://www.w3.org/1999/xlink">
<g id="graph0" class="graph" transform="scale(1 1) rotate(0) translate(4 510)">
<title>dtpo</title>
<polygon fill="white" stroke="transparent" points="-4,4 -4,-510 966.63,-510 966.63,4 -4,4"/>
<!-- 0 -->
<g id="node1" class="node">
<title>0</title>
<ellipse fill="#eef3fb" stroke="black" cx="63.74" cy="-223" rx="63.98" ry="18"/>
<text text-anchor="middle" x="63.74" y="-220.2" font-family="Helvetica,sans-Serif" font-size="11.00">obs_18 ≤ &#45;0.168</text>
</g>
<!-- 1 -->
<g id="node2" class="node">
<title>1</title>
<ellipse fill="#eef3fb" stroke="black" cx="241.23" cy="-280" rx="61.17" ry="18"/>
<text text-anchor="middle" x="241.23" y="-277.2" font-family="Helvetica,sans-Serif" font-size="11.00">obs_48 ≤ 0.754</text>
</g>
<!-- 0&#45;&gt;1 -->
<g id="edge1" class="edge">
<title>0&#45;&gt;1</title>
<path fill="none" stroke="#555555" d="M106.33,-236.51C131.31,-244.62 163.28,-255.01 189.71,-263.59"/>
<polygon fill="#555555" stroke="#555555" points="188.95,-267.02 199.54,-266.79 191.11,-260.37 188.95,-267.02"/>
<text text-anchor="middle" x="152.48" y="-256" font-family="Helvetica,sans-Serif" font-size="10.00">yes</text>
</g>
<!-- 2 -->
<g id="node3" class="node">
<title>2</title>
<ellipse fill="#eef3fb" stroke="black" cx="241.23" cy="-142" rx="63.98" ry="18"/>
<text text-anchor="middle" x="241.23" y="-139.2" font-family="Helvetica,sans-Serif" font-size="11.00">obs_15 ≤ &#45;0.681</text>
</g>
<!-- 0&#45;&gt;2 -->
<g id="edge2" class="edge">
<title>0&#45;&gt;2</title>
<path fill="none" stroke="#555555" d="M97.75,-207.76C126.09,-194.68 167.12,-175.74 197.88,-161.55"/>
<polygon fill="#555555" stroke="#555555" points="199.46,-164.67 207.07,-157.3 196.52,-158.32 199.46,-164.67"/>
<text text-anchor="middle" x="152.48" y="-187" font-family="Helvetica,sans-Serif" font-size="10.00">no</text>
</g>
<!-- 5 -->
<g id="node4" class="node">
<title>5</title>
<ellipse fill="#eef3fb" stroke="black" cx="420.51" cy="-342" rx="57.25" ry="18"/>
<text text-anchor="middle" x="420.51" y="-339.2" font-family="Helvetica,sans-Serif" font-size="11.00">obs_41 ≤ 6.05</text>
</g>
<!-- 1&#45;&gt;5 -->
<g id="edge3" class="edge">
<title>1&#45;&gt;5</title>
<path fill="none" stroke="#555555" d="M281.57,-293.76C308.22,-303.08 343.58,-315.44 371.82,-325.32"/>
<polygon fill="#555555" stroke="#555555" points="370.9,-328.71 381.49,-328.7 373.21,-322.1 370.9,-328.71"/>
<text text-anchor="middle" x="329.97" y="-315" font-family="Helvetica,sans-Serif" font-size="10.00">yes</text>
</g>
<!-- 6 -->
<g id="node5" class="node">
<title>6</title>
<ellipse fill="#eef3fb" stroke="black" cx="420.51" cy="-280" rx="61.17" ry="18"/>
<text text-anchor="middle" x="420.51" y="-277.2" font-family="Helvetica,sans-Serif" font-size="11.00">obs_48 ≤ 0.754</text>
</g>
<!-- 1&#45;&gt;6 -->
<g id="edge4" class="edge">
<title>1&#45;&gt;6</title>
<path fill="none" stroke="#555555" d="M302.74,-280C317.49,-280 333.41,-280 348.59,-280"/>
<polygon fill="#555555" stroke="#555555" points="348.97,-283.5 358.97,-280 348.97,-276.5 348.97,-283.5"/>
<text text-anchor="middle" x="329.97" y="-283" font-family="Helvetica,sans-Serif" font-size="10.00">no</text>
</g>
<!-- 3 -->
<g id="node20" class="node">
<title>3</title>
<ellipse fill="#eef3fb" stroke="black" cx="420.51" cy="-142" rx="61.17" ry="18"/>
<text text-anchor="middle" x="420.51" y="-139.2" font-family="Helvetica,sans-Serif" font-size="11.00">obs_20 ≤ 0.585</text>
</g>
<!-- 2&#45;&gt;3 -->
<g id="edge19" class="edge">
<title>2&#45;&gt;3</title>
<path fill="none" stroke="#555555" d="M305.23,-142C319.33,-142 334.37,-142 348.75,-142"/>
<polygon fill="#555555" stroke="#555555" points="349.09,-145.5 359.09,-142 349.09,-138.5 349.09,-145.5"/>
<text text-anchor="middle" x="329.97" y="-145" font-family="Helvetica,sans-Serif" font-size="10.00">yes</text>
</g>
<!-- 4 -->
<g id="node21" class="node">
<title>4</title>
<ellipse fill="#eef3fb" stroke="black" cx="420.51" cy="-72" rx="65.59" ry="18"/>
<text text-anchor="middle" x="420.51" y="-69.2" font-family="Helvetica,sans-Serif" font-size="11.00">obs_48 ≤ 0.0582</text>
</g>
<!-- 2&#45;&gt;4 -->
<g id="edge20" class="edge">
<title>2&#45;&gt;4</title>
<path fill="none" stroke="#555555" d="M279.39,-127.33C306.58,-116.59 343.64,-101.96 372.83,-90.43"/>
<polygon fill="#555555" stroke="#555555" points="374.38,-93.58 382.4,-86.65 371.81,-87.07 374.38,-93.58"/>
<text text-anchor="middle" x="329.97" y="-112" font-family="Helvetica,sans-Serif" font-size="10.00">no</text>
</g>
<!-- 11 -->
<g id="node6" class="node">
<title>11</title>
<ellipse fill="#eef3fb" stroke="black" cx="604.01" cy="-396" rx="61.17" ry="18"/>
<text text-anchor="middle" x="604.01" y="-393.2" font-family="Helvetica,sans-Serif" font-size="11.00">obs_48 ≤ 0.754</text>
</g>
<!-- 5&#45;&gt;11 -->
<g id="edge5" class="edge">
<title>5&#45;&gt;11</title>
<path fill="none" stroke="#555555" d="M462.7,-354.25C488.8,-362.02 522.79,-372.13 550.78,-380.46"/>
<polygon fill="#555555" stroke="#555555" points="549.83,-383.83 560.41,-383.33 551.83,-377.12 549.83,-383.83"/>
<text text-anchor="middle" x="511.06" y="-373" font-family="Helvetica,sans-Serif" font-size="10.00">yes</text>
</g>
<!-- 12 -->
<g id="node7" class="node">
<title>12</title>
<path fill="#eaffb7" stroke="black" d="M626.01,-360C626.01,-360 582.01,-360 582.01,-360 576.01,-360 570.01,-354 570.01,-348 570.01,-348 570.01,-336 570.01,-336 570.01,-330 576.01,-324 582.01,-324 582.01,-324 626.01,-324 626.01,-324 632.01,-324 638.01,-330 638.01,-336 638.01,-336 638.01,-348 638.01,-348 638.01,-354 632.01,-360 626.01,-360"/>
<text text-anchor="middle" x="604.01" y="-345.2" font-family="Helvetica,sans-Serif" font-size="11.00">action 23</text>
<text text-anchor="middle" x="604.01" y="-333.2" font-family="Helvetica,sans-Serif" font-size="11.00">p=0.68</text>
</g>
<!-- 5&#45;&gt;12 -->
<g id="edge6" class="edge">
<title>5&#45;&gt;12</title>
<path fill="none" stroke="#555555" d="M477.94,-342C504.35,-342 535.3,-342 559.81,-342"/>
<polygon fill="#555555" stroke="#555555" points="559.88,-345.5 569.88,-342 559.88,-338.5 559.88,-345.5"/>
<text text-anchor="middle" x="511.06" y="-345" font-family="Helvetica,sans-Serif" font-size="10.00">no</text>
</g>
<!-- 13 -->
<g id="node12" class="node">
<title>13</title>
<ellipse fill="#eef3fb" stroke="black" cx="604.01" cy="-288" rx="63.98" ry="18"/>
<text text-anchor="middle" x="604.01" y="-285.2" font-family="Helvetica,sans-Serif" font-size="11.00">obs_14 ≤ &#45;0.591</text>
</g>
<!-- 6&#45;&gt;13 -->
<g id="edge11" class="edge">
<title>6&#45;&gt;13</title>
<path fill="none" stroke="#555555" d="M481.19,-282.63C497.02,-283.33 514.29,-284.09 530.71,-284.81"/>
<polygon fill="#555555" stroke="#555555" points="530.66,-288.31 540.8,-285.26 530.97,-281.32 530.66,-288.31"/>
<text text-anchor="middle" x="511.06" y="-287" font-family="Helvetica,sans-Serif" font-size="10.00">yes</text>
</g>
<!-- 14 -->
<g id="node13" class="node">
<title>14</title>
<path fill="#ffb7b7" stroke="black" d="M622.51,-252C622.51,-252 585.51,-252 585.51,-252 579.51,-252 573.51,-246 573.51,-240 573.51,-240 573.51,-228 573.51,-228 573.51,-222 579.51,-216 585.51,-216 585.51,-216 622.51,-216 622.51,-216 628.51,-216 634.51,-222 634.51,-228 634.51,-228 634.51,-240 634.51,-240 634.51,-246 628.51,-252 622.51,-252"/>
<text text-anchor="middle" x="604.01" y="-237.2" font-family="Helvetica,sans-Serif" font-size="11.00">action 0</text>
<text text-anchor="middle" x="604.01" y="-225.2" font-family="Helvetica,sans-Serif" font-size="11.00">p=0.45</text>
</g>
<!-- 6&#45;&gt;14 -->
<g id="edge12" class="edge">
<title>6&#45;&gt;14</title>
<path fill="none" stroke="#555555" d="M467.78,-268.27C497.34,-260.78 535.26,-251.17 563.42,-244.03"/>
<polygon fill="#555555" stroke="#555555" points="564.49,-247.37 573.32,-241.52 562.77,-240.59 564.49,-247.37"/>
<text text-anchor="middle" x="511.06" y="-261" font-family="Helvetica,sans-Serif" font-size="10.00">no</text>
</g>
<!-- 23 -->
<g id="node8" class="node">
<title>23</title>
<ellipse fill="#eef3fb" stroke="black" cx="783.3" cy="-440" rx="59.56" ry="18"/>
<text text-anchor="middle" x="783.3" y="-437.2" font-family="Helvetica,sans-Serif" font-size="11.00">obs_49 ≤ &#45;1.17</text>
</g>
<!-- 11&#45;&gt;23 -->
<g id="edge7" class="edge">
<title>11&#45;&gt;23</title>
<path fill="none" stroke="#555555" d="M651.59,-407.56C674.67,-413.29 702.71,-420.25 726.89,-426.25"/>
<polygon fill="#555555" stroke="#555555" points="726.09,-429.66 736.64,-428.67 727.78,-422.86 726.09,-429.66"/>
<text text-anchor="middle" x="696.96" y="-423" font-family="Helvetica,sans-Serif" font-size="10.00">yes</text>
</g>
<!-- 24 -->
<g id="node9" class="node">
<title>24</title>
<path fill="#ffb7b7" stroke="black" d="M801.8,-404C801.8,-404 764.8,-404 764.8,-404 758.8,-404 752.8,-398 752.8,-392 752.8,-392 752.8,-380 752.8,-380 752.8,-374 758.8,-368 764.8,-368 764.8,-368 801.8,-368 801.8,-368 807.8,-368 813.8,-374 813.8,-380 813.8,-380 813.8,-392 813.8,-392 813.8,-398 807.8,-404 801.8,-404"/>
<text text-anchor="middle" x="783.3" y="-389.2" font-family="Helvetica,sans-Serif" font-size="11.00">action 0</text>
<text text-anchor="middle" x="783.3" y="-377.2" font-family="Helvetica,sans-Serif" font-size="11.00">p=0.47</text>
</g>
<!-- 11&#45;&gt;24 -->
<g id="edge8" class="edge">
<title>11&#45;&gt;24</title>
<path fill="none" stroke="#555555" d="M664.54,-392.64C690.18,-391.2 719.49,-389.54 742.45,-388.25"/>
<polygon fill="#555555" stroke="#555555" points="742.73,-391.74 752.52,-387.68 742.33,-384.75 742.73,-391.74"/>
<text text-anchor="middle" x="696.96" y="-394" font-family="Helvetica,sans-Serif" font-size="10.00">no</text>
</g>
<!-- 27 -->
<g id="node10" class="node">
<title>27</title>
<path fill="#ffb7b7" stroke="black" d="M947.13,-506C947.13,-506 910.13,-506 910.13,-506 904.13,-506 898.13,-500 898.13,-494 898.13,-494 898.13,-482 898.13,-482 898.13,-476 904.13,-470 910.13,-470 910.13,-470 947.13,-470 947.13,-470 953.13,-470 959.13,-476 959.13,-482 959.13,-482 959.13,-494 959.13,-494 959.13,-500 953.13,-506 947.13,-506"/>
<text text-anchor="middle" x="928.63" y="-491.2" font-family="Helvetica,sans-Serif" font-size="11.00">action 0</text>
<text text-anchor="middle" x="928.63" y="-479.2" font-family="Helvetica,sans-Serif" font-size="11.00">p=0.60</text>
</g>
<!-- 23&#45;&gt;27 -->
<g id="edge9" class="edge">
<title>23&#45;&gt;27</title>
<path fill="none" stroke="#555555" d="M823.84,-453.24C843.83,-459.94 868.03,-468.04 888.03,-474.74"/>
<polygon fill="#555555" stroke="#555555" points="887.17,-478.14 897.76,-478 889.39,-471.5 887.17,-478.14"/>
<text text-anchor="middle" x="869.63" y="-474" font-family="Helvetica,sans-Serif" font-size="10.00">yes</text>
</g>
<!-- 28 -->
<g id="node11" class="node">
<title>28</title>
<path fill="#ffb7b7" stroke="black" d="M947.13,-452C947.13,-452 910.13,-452 910.13,-452 904.13,-452 898.13,-446 898.13,-440 898.13,-440 898.13,-428 898.13,-428 898.13,-422 904.13,-416 910.13,-416 910.13,-416 947.13,-416 947.13,-416 953.13,-416 959.13,-422 959.13,-428 959.13,-428 959.13,-440 959.13,-440 959.13,-446 953.13,-452 947.13,-452"/>
<text text-anchor="middle" x="928.63" y="-437.2" font-family="Helvetica,sans-Serif" font-size="11.00">action 0</text>
<text text-anchor="middle" x="928.63" y="-425.2" font-family="Helvetica,sans-Serif" font-size="11.00">p=0.47</text>
</g>
<!-- 23&#45;&gt;28 -->
<g id="edge10" class="edge">
<title>23&#45;&gt;28</title>
<path fill="none" stroke="#555555" d="M842.6,-437.56C857.79,-436.92 873.82,-436.25 887.81,-435.67"/>
<polygon fill="#555555" stroke="#555555" points="888.22,-439.15 898.07,-435.24 887.93,-432.16 888.22,-439.15"/>
<text text-anchor="middle" x="869.63" y="-439" font-family="Helvetica,sans-Serif" font-size="10.00">no</text>
</g>
<!-- 15 -->
<g id="node14" class="node">
<title>15</title>
<ellipse fill="#eef3fb" stroke="black" cx="783.3" cy="-321" rx="61.17" ry="18"/>
<text text-anchor="middle" x="783.3" y="-318.2" font-family="Helvetica,sans-Serif" font-size="11.00">obs_48 ≤ 0.754</text>
</g>
<!-- 13&#45;&gt;15 -->
<g id="edge13" class="edge">
<title>13&#45;&gt;15</title>
<path fill="none" stroke="#555555" d="M657.72,-297.81C677.63,-301.52 700.46,-305.77 721.08,-309.61"/>
<polygon fill="#555555" stroke="#555555" points="720.54,-313.06 731.01,-311.45 721.82,-306.18 720.54,-313.06"/>
<text text-anchor="middle" x="696.96" y="-309" font-family="Helvetica,sans-Serif" font-size="10.00">yes</text>
</g>
<!-- 16 -->
<g id="node15" class="node">
<title>16</title>
<ellipse fill="#eef3fb" stroke="black" cx="783.3" cy="-267" rx="61.17" ry="18"/>
<text text-anchor="middle" x="783.3" y="-264.2" font-family="Helvetica,sans-Serif" font-size="11.00">obs_48 ≤ 0.754</text>
</g>
<!-- 13&#45;&gt;16 -->
<g id="edge14" class="edge">
<title>13&#45;&gt;16</title>
<path fill="none" stroke="#555555" d="M663.06,-281.12C680.03,-279.11 698.7,-276.9 716.13,-274.84"/>
<polygon fill="#555555" stroke="#555555" points="716.71,-278.29 726.23,-273.64 715.89,-271.34 716.71,-278.29"/>
<text text-anchor="middle" x="696.96" y="-281" font-family="Helvetica,sans-Serif" font-size="10.00">no</text>
</g>
<!-- 21 -->
<g id="node16" class="node">
<title>21</title>
<path fill="#ffb7b7" stroke="black" d="M947.13,-393C947.13,-393 910.13,-393 910.13,-393 904.13,-393 898.13,-387 898.13,-381 898.13,-381 898.13,-369 898.13,-369 898.13,-363 904.13,-357 910.13,-357 910.13,-357 947.13,-357 947.13,-357 953.13,-357 959.13,-363 959.13,-369 959.13,-369 959.13,-381 959.13,-381 959.13,-387 953.13,-393 947.13,-393"/>
<text text-anchor="middle" x="928.63" y="-378.2" font-family="Helvetica,sans-Serif" font-size="11.00">action 0</text>
<text text-anchor="middle" x="928.63" y="-366.2" font-family="Helvetica,sans-Serif" font-size="11.00">p=0.42</text>
</g>
<!-- 15&#45;&gt;21 -->
<g id="edge15" class="edge">
<title>15&#45;&gt;21</title>
<path fill="none" stroke="#555555" d="M821.96,-335.19C842.44,-342.9 867.74,-352.44 888.45,-360.24"/>
<polygon fill="#555555" stroke="#555555" points="887.32,-363.55 897.91,-363.8 889.78,-357 887.32,-363.55"/>
<text text-anchor="middle" x="869.63" y="-358" font-family="Helvetica,sans-Serif" font-size="10.00">yes</text>
</g>
<!-- 22 -->
<g id="node17" class="node">
<title>22</title>
<path fill="#dbffb7" stroke="black" d="M950.63,-339C950.63,-339 906.63,-339 906.63,-339 900.63,-339 894.63,-333 894.63,-327 894.63,-327 894.63,-315 894.63,-315 894.63,-309 900.63,-303 906.63,-303 906.63,-303 950.63,-303 950.63,-303 956.63,-303 962.63,-309 962.63,-315 962.63,-315 962.63,-327 962.63,-327 962.63,-333 956.63,-339 950.63,-339"/>
<text text-anchor="middle" x="928.63" y="-324.2" font-family="Helvetica,sans-Serif" font-size="11.00">action 36</text>
<text text-anchor="middle" x="928.63" y="-312.2" font-family="Helvetica,sans-Serif" font-size="11.00">p=0.51</text>
</g>
<!-- 15&#45;&gt;22 -->
<g id="edge16" class="edge">
<title>15&#45;&gt;22</title>
<path fill="none" stroke="#555555" d="M844.67,-321C857.94,-321 871.74,-321 884.19,-321"/>
<polygon fill="#555555" stroke="#555555" points="884.28,-324.5 894.28,-321 884.28,-317.5 884.28,-324.5"/>
<text text-anchor="middle" x="869.63" y="-324" font-family="Helvetica,sans-Serif" font-size="10.00">no</text>
</g>
<!-- 19 -->
<g id="node18" class="node">
<title>19</title>
<path fill="#ffb7b7" stroke="black" d="M947.13,-285C947.13,-285 910.13,-285 910.13,-285 904.13,-285 898.13,-279 898.13,-273 898.13,-273 898.13,-261 898.13,-261 898.13,-255 904.13,-249 910.13,-249 910.13,-249 947.13,-249 947.13,-249 953.13,-249 959.13,-255 959.13,-261 959.13,-261 959.13,-273 959.13,-273 959.13,-279 953.13,-285 947.13,-285"/>
<text text-anchor="middle" x="928.63" y="-270.2" font-family="Helvetica,sans-Serif" font-size="11.00">action 0</text>
<text text-anchor="middle" x="928.63" y="-258.2" font-family="Helvetica,sans-Serif" font-size="11.00">p=0.45</text>
</g>
<!-- 16&#45;&gt;19 -->
<g id="edge17" class="edge">
<title>16&#45;&gt;19</title>
<path fill="none" stroke="#555555" d="M844.67,-267C859.16,-267 874.28,-267 887.58,-267"/>
<polygon fill="#555555" stroke="#555555" points="887.82,-270.5 897.82,-267 887.81,-263.5 887.82,-270.5"/>
<text text-anchor="middle" x="869.63" y="-270" font-family="Helvetica,sans-Serif" font-size="10.00">yes</text>
</g>
<!-- 20 -->
<g id="node19" class="node">
<title>20</title>
<path fill="#dbffb7" stroke="black" d="M950.63,-231C950.63,-231 906.63,-231 906.63,-231 900.63,-231 894.63,-225 894.63,-219 894.63,-219 894.63,-207 894.63,-207 894.63,-201 900.63,-195 906.63,-195 906.63,-195 950.63,-195 950.63,-195 956.63,-195 962.63,-201 962.63,-207 962.63,-207 962.63,-219 962.63,-219 962.63,-225 956.63,-231 950.63,-231"/>
<text text-anchor="middle" x="928.63" y="-216.2" font-family="Helvetica,sans-Serif" font-size="11.00">action 36</text>
<text text-anchor="middle" x="928.63" y="-204.2" font-family="Helvetica,sans-Serif" font-size="11.00">p=0.48</text>
</g>
<!-- 16&#45;&gt;20 -->
<g id="edge18" class="edge">
<title>16&#45;&gt;20</title>
<path fill="none" stroke="#555555" d="M821.96,-252.81C841.35,-245.51 865.06,-236.57 885.1,-229.02"/>
<polygon fill="#555555" stroke="#555555" points="886.49,-232.24 894.61,-225.44 884.02,-225.69 886.49,-232.24"/>
<text text-anchor="middle" x="869.63" y="-239" font-family="Helvetica,sans-Serif" font-size="10.00">no</text>
</g>
<!-- 9 -->
<g id="node22" class="node">
<title>9</title>
<ellipse fill="#eef3fb" stroke="black" cx="604.01" cy="-180" rx="57.25" ry="18"/>
<text text-anchor="middle" x="604.01" y="-177.2" font-family="Helvetica,sans-Serif" font-size="11.00">obs_40 ≤ 5.18</text>
</g>
<!-- 3&#45;&gt;9 -->
<g id="edge21" class="edge">
<title>3&#45;&gt;9</title>
<path fill="none" stroke="#555555" d="M471.11,-152.38C494.25,-157.23 521.92,-163.02 545.93,-168.05"/>
<polygon fill="#555555" stroke="#555555" points="545.47,-171.53 555.97,-170.15 546.9,-164.68 545.47,-171.53"/>
<text text-anchor="middle" x="511.06" y="-165" font-family="Helvetica,sans-Serif" font-size="10.00">yes</text>
</g>
<!-- 10 -->
<g id="node23" class="node">
<title>10</title>
<path fill="#ffb7cf" stroke="black" d="M622.51,-144C622.51,-144 585.51,-144 585.51,-144 579.51,-144 573.51,-138 573.51,-132 573.51,-132 573.51,-120 573.51,-120 573.51,-114 579.51,-108 585.51,-108 585.51,-108 622.51,-108 622.51,-108 628.51,-108 634.51,-114 634.51,-120 634.51,-120 634.51,-132 634.51,-132 634.51,-138 628.51,-144 622.51,-144"/>
<text text-anchor="middle" x="604.01" y="-129.2" font-family="Helvetica,sans-Serif" font-size="11.00">action 8</text>
<text text-anchor="middle" x="604.01" y="-117.2" font-family="Helvetica,sans-Serif" font-size="11.00">p=0.90</text>
</g>
<!-- 3&#45;&gt;10 -->
<g id="edge22" class="edge">
<title>3&#45;&gt;10</title>
<path fill="none" stroke="#555555" d="M479.44,-136.89C506.76,-134.48 538.67,-131.67 563.22,-129.51"/>
<polygon fill="#555555" stroke="#555555" points="563.6,-132.99 573.26,-128.62 562.99,-126.01 563.6,-132.99"/>
<text text-anchor="middle" x="511.06" y="-137" font-family="Helvetica,sans-Serif" font-size="10.00">no</text>
</g>
<!-- 7 -->
<g id="node26" class="node">
<title>7</title>
<path fill="#b7b8ff" stroke="black" d="M626.01,-90C626.01,-90 582.01,-90 582.01,-90 576.01,-90 570.01,-84 570.01,-78 570.01,-78 570.01,-66 570.01,-66 570.01,-60 576.01,-54 582.01,-54 582.01,-54 626.01,-54 626.01,-54 632.01,-54 638.01,-60 638.01,-66 638.01,-66 638.01,-78 638.01,-78 638.01,-84 632.01,-90 626.01,-90"/>
<text text-anchor="middle" x="604.01" y="-75.2" font-family="Helvetica,sans-Serif" font-size="11.00">action 48</text>
<text text-anchor="middle" x="604.01" y="-63.2" font-family="Helvetica,sans-Serif" font-size="11.00">p=0.73</text>
</g>
<!-- 4&#45;&gt;7 -->
<g id="edge25" class="edge">
<title>4&#45;&gt;7</title>
<path fill="none" stroke="#555555" d="M486.27,-72C510.7,-72 537.88,-72 559.86,-72"/>
<polygon fill="#555555" stroke="#555555" points="559.88,-75.5 569.88,-72 559.88,-68.5 559.88,-75.5"/>
<text text-anchor="middle" x="511.06" y="-75" font-family="Helvetica,sans-Serif" font-size="10.00">yes</text>
</g>
<!-- 8 -->
<g id="node27" class="node">
<title>8</title>
<ellipse fill="#eef3fb" stroke="black" cx="604.01" cy="-18" rx="67.9" ry="18"/>
<text text-anchor="middle" x="604.01" y="-15.2" font-family="Helvetica,sans-Serif" font-size="11.00">obs_25 ≤ &#45;0.0464</text>
</g>
<!-- 4&#45;&gt;8 -->
<g id="edge26" class="edge">
<title>4&#45;&gt;8</title>
<path fill="none" stroke="#555555" d="M465.91,-58.79C490.76,-51.4 521.94,-42.12 548.29,-34.28"/>
<polygon fill="#555555" stroke="#555555" points="549.54,-37.56 558.12,-31.35 547.54,-30.85 549.54,-37.56"/>
<text text-anchor="middle" x="511.06" y="-49" font-family="Helvetica,sans-Serif" font-size="10.00">no</text>
</g>
<!-- 25 -->
<g id="node24" class="node">
<title>25</title>
<path fill="#ffb7cf" stroke="black" d="M801.8,-209C801.8,-209 764.8,-209 764.8,-209 758.8,-209 752.8,-203 752.8,-197 752.8,-197 752.8,-185 752.8,-185 752.8,-179 758.8,-173 764.8,-173 764.8,-173 801.8,-173 801.8,-173 807.8,-173 813.8,-179 813.8,-185 813.8,-185 813.8,-197 813.8,-197 813.8,-203 807.8,-209 801.8,-209"/>
<text text-anchor="middle" x="783.3" y="-194.2" font-family="Helvetica,sans-Serif" font-size="11.00">action 8</text>
<text text-anchor="middle" x="783.3" y="-182.2" font-family="Helvetica,sans-Serif" font-size="11.00">p=0.58</text>
</g>
<!-- 9&#45;&gt;25 -->
<g id="edge23" class="edge">
<title>9&#45;&gt;25</title>
<path fill="none" stroke="#555555" d="M660.13,-183.42C686.78,-185.07 718.18,-187.02 742.47,-188.53"/>
<polygon fill="#555555" stroke="#555555" points="742.55,-192.04 752.74,-189.17 742.98,-185.05 742.55,-192.04"/>
<text text-anchor="middle" x="696.96" y="-189" font-family="Helvetica,sans-Serif" font-size="10.00">yes</text>
</g>
<!-- 26 -->
<g id="node25" class="node">
<title>26</title>
<path fill="#ffb7c0" stroke="black" d="M805.3,-155C805.3,-155 761.3,-155 761.3,-155 755.3,-155 749.3,-149 749.3,-143 749.3,-143 749.3,-131 749.3,-131 749.3,-125 755.3,-119 761.3,-119 761.3,-119 805.3,-119 805.3,-119 811.3,-119 817.3,-125 817.3,-131 817.3,-131 817.3,-143 817.3,-143 817.3,-149 811.3,-155 805.3,-155"/>
<text text-anchor="middle" x="783.3" y="-140.2" font-family="Helvetica,sans-Serif" font-size="11.00">action 21</text>
<text text-anchor="middle" x="783.3" y="-128.2" font-family="Helvetica,sans-Serif" font-size="11.00">p=0.72</text>
</g>
<!-- 9&#45;&gt;26 -->
<g id="edge24" class="edge">
<title>9&#45;&gt;26</title>
<path fill="none" stroke="#555555" d="M649.75,-169.15C677.13,-162.51 711.98,-154.06 739.08,-147.48"/>
<polygon fill="#555555" stroke="#555555" points="740.16,-150.82 749.05,-145.06 738.51,-144.02 740.16,-150.82"/>
<text text-anchor="middle" x="696.96" y="-162" font-family="Helvetica,sans-Serif" font-size="10.00">no</text>
</g>
<!-- 17 -->
<g id="node28" class="node">
<title>17</title>
<ellipse fill="#eef3fb" stroke="black" cx="783.3" cy="-72" rx="59.56" ry="18"/>
<text text-anchor="middle" x="783.3" y="-69.2" font-family="Helvetica,sans-Serif" font-size="11.00">obs_49 ≤ &#45;1.17</text>
</g>
<!-- 8&#45;&gt;17 -->
<g id="edge27" class="edge">
<title>8&#45;&gt;17</title>
<path fill="none" stroke="#555555" d="M649.29,-31.49C674.12,-39.05 705.2,-48.52 731.07,-56.4"/>
<polygon fill="#555555" stroke="#555555" points="730.13,-59.77 740.71,-59.33 732.17,-53.07 730.13,-59.77"/>
<text text-anchor="middle" x="696.96" y="-51" font-family="Helvetica,sans-Serif" font-size="10.00">yes</text>
</g>
<!-- 18 -->
<g id="node29" class="node">
<title>18</title>
<path fill="#b7fcff" stroke="black" d="M805.3,-36C805.3,-36 761.3,-36 761.3,-36 755.3,-36 749.3,-30 749.3,-24 749.3,-24 749.3,-12 749.3,-12 749.3,-6 755.3,0 761.3,0 761.3,0 805.3,0 805.3,0 811.3,0 817.3,-6 817.3,-12 817.3,-12 817.3,-24 817.3,-24 817.3,-30 811.3,-36 805.3,-36"/>
<text text-anchor="middle" x="783.3" y="-21.2" font-family="Helvetica,sans-Serif" font-size="11.00">action 17</text>
<text text-anchor="middle" x="783.3" y="-9.2" font-family="Helvetica,sans-Serif" font-size="11.00">p=0.91</text>
</g>
<!-- 8&#45;&gt;18 -->
<g id="edge28" class="edge">
<title>8&#45;&gt;18</title>
<path fill="none" stroke="#555555" d="M672.03,-18C694.41,-18 718.75,-18 738.85,-18"/>
<polygon fill="#555555" stroke="#555555" points="738.94,-21.5 748.94,-18 738.94,-14.5 738.94,-21.5"/>
<text text-anchor="middle" x="696.96" y="-21" font-family="Helvetica,sans-Serif" font-size="10.00">no</text>
</g>
<!-- 29 -->
<g id="node30" class="node">
<title>29</title>
<path fill="#b7fcff" stroke="black" d="M950.63,-117C950.63,-117 906.63,-117 906.63,-117 900.63,-117 894.63,-111 894.63,-105 894.63,-105 894.63,-93 894.63,-93 894.63,-87 900.63,-81 906.63,-81 906.63,-81 950.63,-81 950.63,-81 956.63,-81 962.63,-87 962.63,-93 962.63,-93 962.63,-105 962.63,-105 962.63,-111 956.63,-117 950.63,-117"/>
<text text-anchor="middle" x="928.63" y="-102.2" font-family="Helvetica,sans-Serif" font-size="11.00">action 17</text>
<text text-anchor="middle" x="928.63" y="-90.2" font-family="Helvetica,sans-Serif" font-size="11.00">p=0.52</text>
</g>
<!-- 17&#45;&gt;29 -->
<g id="edge29" class="edge">
<title>17&#45;&gt;29</title>
<path fill="none" stroke="#555555" d="M834.43,-81.44C850.72,-84.51 868.65,-87.89 884.39,-90.85"/>
<polygon fill="#555555" stroke="#555555" points="883.91,-94.33 894.38,-92.74 885.2,-87.45 883.91,-94.33"/>
<text text-anchor="middle" x="869.63" y="-92" font-family="Helvetica,sans-Serif" font-size="10.00">yes</text>
</g>
<!-- 30 -->
<g id="node31" class="node">
<title>30</title>
<path fill="#ffb7e7" stroke="black" d="M950.63,-63C950.63,-63 906.63,-63 906.63,-63 900.63,-63 894.63,-57 894.63,-51 894.63,-51 894.63,-39 894.63,-39 894.63,-33 900.63,-27 906.63,-27 906.63,-27 950.63,-27 950.63,-27 956.63,-27 962.63,-33 962.63,-39 962.63,-39 962.63,-51 962.63,-51 962.63,-57 956.63,-63 950.63,-63"/>
<text text-anchor="middle" x="928.63" y="-48.2" font-family="Helvetica,sans-Serif" font-size="11.00">action 16</text>
<text text-anchor="middle" x="928.63" y="-36.2" font-family="Helvetica,sans-Serif" font-size="11.00">p=0.72</text>
</g>
<!-- 17&#45;&gt;30 -->
<g id="edge30" class="edge">
<title>17&#45;&gt;30</title>
<path fill="none" stroke="#555555" d="M834.43,-62.56C850.72,-59.49 868.65,-56.11 884.39,-53.15"/>
<polygon fill="#555555" stroke="#555555" points="885.2,-56.55 894.38,-51.26 883.91,-49.67 885.2,-56.55"/>
<text text-anchor="middle" x="869.63" y="-59" font-family="Helvetica,sans-Serif" font-size="10.00">no</text>
</g>
</g>
</svg>
