<?xml version="1.0" encoding="UTF-8" standalone="no"?>
<!DOCTYPE svg PUBLIC "-//W3C//DTD SVG 1.1//EN"
 "http://www.w3.org/Graphics/SVG/1.1/DTD/svg11.dtd">
<!-- Generated by graphviz version 2.43.0 (0)
 -->
<!-- Title: dtpo Pages: 1 -->
<svg width="490pt" height="439pt"
 viewBox="0.00 0.00 489.50 439.00" xmlns="http://www.w3.org/2000/svg" xmlns:xlink="http://www.w3.org/1999/xlink">
<g id="graph0" class="graph" transform="scale(1 1) rotate(0) translate(4 435)">
<title>dtpo</title>
<polygon fill="white" stroke="transparent" points="-4,4 -4,-435 485.5,-435 485.5,4 -4,4"/>
<!-- 0 -->
<g id="node1" class="node">
<title>0</title>
<ellipse fill="#eef3fb" stroke="black" cx="174" cy="-413" rx="67.9" ry="18"/>
<text text-anchor="middle" x="174" y="-410.2" font-family="Helvetica,sans-Serif" font-size="11.00">obs_49 ≤ &#45;0.0256</text>
</g>
<!-- 1 -->
<g id="node2" class="node">
<title>1</title>
<ellipse fill="#eef3fb" stroke="black" cx="104" cy="-334" rx="61.17" ry="18"/>
<text text-anchor="middle" x="104" y="-331.2" font-family="Helvetica,sans-Serif" font-size="11.00">obs_15 ≤ 0.101</text>
</g>
<!-- 0&#45;&gt;1 -->
<g id="edge1" class="edge">
<title>0&#45;&gt;1</title>
<path fill="none" stroke="#555555" d="M158.81,-395.29C149.27,-384.8 136.8,-371.08 126.17,-359.39"/>
<polygon fill="#555555" stroke="#555555" points="128.48,-356.72 119.16,-351.68 123.3,-361.43 128.48,-356.72"/>
<text text-anchor="middle" x="153" y="-371" font-family="Helvetica,sans-Serif" font-size="10.00">yes</text>
</g>
<!-- 2 -->
<g id="node3" class="node">
<title>2</title>
<ellipse fill="#eef3fb" stroke="black" cx="245" cy="-334" rx="61.17" ry="18"/>
<text text-anchor="middle" x="245" y="-331.2" font-family="Helvetica,sans-Serif" font-size="11.00">obs_23 ≤ 0.278</text>
</g>
<!-- 0&#45;&gt;2 -->
<g id="edge2" class="edge">
<title>0&#45;&gt;2</title>
<path fill="none" stroke="#555555" d="M189.41,-395.29C199.18,-384.7 211.97,-370.82 222.82,-359.05"/>
<polygon fill="#555555" stroke="#555555" points="225.42,-361.4 229.62,-351.68 220.27,-356.65 225.42,-361.4"/>
<text text-anchor="middle" x="220.5" y="-371" font-family="Helvetica,sans-Serif" font-size="10.00">no</text>
</g>
<!-- 7 -->
<g id="node4" class="node">
<title>7</title>
<path fill="#b7deff" stroke="black" d="M56,-273C56,-273 12,-273 12,-273 6,-273 0,-267 0,-261 0,-261 0,-249 0,-249 0,-243 6,-237 12,-237 12,-237 56,-237 56,-237 62,-237 68,-243 68,-249 68,-249 68,-261 68,-261 68,-267 62,-273 56,-273"/>
<text text-anchor="middle" x="34" y="-258.2" font-family="Helvetica,sans-Serif" font-size="11.00">action 43</text>
<text text-anchor="middle" x="34" y="-246.2" font-family="Helvetica,sans-Serif" font-size="11.00">p=0.29</text>
</g>
<!-- 1&#45;&gt;7 -->
<g id="edge3" class="edge">
<title>1&#45;&gt;7</title>
<path fill="none" stroke="#555555" d="M88.81,-316.29C79.4,-305.94 67.14,-292.46 56.61,-280.87"/>
<polygon fill="#555555" stroke="#555555" points="58.96,-278.25 49.64,-273.21 53.78,-282.96 58.96,-278.25"/>
<text text-anchor="middle" x="83" y="-292" font-family="Helvetica,sans-Serif" font-size="10.00">yes</text>
</g>
<!-- 8 -->
<g id="node5" class="node">
<title>8</title>
<path fill="#ffb7b7" stroke="black" d="M135.5,-273C135.5,-273 98.5,-273 98.5,-273 92.5,-273 86.5,-267 86.5,-261 86.5,-261 86.5,-249 86.5,-249 86.5,-243 92.5,-237 98.5,-237 98.5,-237 135.5,-237 135.5,-237 141.5,-237 147.5,-243 147.5,-249 147.5,-249 147.5,-261 147.5,-261 147.5,-267 141.5,-273 135.5,-273"/>
<text text-anchor="middle" x="117" y="-258.2" font-family="Helvetica,sans-Serif" font-size="11.00">action 0</text>
<text text-anchor="middle" x="117" y="-246.2" font-family="Helvetica,sans-Serif" font-size="11.00">p=0.70</text>
</g>
<!-- 1&#45;&gt;8 -->
<g id="edge4" class="edge">
<title>1&#45;&gt;8</title>
<path fill="none" stroke="#555555" d="M106.89,-315.91C108.52,-306.24 110.6,-293.93 112.44,-282.98"/>
<polygon fill="#555555" stroke="#555555" points="115.91,-283.48 114.12,-273.04 109.01,-282.32 115.91,-283.48"/>
<text text-anchor="middle" x="118.5" y="-292" font-family="Helvetica,sans-Serif" font-size="10.00">no</text>
</g>
<!-- 3 -->
<g id="node6" class="node">
<title>3</title>
<ellipse fill="#eef3fb" stroke="black" cx="238" cy="-255" rx="65.59" ry="18"/>
<text text-anchor="middle" x="238" y="-252.2" font-family="Helvetica,sans-Serif" font-size="11.00">obs_18 ≤ 0.0489</text>
</g>
<!-- 2&#45;&gt;3 -->
<g id="edge5" class="edge">
<title>2&#45;&gt;3</title>
<path fill="none" stroke="#555555" d="M243.45,-315.91C242.58,-306.34 241.47,-294.18 240.48,-283.32"/>
<polygon fill="#555555" stroke="#555555" points="243.94,-282.68 239.55,-273.04 236.97,-283.32 243.94,-282.68"/>
<text text-anchor="middle" x="251" y="-292" font-family="Helvetica,sans-Serif" font-size="10.00">yes</text>
</g>
<!-- 4 -->
<g id="node7" class="node">
<title>4</title>
<ellipse fill="#eef3fb" stroke="black" cx="383" cy="-255" rx="61.17" ry="18"/>
<text text-anchor="middle" x="383" y="-252.2" font-family="Helvetica,sans-Serif" font-size="11.00">obs_48 ≤ 0.184</text>
</g>
<!-- 2&#45;&gt;4 -->
<g id="edge6" class="edge">
<title>2&#45;&gt;4</title>
<path fill="none" stroke="#555555" d="M272.26,-317.79C293.62,-305.87 323.53,-289.18 346.88,-276.16"/>
<polygon fill="#555555" stroke="#555555" points="348.77,-279.11 355.79,-271.18 345.35,-273 348.77,-279.11"/>
<text text-anchor="middle" x="329.5" y="-292" font-family="Helvetica,sans-Serif" font-size="10.00">no</text>
</g>
<!-- 5 -->
<g id="node8" class="node">
<title>5</title>
<ellipse fill="#eef3fb" stroke="black" cx="133" cy="-176" rx="67.9" ry="18"/>
<text text-anchor="middle" x="133" y="-173.2" font-family="Helvetica,sans-Serif" font-size="11.00">obs_63 ≤ &#45;0.0649</text>
</g>
<!-- 3&#45;&gt;5 -->
<g id="edge7" class="edge">
<title>3&#45;&gt;5</title>
<path fill="none" stroke="#555555" d="M215.99,-237.86C200.73,-226.67 180.21,-211.62 163.39,-199.29"/>
<polygon fill="#555555" stroke="#555555" points="165.12,-196.21 154.98,-193.12 160.98,-201.86 165.12,-196.21"/>
<text text-anchor="middle" x="201" y="-213" font-family="Helvetica,sans-Serif" font-size="10.00">yes</text>
</g>
<!-- 6 -->
<g id="node9" class="node">
<title>6</title>
<path fill="#ffb7c0" stroke="black" d="M275,-194C275,-194 231,-194 231,-194 225,-194 219,-188 219,-182 219,-182 219,-170 219,-170 219,-164 225,-158 231,-158 231,-158 275,-158 275,-158 281,-158 287,-164 287,-170 287,-170 287,-182 287,-182 287,-188 281,-194 275,-194"/>
<text text-anchor="middle" x="253" y="-179.2" font-family="Helvetica,sans-Serif" font-size="11.00">action 21</text>
<text text-anchor="middle" x="253" y="-167.2" font-family="Helvetica,sans-Serif" font-size="11.00">p=0.50</text>
</g>
<!-- 3&#45;&gt;6 -->
<g id="edge8" class="edge">
<title>3&#45;&gt;6</title>
<path fill="none" stroke="#555555" d="M241.33,-236.91C243.21,-227.24 245.61,-214.93 247.74,-203.98"/>
<polygon fill="#555555" stroke="#555555" points="251.2,-204.53 249.68,-194.04 244.33,-203.19 251.2,-204.53"/>
<text text-anchor="middle" x="253.5" y="-213" font-family="Helvetica,sans-Serif" font-size="10.00">no</text>
</g>
<!-- 9 -->
<g id="node14" class="node">
<title>9</title>
<path fill="#ffb7e7" stroke="black" d="M390,-194C390,-194 346,-194 346,-194 340,-194 334,-188 334,-182 334,-182 334,-170 334,-170 334,-164 340,-158 346,-158 346,-158 390,-158 390,-158 396,-158 402,-164 402,-170 402,-170 402,-182 402,-182 402,-188 396,-194 390,-194"/>
<text text-anchor="middle" x="368" y="-179.2" font-family="Helvetica,sans-Serif" font-size="11.00">action 16</text>
<text text-anchor="middle" x="368" y="-167.2" font-family="Helvetica,sans-Serif" font-size="11.00">p=0.85</text>
</g>
<!-- 4&#45;&gt;9 -->
<g id="edge13" class="edge">
<title>4&#45;&gt;9</title>
<path fill="none" stroke="#555555" d="M379.67,-236.91C377.79,-227.24 375.39,-214.93 373.26,-203.98"/>
<polygon fill="#555555" stroke="#555555" points="376.67,-203.19 371.32,-194.04 369.8,-204.53 376.67,-203.19"/>
<text text-anchor="middle" x="386" y="-213" font-family="Helvetica,sans-Serif" font-size="10.00">yes</text>
</g>
<!-- 10 -->
<g id="node15" class="node">
<title>10</title>
<path fill="#ffb7cf" stroke="black" d="M469.5,-194C469.5,-194 432.5,-194 432.5,-194 426.5,-194 420.5,-188 420.5,-182 420.5,-182 420.5,-170 420.5,-170 420.5,-164 426.5,-158 432.5,-158 432.5,-158 469.5,-158 469.5,-158 475.5,-158 481.5,-164 481.5,-170 481.5,-170 481.5,-182 481.5,-182 481.5,-188 475.5,-194 469.5,-194"/>
<text text-anchor="middle" x="451" y="-179.2" font-family="Helvetica,sans-Serif" font-size="11.00">action 8</text>
<text text-anchor="middle" x="451" y="-167.2" font-family="Helvetica,sans-Serif" font-size="11.00">p=0.19</text>
</g>
<!-- 4&#45;&gt;10 -->
<g id="edge14" class="edge">
<title>4&#45;&gt;10</title>
<path fill="none" stroke="#555555" d="M397.75,-237.29C406.9,-226.94 418.8,-213.46 429.04,-201.87"/>
<polygon fill="#555555" stroke="#555555" points="431.81,-204.02 435.8,-194.21 426.56,-199.39 431.81,-204.02"/>
<text text-anchor="middle" x="427.5" y="-213" font-family="Helvetica,sans-Serif" font-size="10.00">no</text>
</g>
<!-- 11 -->
<g id="node10" class="node">
<title>11</title>
<ellipse fill="#eef3fb" stroke="black" cx="79" cy="-97" rx="57.25" ry="18"/>
<text text-anchor="middle" x="79" y="-94.2" font-family="Helvetica,sans-Serif" font-size="11.00">obs_62 ≤ 1.73</text>
</g>
<!-- 5&#45;&gt;11 -->
<g id="edge9" class="edge">
<title>5&#45;&gt;11</title>
<path fill="none" stroke="#555555" d="M121.02,-157.91C113.84,-147.67 104.58,-134.47 96.58,-123.07"/>
<polygon fill="#555555" stroke="#555555" points="99.37,-120.95 90.77,-114.78 93.64,-124.97 99.37,-120.95"/>
<text text-anchor="middle" x="119" y="-134" font-family="Helvetica,sans-Serif" font-size="10.00">yes</text>
</g>
<!-- 12 -->
<g id="node11" class="node">
<title>12</title>
<path fill="#ffb7e7" stroke="black" d="M210,-115C210,-115 166,-115 166,-115 160,-115 154,-109 154,-103 154,-103 154,-91 154,-91 154,-85 160,-79 166,-79 166,-79 210,-79 210,-79 216,-79 222,-85 222,-91 222,-91 222,-103 222,-103 222,-109 216,-115 210,-115"/>
<text text-anchor="middle" x="188" y="-100.2" font-family="Helvetica,sans-Serif" font-size="11.00">action 16</text>
<text text-anchor="middle" x="188" y="-88.2" font-family="Helvetica,sans-Serif" font-size="11.00">p=0.45</text>
</g>
<!-- 5&#45;&gt;12 -->
<g id="edge10" class="edge">
<title>5&#45;&gt;12</title>
<path fill="none" stroke="#555555" d="M145.21,-157.91C152.47,-147.74 161.82,-134.65 169.93,-123.3"/>
<polygon fill="#555555" stroke="#555555" points="172.86,-125.21 175.83,-115.04 167.17,-121.14 172.86,-125.21"/>
<text text-anchor="middle" x="170.5" y="-134" font-family="Helvetica,sans-Serif" font-size="10.00">no</text>
</g>
<!-- 13 -->
<g id="node12" class="node">
<title>13</title>
<path fill="#dbffb7" stroke="black" d="M60,-36C60,-36 16,-36 16,-36 10,-36 4,-30 4,-24 4,-24 4,-12 4,-12 4,-6 10,0 16,0 16,0 60,0 60,0 66,0 72,-6 72,-12 72,-12 72,-24 72,-24 72,-30 66,-36 60,-36"/>
<text text-anchor="middle" x="38" y="-21.2" font-family="Helvetica,sans-Serif" font-size="11.00">action 36</text>
<text text-anchor="middle" x="38" y="-9.2" font-family="Helvetica,sans-Serif" font-size="11.00">p=0.97</text>
</g>
<!-- 11&#45;&gt;13 -->
<g id="edge11" class="edge">
<title>11&#45;&gt;13</title>
<path fill="none" stroke="#555555" d="M69.9,-78.91C64.59,-68.94 57.79,-56.17 51.83,-44.97"/>
<polygon fill="#555555" stroke="#555555" points="54.86,-43.22 47.07,-36.04 48.68,-46.51 54.86,-43.22"/>
<text text-anchor="middle" x="70" y="-55" font-family="Helvetica,sans-Serif" font-size="10.00">yes</text>
</g>
<!-- 14 -->
<g id="node13" class="node">
<title>14</title>
<path fill="#ffb7b7" stroke="black" d="M139.5,-36C139.5,-36 102.5,-36 102.5,-36 96.5,-36 90.5,-30 90.5,-24 90.5,-24 90.5,-12 90.5,-12 90.5,-6 96.5,0 102.5,0 102.5,0 139.5,0 139.5,0 145.5,0 151.5,-6 151.5,-12 151.5,-12 151.5,-24 151.5,-24 151.5,-30 145.5,-36 139.5,-36"/>
<text text-anchor="middle" x="121" y="-21.2" font-family="Helvetica,sans-Serif" font-size="11.00">action 0</text>
<text text-anchor="middle" x="121" y="-9.2" font-family="Helvetica,sans-Serif" font-size="11.00">p=0.86</text>
</g>
<!-- 11&#45;&gt;14 -->
<g id="edge12" class="edge">
<title>11&#45;&gt;14</title>
<path fill="none" stroke="#555555" d="M88.32,-78.91C93.76,-68.94 100.73,-56.17 106.83,-44.97"/>
<polygon fill="#555555" stroke="#555555" points="109.99,-46.5 111.7,-36.04 103.84,-43.14 109.99,-46.5"/>
<text text-anchor="middle" x="109.5" y="-55" font-family="Helvetica,sans-Serif" font-size="10.00">no</text>
</g>
</g>
</svg>
