<?xml version="1.0" encoding="UTF-8" standalone="no"?>
<!DOCTYPE svg PUBLIC "-//W3C//DTD SVG 1.1//EN"
 "http://www.w3.org/Graphics/SVG/1.1/DTD/svg11.dtd">
<!-- Generated by graphviz version 2.43.0 (0)
 -->
<!-- Title: dtpo Pages: 1 -->
<svg width="1145pt" height="503pt"
 viewBox="0.00 0.00 1144.73 503.00" xmlns="http://www.w3.org/2000/svg" xmlns:xlink="http://www.w3.org/1999/xlink">
<g id="graph0" class="graph" transform="scale(1 1) rotate(0) translate(4 499)">
<title>dtpo</title>
<polygon fill="white" stroke="transparent" points="-4,4 -4,-499 1140.73,-499 1140.73,4 -4,4"/>
<!-- 0 -->
<g id="node1" class="node">
<title>0</title>
<ellipse fill="#eef3fb" stroke="black" cx="65.55" cy="-342" rx="65.59" ry="18"/>
<text text-anchor="middle" x="65.55" y="-339.2" font-family="Helvetica,sans-Serif" font-size="11.00">obs_103 ≤ 0.339</text>
</g>
<!-- 1 -->
<g id="node2" class="node">
<title>1</title>
<ellipse fill="#eef3fb" stroke="black" cx="242.43" cy="-369" rx="61.17" ry="18"/>
<text text-anchor="middle" x="242.43" y="-366.2" font-family="Helvetica,sans-Serif" font-size="11.00">obs_194 ≤ 2.43</text>
</g>
<!-- 0&#45;&gt;1 -->
<g id="edge1" class="edge">
<title>0&#45;&gt;1</title>
<path fill="none" stroke="#555555" d="M123.33,-350.77C140.67,-353.44 159.85,-356.41 177.63,-359.15"/>
<polygon fill="#555555" stroke="#555555" points="177.49,-362.67 187.9,-360.74 178.55,-355.75 177.49,-362.67"/>
<text text-anchor="middle" x="156.09" y="-360" font-family="Helvetica,sans-Serif" font-size="10.00">yes</text>
</g>
<!-- 2 -->
<g id="node3" class="node">
<title>2</title>
<ellipse fill="#eef3fb" stroke="black" cx="242.43" cy="-315" rx="61.17" ry="18"/>
<text text-anchor="middle" x="242.43" y="-312.2" font-family="Helvetica,sans-Serif" font-size="11.00">obs_435 ≤ 1.29</text>
</g>
<!-- 0&#45;&gt;2 -->
<g id="edge2" class="edge">
<title>0&#45;&gt;2</title>
<path fill="none" stroke="#555555" d="M123.33,-333.23C140.67,-330.56 159.85,-327.59 177.63,-324.85"/>
<polygon fill="#555555" stroke="#555555" points="178.55,-328.25 187.9,-323.26 177.49,-321.33 178.55,-328.25"/>
<text text-anchor="middle" x="156.09" y="-332" font-family="Helvetica,sans-Serif" font-size="10.00">no</text>
</g>
<!-- 3 -->
<g id="node4" class="node">
<title>3</title>
<path fill="#ffb7b7" stroke="black" d="M436.01,-441C436.01,-441 399.01,-441 399.01,-441 393.01,-441 387.01,-435 387.01,-429 387.01,-429 387.01,-417 387.01,-417 387.01,-411 393.01,-405 399.01,-405 399.01,-405 436.01,-405 436.01,-405 442.01,-405 448.01,-411 448.01,-417 448.01,-417 448.01,-429 448.01,-429 448.01,-435 442.01,-441 436.01,-441"/>
<text text-anchor="middle" x="417.51" y="-426.2" font-family="Helvetica,sans-Serif" font-size="11.00">action 0</text>
<text text-anchor="middle" x="417.51" y="-414.2" font-family="Helvetica,sans-Serif" font-size="11.00">p=1.00</text>
</g>
<!-- 1&#45;&gt;3 -->
<g id="edge3" class="edge">
<title>1&#45;&gt;3</title>
<path fill="none" stroke="#555555" d="M285.33,-382.07C313.3,-390.8 349.85,-402.2 377.27,-410.76"/>
<polygon fill="#555555" stroke="#555555" points="376.33,-414.13 386.92,-413.77 378.42,-407.45 376.33,-414.13"/>
<text text-anchor="middle" x="328.76" y="-400" font-family="Helvetica,sans-Serif" font-size="10.00">yes</text>
</g>
<!-- 4 -->
<g id="node5" class="node">
<title>4</title>
<path fill="#ffb7b7" stroke="black" d="M436.01,-387C436.01,-387 399.01,-387 399.01,-387 393.01,-387 387.01,-381 387.01,-375 387.01,-375 387.01,-363 387.01,-363 387.01,-357 393.01,-351 399.01,-351 399.01,-351 436.01,-351 436.01,-351 442.01,-351 448.01,-357 448.01,-363 448.01,-363 448.01,-375 448.01,-375 448.01,-381 442.01,-387 436.01,-387"/>
<text text-anchor="middle" x="417.51" y="-372.2" font-family="Helvetica,sans-Serif" font-size="11.00">action 0</text>
<text text-anchor="middle" x="417.51" y="-360.2" font-family="Helvetica,sans-Serif" font-size="11.00">p=0.62</text>
</g>
<!-- 1&#45;&gt;4 -->
<g id="edge4" class="edge">
<title>1&#45;&gt;4</title>
<path fill="none" stroke="#555555" d="M303.96,-369C328.09,-369 355.19,-369 376.75,-369"/>
<polygon fill="#555555" stroke="#555555" points="376.85,-372.5 386.85,-369 376.85,-365.5 376.85,-372.5"/>
<text text-anchor="middle" x="328.76" y="-372" font-family="Helvetica,sans-Serif" font-size="10.00">no</text>
</g>
<!-- 5 -->
<g id="node6" class="node">
<title>5</title>
<ellipse fill="#eef3fb" stroke="black" cx="417.51" cy="-315" rx="61.17" ry="18"/>
<text text-anchor="middle" x="417.51" y="-312.2" font-family="Helvetica,sans-Serif" font-size="11.00">obs_76 ≤ 0.709</text>
</g>
<!-- 2&#45;&gt;5 -->
<g id="edge5" class="edge">
<title>2&#45;&gt;5</title>
<path fill="none" stroke="#555555" d="M303.96,-315C317.53,-315 332.04,-315 345.98,-315"/>
<polygon fill="#555555" stroke="#555555" points="346.01,-318.5 356.01,-315 346.01,-311.5 346.01,-318.5"/>
<text text-anchor="middle" x="328.76" y="-318" font-family="Helvetica,sans-Serif" font-size="10.00">yes</text>
</g>
<!-- 6 -->
<g id="node7" class="node">
<title>6</title>
<ellipse fill="#eef3fb" stroke="black" cx="417.51" cy="-198" rx="63.98" ry="18"/>
<text text-anchor="middle" x="417.51" y="-195.2" font-family="Helvetica,sans-Serif" font-size="11.00">obs_27 ≤ &#45;0.705</text>
</g>
<!-- 2&#45;&gt;6 -->
<g id="edge6" class="edge">
<title>2&#45;&gt;6</title>
<path fill="none" stroke="#555555" d="M267.86,-298.48C298.05,-278.07 349.57,-243.25 383.32,-220.43"/>
<polygon fill="#555555" stroke="#555555" points="385.6,-223.12 391.92,-214.62 381.68,-217.32 385.6,-223.12"/>
<text text-anchor="middle" x="328.76" y="-263" font-family="Helvetica,sans-Serif" font-size="10.00">no</text>
</g>
<!-- 7 -->
<g id="node8" class="node">
<title>7</title>
<ellipse fill="#eef3fb" stroke="black" cx="599.2" cy="-396" rx="65.59" ry="18"/>
<text text-anchor="middle" x="599.2" y="-393.2" font-family="Helvetica,sans-Serif" font-size="11.00">obs_141 ≤ 0.435</text>
</g>
<!-- 5&#45;&gt;7 -->
<g id="edge7" class="edge">
<title>5&#45;&gt;7</title>
<path fill="none" stroke="#555555" d="M453.1,-329.69C462.27,-333.64 472.15,-337.94 481.25,-342 506.18,-353.12 533.92,-365.91 556.13,-376.25"/>
<polygon fill="#555555" stroke="#555555" points="554.74,-379.47 565.29,-380.52 557.7,-373.12 554.74,-379.47"/>
<text text-anchor="middle" x="506.25" y="-359" font-family="Helvetica,sans-Serif" font-size="10.00">yes</text>
</g>
<!-- 8 -->
<g id="node9" class="node">
<title>8</title>
<ellipse fill="#eef3fb" stroke="black" cx="599.2" cy="-315" rx="65.59" ry="18"/>
<text text-anchor="middle" x="599.2" y="-312.2" font-family="Helvetica,sans-Serif" font-size="11.00">obs_579 ≤ 0.126</text>
</g>
<!-- 5&#45;&gt;8 -->
<g id="edge8" class="edge">
<title>5&#45;&gt;8</title>
<path fill="none" stroke="#555555" d="M479.34,-315C493.49,-315 508.71,-315 523.38,-315"/>
<polygon fill="#555555" stroke="#555555" points="523.43,-318.5 533.43,-315 523.43,-311.5 523.43,-318.5"/>
<text text-anchor="middle" x="506.25" y="-318" font-family="Helvetica,sans-Serif" font-size="10.00">no</text>
</g>
<!-- 15 -->
<g id="node20" class="node">
<title>15</title>
<ellipse fill="#eef3fb" stroke="black" cx="599.2" cy="-198" rx="67.9" ry="18"/>
<text text-anchor="middle" x="599.2" y="-195.2" font-family="Helvetica,sans-Serif" font-size="11.00">obs_270 ≤ &#45;0.889</text>
</g>
<!-- 6&#45;&gt;15 -->
<g id="edge19" class="edge">
<title>6&#45;&gt;15</title>
<path fill="none" stroke="#555555" d="M481.35,-198C494.18,-198 507.81,-198 521.07,-198"/>
<polygon fill="#555555" stroke="#555555" points="521.11,-201.5 531.11,-198 521.11,-194.5 521.11,-201.5"/>
<text text-anchor="middle" x="506.25" y="-201" font-family="Helvetica,sans-Serif" font-size="10.00">yes</text>
</g>
<!-- 16 -->
<g id="node21" class="node">
<title>16</title>
<ellipse fill="#eef3fb" stroke="black" cx="599.2" cy="-126" rx="61.17" ry="18"/>
<text text-anchor="middle" x="599.2" y="-123.2" font-family="Helvetica,sans-Serif" font-size="11.00">obs_278 ≤ 1.06</text>
</g>
<!-- 6&#45;&gt;16 -->
<g id="edge20" class="edge">
<title>6&#45;&gt;16</title>
<path fill="none" stroke="#555555" d="M455.3,-183.26C483.47,-171.97 522.47,-156.34 552.62,-144.26"/>
<polygon fill="#555555" stroke="#555555" points="554.08,-147.45 562.07,-140.48 551.48,-140.95 554.08,-147.45"/>
<text text-anchor="middle" x="506.25" y="-169" font-family="Helvetica,sans-Serif" font-size="10.00">no</text>
</g>
<!-- 11 -->
<g id="node10" class="node">
<title>11</title>
<ellipse fill="#eef3fb" stroke="black" cx="780.89" cy="-450" rx="53.54" ry="18"/>
<text text-anchor="middle" x="780.89" y="-447.2" font-family="Helvetica,sans-Serif" font-size="11.00">obs_14 ≤ 1.3</text>
</g>
<!-- 7&#45;&gt;11 -->
<g id="edge9" class="edge">
<title>7&#45;&gt;11</title>
<path fill="none" stroke="#555555" d="M644.16,-409.21C670.35,-417.08 703.64,-427.09 730.71,-435.22"/>
<polygon fill="#555555" stroke="#555555" points="729.78,-438.6 740.37,-438.12 731.8,-431.89 729.78,-438.6"/>
<text text-anchor="middle" x="692.15" y="-429" font-family="Helvetica,sans-Serif" font-size="10.00">yes</text>
</g>
<!-- 12 -->
<g id="node11" class="node">
<title>12</title>
<path fill="#ffb7b7" stroke="black" d="M799.39,-414C799.39,-414 762.39,-414 762.39,-414 756.39,-414 750.39,-408 750.39,-402 750.39,-402 750.39,-390 750.39,-390 750.39,-384 756.39,-378 762.39,-378 762.39,-378 799.39,-378 799.39,-378 805.39,-378 811.39,-384 811.39,-390 811.39,-390 811.39,-402 811.39,-402 811.39,-408 805.39,-414 799.39,-414"/>
<text text-anchor="middle" x="780.89" y="-399.2" font-family="Helvetica,sans-Serif" font-size="11.00">action 0</text>
<text text-anchor="middle" x="780.89" y="-387.2" font-family="Helvetica,sans-Serif" font-size="11.00">p=0.63</text>
</g>
<!-- 7&#45;&gt;12 -->
<g id="edge10" class="edge">
<title>7&#45;&gt;12</title>
<path fill="none" stroke="#555555" d="M664.82,-396C690.01,-396 718.08,-396 740.19,-396"/>
<polygon fill="#555555" stroke="#555555" points="740.21,-399.5 750.21,-396 740.21,-392.5 740.21,-399.5"/>
<text text-anchor="middle" x="692.15" y="-399" font-family="Helvetica,sans-Serif" font-size="10.00">no</text>
</g>
<!-- 9 -->
<g id="node16" class="node">
<title>9</title>
<path fill="#ffb7b7" stroke="black" d="M799.39,-360C799.39,-360 762.39,-360 762.39,-360 756.39,-360 750.39,-354 750.39,-348 750.39,-348 750.39,-336 750.39,-336 750.39,-330 756.39,-324 762.39,-324 762.39,-324 799.39,-324 799.39,-324 805.39,-324 811.39,-330 811.39,-336 811.39,-336 811.39,-348 811.39,-348 811.39,-354 805.39,-360 799.39,-360"/>
<text text-anchor="middle" x="780.89" y="-345.2" font-family="Helvetica,sans-Serif" font-size="11.00">action 0</text>
<text text-anchor="middle" x="780.89" y="-333.2" font-family="Helvetica,sans-Serif" font-size="11.00">p=0.54</text>
</g>
<!-- 8&#45;&gt;9 -->
<g id="edge15" class="edge">
<title>8&#45;&gt;9</title>
<path fill="none" stroke="#555555" d="M657.06,-323.54C684.14,-327.61 715.86,-332.38 740.28,-336.05"/>
<polygon fill="#555555" stroke="#555555" points="739.86,-339.52 750.27,-337.55 740.9,-332.6 739.86,-339.52"/>
<text text-anchor="middle" x="692.15" y="-333" font-family="Helvetica,sans-Serif" font-size="10.00">yes</text>
</g>
<!-- 10 -->
<g id="node17" class="node">
<title>10</title>
<ellipse fill="#eef3fb" stroke="black" cx="780.89" cy="-288" rx="61.17" ry="18"/>
<text text-anchor="middle" x="780.89" y="-285.2" font-family="Helvetica,sans-Serif" font-size="11.00">obs_195 ≤ 0.83</text>
</g>
<!-- 8&#45;&gt;10 -->
<g id="edge16" class="edge">
<title>8&#45;&gt;10</title>
<path fill="none" stroke="#555555" d="M657.06,-306.46C675.71,-303.65 696.56,-300.52 715.72,-297.64"/>
<polygon fill="#555555" stroke="#555555" points="716.49,-301.07 725.86,-296.12 715.45,-294.14 716.49,-301.07"/>
<text text-anchor="middle" x="692.15" y="-305" font-family="Helvetica,sans-Serif" font-size="10.00">no</text>
</g>
<!-- 13 -->
<g id="node12" class="node">
<title>13</title>
<ellipse fill="#eef3fb" stroke="black" cx="960.18" cy="-450" rx="65.59" ry="18"/>
<text text-anchor="middle" x="960.18" y="-447.2" font-family="Helvetica,sans-Serif" font-size="11.00">obs_621 ≤ 0.435</text>
</g>
<!-- 11&#45;&gt;13 -->
<g id="edge11" class="edge">
<title>11&#45;&gt;13</title>
<path fill="none" stroke="#555555" d="M834.6,-450C850.16,-450 867.49,-450 884.16,-450"/>
<polygon fill="#555555" stroke="#555555" points="884.43,-453.5 894.43,-450 884.43,-446.5 884.43,-453.5"/>
<text text-anchor="middle" x="869.63" y="-453" font-family="Helvetica,sans-Serif" font-size="10.00">yes</text>
</g>
<!-- 14 -->
<g id="node13" class="node">
<title>14</title>
<path fill="#ffb7b7" stroke="black" d="M978.68,-414C978.68,-414 941.68,-414 941.68,-414 935.68,-414 929.68,-408 929.68,-402 929.68,-402 929.68,-390 929.68,-390 929.68,-384 935.68,-378 941.68,-378 941.68,-378 978.68,-378 978.68,-378 984.68,-378 990.68,-384 990.68,-390 990.68,-390 990.68,-402 990.68,-402 990.68,-408 984.68,-414 978.68,-414"/>
<text text-anchor="middle" x="960.18" y="-399.2" font-family="Helvetica,sans-Serif" font-size="11.00">action 0</text>
<text text-anchor="middle" x="960.18" y="-387.2" font-family="Helvetica,sans-Serif" font-size="11.00">p=1.00</text>
</g>
<!-- 11&#45;&gt;14 -->
<g id="edge12" class="edge">
<title>11&#45;&gt;14</title>
<path fill="none" stroke="#555555" d="M821.24,-438.02C850.53,-429.09 890.35,-416.96 919.68,-408.03"/>
<polygon fill="#555555" stroke="#555555" points="921.04,-411.28 929.58,-405.01 919,-404.58 921.04,-411.28"/>
<text text-anchor="middle" x="869.63" y="-427" font-family="Helvetica,sans-Serif" font-size="10.00">no</text>
</g>
<!-- 17 -->
<g id="node14" class="node">
<title>17</title>
<path fill="#ffb7b7" stroke="black" d="M1124.73,-495C1124.73,-495 1087.73,-495 1087.73,-495 1081.73,-495 1075.73,-489 1075.73,-483 1075.73,-483 1075.73,-471 1075.73,-471 1075.73,-465 1081.73,-459 1087.73,-459 1087.73,-459 1124.73,-459 1124.73,-459 1130.73,-459 1136.73,-465 1136.73,-471 1136.73,-471 1136.73,-483 1136.73,-483 1136.73,-489 1130.73,-495 1124.73,-495"/>
<text text-anchor="middle" x="1106.23" y="-480.2" font-family="Helvetica,sans-Serif" font-size="11.00">action 0</text>
<text text-anchor="middle" x="1106.23" y="-468.2" font-family="Helvetica,sans-Serif" font-size="11.00">p=0.74</text>
</g>
<!-- 13&#45;&gt;17 -->
<g id="edge13" class="edge">
<title>13&#45;&gt;17</title>
<path fill="none" stroke="#555555" d="M1014.82,-460.05C1031.61,-463.2 1049.84,-466.62 1065.5,-469.55"/>
<polygon fill="#555555" stroke="#555555" points="1064.91,-473 1075.38,-471.41 1066.2,-466.12 1064.91,-473"/>
<text text-anchor="middle" x="1050.73" y="-471" font-family="Helvetica,sans-Serif" font-size="10.00">yes</text>
</g>
<!-- 18 -->
<g id="node15" class="node">
<title>18</title>
<path fill="#ffb7b7" stroke="black" d="M1124.73,-441C1124.73,-441 1087.73,-441 1087.73,-441 1081.73,-441 1075.73,-435 1075.73,-429 1075.73,-429 1075.73,-417 1075.73,-417 1075.73,-411 1081.73,-405 1087.73,-405 1087.73,-405 1124.73,-405 1124.73,-405 1130.73,-405 1136.73,-411 1136.73,-417 1136.73,-417 1136.73,-429 1136.73,-429 1136.73,-435 1130.73,-441 1124.73,-441"/>
<text text-anchor="middle" x="1106.23" y="-426.2" font-family="Helvetica,sans-Serif" font-size="11.00">action 0</text>
<text text-anchor="middle" x="1106.23" y="-414.2" font-family="Helvetica,sans-Serif" font-size="11.00">p=0.62</text>
</g>
<!-- 13&#45;&gt;18 -->
<g id="edge14" class="edge">
<title>13&#45;&gt;18</title>
<path fill="none" stroke="#555555" d="M1014.82,-439.95C1031.61,-436.8 1049.84,-433.38 1065.5,-430.45"/>
<polygon fill="#555555" stroke="#555555" points="1066.2,-433.88 1075.38,-428.59 1064.91,-427 1066.2,-433.88"/>
<text text-anchor="middle" x="1050.73" y="-437" font-family="Helvetica,sans-Serif" font-size="10.00">no</text>
</g>
<!-- 29 -->
<g id="node18" class="node">
<title>29</title>
<path fill="#ffb7b7" stroke="black" d="M978.68,-333C978.68,-333 941.68,-333 941.68,-333 935.68,-333 929.68,-327 929.68,-321 929.68,-321 929.68,-309 929.68,-309 929.68,-303 935.68,-297 941.68,-297 941.68,-297 978.68,-297 978.68,-297 984.68,-297 990.68,-303 990.68,-309 990.68,-309 990.68,-321 990.68,-321 990.68,-327 984.68,-333 978.68,-333"/>
<text text-anchor="middle" x="960.18" y="-318.2" font-family="Helvetica,sans-Serif" font-size="11.00">action 0</text>
<text text-anchor="middle" x="960.18" y="-306.2" font-family="Helvetica,sans-Serif" font-size="11.00">p=0.81</text>
</g>
<!-- 10&#45;&gt;29 -->
<g id="edge17" class="edge">
<title>10&#45;&gt;29</title>
<path fill="none" stroke="#555555" d="M835.57,-296.17C862.59,-300.29 894.77,-305.19 919.52,-308.96"/>
<polygon fill="#555555" stroke="#555555" points="919.23,-312.46 929.64,-310.5 920.28,-305.54 919.23,-312.46"/>
<text text-anchor="middle" x="869.63" y="-305" font-family="Helvetica,sans-Serif" font-size="10.00">yes</text>
</g>
<!-- 30 -->
<g id="node19" class="node">
<title>30</title>
<path fill="#ffb7b7" stroke="black" d="M978.68,-279C978.68,-279 941.68,-279 941.68,-279 935.68,-279 929.68,-273 929.68,-267 929.68,-267 929.68,-255 929.68,-255 929.68,-249 935.68,-243 941.68,-243 941.68,-243 978.68,-243 978.68,-243 984.68,-243 990.68,-249 990.68,-255 990.68,-255 990.68,-267 990.68,-267 990.68,-273 984.68,-279 978.68,-279"/>
<text text-anchor="middle" x="960.18" y="-264.2" font-family="Helvetica,sans-Serif" font-size="11.00">action 0</text>
<text text-anchor="middle" x="960.18" y="-252.2" font-family="Helvetica,sans-Serif" font-size="11.00">p=0.62</text>
</g>
<!-- 10&#45;&gt;30 -->
<g id="edge18" class="edge">
<title>10&#45;&gt;30</title>
<path fill="none" stroke="#555555" d="M835.57,-279.83C862.59,-275.71 894.77,-270.81 919.52,-267.04"/>
<polygon fill="#555555" stroke="#555555" points="920.28,-270.46 929.64,-265.5 919.23,-263.54 920.28,-270.46"/>
<text text-anchor="middle" x="869.63" y="-278" font-family="Helvetica,sans-Serif" font-size="10.00">no</text>
</g>
<!-- 25 -->
<g id="node22" class="node">
<title>25</title>
<path fill="#ffb7b7" stroke="black" d="M799.39,-252C799.39,-252 762.39,-252 762.39,-252 756.39,-252 750.39,-246 750.39,-240 750.39,-240 750.39,-228 750.39,-228 750.39,-222 756.39,-216 762.39,-216 762.39,-216 799.39,-216 799.39,-216 805.39,-216 811.39,-222 811.39,-228 811.39,-228 811.39,-240 811.39,-240 811.39,-246 805.39,-252 799.39,-252"/>
<text text-anchor="middle" x="780.89" y="-237.2" font-family="Helvetica,sans-Serif" font-size="11.00">action 0</text>
<text text-anchor="middle" x="780.89" y="-225.2" font-family="Helvetica,sans-Serif" font-size="11.00">p=0.60</text>
</g>
<!-- 15&#45;&gt;25 -->
<g id="edge21" class="edge">
<title>15&#45;&gt;25</title>
<path fill="none" stroke="#555555" d="M654.11,-208.8C681.83,-214.35 715,-221 740.32,-226.07"/>
<polygon fill="#555555" stroke="#555555" points="739.81,-229.54 750.3,-228.07 741.18,-222.68 739.81,-229.54"/>
<text text-anchor="middle" x="692.15" y="-221" font-family="Helvetica,sans-Serif" font-size="10.00">yes</text>
</g>
<!-- 26 -->
<g id="node23" class="node">
<title>26</title>
<path fill="#ffb7b7" stroke="black" d="M799.39,-198C799.39,-198 762.39,-198 762.39,-198 756.39,-198 750.39,-192 750.39,-186 750.39,-186 750.39,-174 750.39,-174 750.39,-168 756.39,-162 762.39,-162 762.39,-162 799.39,-162 799.39,-162 805.39,-162 811.39,-168 811.39,-174 811.39,-174 811.39,-186 811.39,-186 811.39,-192 805.39,-198 799.39,-198"/>
<text text-anchor="middle" x="780.89" y="-183.2" font-family="Helvetica,sans-Serif" font-size="11.00">action 0</text>
<text text-anchor="middle" x="780.89" y="-171.2" font-family="Helvetica,sans-Serif" font-size="11.00">p=0.66</text>
</g>
<!-- 15&#45;&gt;26 -->
<g id="edge22" class="edge">
<title>15&#45;&gt;26</title>
<path fill="none" stroke="#555555" d="M663.05,-191.7C688.56,-189.15 717.27,-186.27 739.85,-184.01"/>
<polygon fill="#555555" stroke="#555555" points="740.48,-187.47 750.08,-182.99 739.78,-180.5 740.48,-187.47"/>
<text text-anchor="middle" x="692.15" y="-192" font-family="Helvetica,sans-Serif" font-size="10.00">no</text>
</g>
<!-- 19 -->
<g id="node24" class="node">
<title>19</title>
<ellipse fill="#eef3fb" stroke="black" cx="780.89" cy="-126" rx="63.98" ry="18"/>
<text text-anchor="middle" x="780.89" y="-123.2" font-family="Helvetica,sans-Serif" font-size="11.00">obs_245 ≤ &#45;0.84</text>
</g>
<!-- 16&#45;&gt;19 -->
<g id="edge23" class="edge">
<title>16&#45;&gt;19</title>
<path fill="none" stroke="#555555" d="M661.04,-126C675.68,-126 691.47,-126 706.62,-126"/>
<polygon fill="#555555" stroke="#555555" points="706.97,-129.5 716.97,-126 706.97,-122.5 706.97,-129.5"/>
<text text-anchor="middle" x="692.15" y="-129" font-family="Helvetica,sans-Serif" font-size="10.00">yes</text>
</g>
<!-- 20 -->
<g id="node25" class="node">
<title>20</title>
<ellipse fill="#eef3fb" stroke="black" cx="780.89" cy="-72" rx="61.17" ry="18"/>
<text text-anchor="middle" x="780.89" y="-69.2" font-family="Helvetica,sans-Serif" font-size="11.00">obs_177 ≤ 1.41</text>
</g>
<!-- 16&#45;&gt;20 -->
<g id="edge24" class="edge">
<title>16&#45;&gt;20</title>
<path fill="none" stroke="#555555" d="M642.78,-113.2C668.2,-105.56 700.68,-95.8 727.64,-87.7"/>
<polygon fill="#555555" stroke="#555555" points="728.73,-91.03 737.3,-84.8 726.72,-84.32 728.73,-91.03"/>
<text text-anchor="middle" x="692.15" y="-104" font-family="Helvetica,sans-Serif" font-size="10.00">no</text>
</g>
<!-- 21 -->
<g id="node26" class="node">
<title>21</title>
<ellipse fill="#eef3fb" stroke="black" cx="960.18" cy="-180" rx="61.17" ry="18"/>
<text text-anchor="middle" x="960.18" y="-177.2" font-family="Helvetica,sans-Serif" font-size="11.00">obs_255 ≤ 1.09</text>
</g>
<!-- 19&#45;&gt;21 -->
<g id="edge25" class="edge">
<title>19&#45;&gt;21</title>
<path fill="none" stroke="#555555" d="M824.81,-139.07C849.62,-146.63 881,-156.19 907.2,-164.17"/>
<polygon fill="#555555" stroke="#555555" points="906.38,-167.58 916.96,-167.14 908.42,-160.88 906.38,-167.58"/>
<text text-anchor="middle" x="869.63" y="-157" font-family="Helvetica,sans-Serif" font-size="10.00">yes</text>
</g>
<!-- 22 -->
<g id="node27" class="node">
<title>22</title>
<path fill="#ffb7b7" stroke="black" d="M978.68,-144C978.68,-144 941.68,-144 941.68,-144 935.68,-144 929.68,-138 929.68,-132 929.68,-132 929.68,-120 929.68,-120 929.68,-114 935.68,-108 941.68,-108 941.68,-108 978.68,-108 978.68,-108 984.68,-108 990.68,-114 990.68,-120 990.68,-120 990.68,-132 990.68,-132 990.68,-138 984.68,-144 978.68,-144"/>
<text text-anchor="middle" x="960.18" y="-129.2" font-family="Helvetica,sans-Serif" font-size="11.00">action 0</text>
<text text-anchor="middle" x="960.18" y="-117.2" font-family="Helvetica,sans-Serif" font-size="11.00">p=0.51</text>
</g>
<!-- 19&#45;&gt;22 -->
<g id="edge26" class="edge">
<title>19&#45;&gt;22</title>
<path fill="none" stroke="#555555" d="M844.9,-126C869.7,-126 897.43,-126 919.37,-126"/>
<polygon fill="#555555" stroke="#555555" points="919.63,-129.5 929.63,-126 919.63,-122.5 919.63,-129.5"/>
<text text-anchor="middle" x="869.63" y="-129" font-family="Helvetica,sans-Serif" font-size="10.00">no</text>
</g>
<!-- 27 -->
<g id="node30" class="node">
<title>27</title>
<path fill="#b7edff" stroke="black" d="M982.18,-90C982.18,-90 938.18,-90 938.18,-90 932.18,-90 926.18,-84 926.18,-78 926.18,-78 926.18,-66 926.18,-66 926.18,-60 932.18,-54 938.18,-54 938.18,-54 982.18,-54 982.18,-54 988.18,-54 994.18,-60 994.18,-66 994.18,-66 994.18,-78 994.18,-78 994.18,-84 988.18,-90 982.18,-90"/>
<text text-anchor="middle" x="960.18" y="-75.2" font-family="Helvetica,sans-Serif" font-size="11.00">action 30</text>
<text text-anchor="middle" x="960.18" y="-63.2" font-family="Helvetica,sans-Serif" font-size="11.00">p=0.69</text>
</g>
<!-- 20&#45;&gt;27 -->
<g id="edge29" class="edge">
<title>20&#45;&gt;27</title>
<path fill="none" stroke="#555555" d="M842.41,-72C866.57,-72 893.84,-72 915.95,-72"/>
<polygon fill="#555555" stroke="#555555" points="916.03,-75.5 926.03,-72 916.03,-68.5 916.03,-75.5"/>
<text text-anchor="middle" x="869.63" y="-75" font-family="Helvetica,sans-Serif" font-size="10.00">yes</text>
</g>
<!-- 28 -->
<g id="node31" class="node">
<title>28</title>
<path fill="#ffb7b7" stroke="black" d="M978.68,-36C978.68,-36 941.68,-36 941.68,-36 935.68,-36 929.68,-30 929.68,-24 929.68,-24 929.68,-12 929.68,-12 929.68,-6 935.68,0 941.68,0 941.68,0 978.68,0 978.68,0 984.68,0 990.68,-6 990.68,-12 990.68,-12 990.68,-24 990.68,-24 990.68,-30 984.68,-36 978.68,-36"/>
<text text-anchor="middle" x="960.18" y="-21.2" font-family="Helvetica,sans-Serif" font-size="11.00">action 0</text>
<text text-anchor="middle" x="960.18" y="-9.2" font-family="Helvetica,sans-Serif" font-size="11.00">p=0.98</text>
</g>
<!-- 20&#45;&gt;28 -->
<g id="edge30" class="edge">
<title>20&#45;&gt;28</title>
<path fill="none" stroke="#555555" d="M824.36,-59.07C853.41,-50.22 891.63,-38.57 919.96,-29.95"/>
<polygon fill="#555555" stroke="#555555" points="920.99,-33.29 929.54,-27.03 918.95,-26.59 920.99,-33.29"/>
<text text-anchor="middle" x="869.63" y="-50" font-family="Helvetica,sans-Serif" font-size="10.00">no</text>
</g>
<!-- 23 -->
<g id="node28" class="node">
<title>23</title>
<path fill="#ffb7b7" stroke="black" d="M1124.73,-225C1124.73,-225 1087.73,-225 1087.73,-225 1081.73,-225 1075.73,-219 1075.73,-213 1075.73,-213 1075.73,-201 1075.73,-201 1075.73,-195 1081.73,-189 1087.73,-189 1087.73,-189 1124.73,-189 1124.73,-189 1130.73,-189 1136.73,-195 1136.73,-201 1136.73,-201 1136.73,-213 1136.73,-213 1136.73,-219 1130.73,-225 1124.73,-225"/>
<text text-anchor="middle" x="1106.23" y="-210.2" font-family="Helvetica,sans-Serif" font-size="11.00">action 0</text>
<text text-anchor="middle" x="1106.23" y="-198.2" font-family="Helvetica,sans-Serif" font-size="11.00">p=0.52</text>
</g>
<!-- 21&#45;&gt;23 -->
<g id="edge27" class="edge">
<title>21&#45;&gt;23</title>
<path fill="none" stroke="#555555" d="M1012.37,-189.6C1029.92,-192.88 1049.27,-196.51 1065.74,-199.6"/>
<polygon fill="#555555" stroke="#555555" points="1065.11,-203.04 1075.58,-201.44 1066.4,-196.16 1065.11,-203.04"/>
<text text-anchor="middle" x="1050.73" y="-201" font-family="Helvetica,sans-Serif" font-size="10.00">yes</text>
</g>
<!-- 24 -->
<g id="node29" class="node">
<title>24</title>
<path fill="#ffb7b7" stroke="black" d="M1124.73,-171C1124.73,-171 1087.73,-171 1087.73,-171 1081.73,-171 1075.73,-165 1075.73,-159 1075.73,-159 1075.73,-147 1075.73,-147 1075.73,-141 1081.73,-135 1087.73,-135 1087.73,-135 1124.73,-135 1124.73,-135 1130.73,-135 1136.73,-141 1136.73,-147 1136.73,-147 1136.73,-159 1136.73,-159 1136.73,-165 1130.73,-171 1124.73,-171"/>
<text text-anchor="middle" x="1106.23" y="-156.2" font-family="Helvetica,sans-Serif" font-size="11.00">action 0</text>
<text text-anchor="middle" x="1106.23" y="-144.2" font-family="Helvetica,sans-Serif" font-size="11.00">p=0.70</text>
</g>
<!-- 21&#45;&gt;24 -->
<g id="edge28" class="edge">
<title>21&#45;&gt;24</title>
<path fill="none" stroke="#555555" d="M1012.37,-170.4C1029.92,-167.12 1049.27,-163.49 1065.74,-160.4"/>
<polygon fill="#555555" stroke="#555555" points="1066.4,-163.84 1075.58,-158.56 1065.11,-156.96 1066.4,-163.84"/>
<text text-anchor="middle" x="1050.73" y="-167" font-family="Helvetica,sans-Serif" font-size="10.00">no</text>
</g>
</g>
</svg>
