<?xml version="1.0" encoding="UTF-8" standalone="no"?>
<!DOCTYPE svg PUBLIC "-//W3C//DTD SVG 1.1//EN"
 "http://www.w3.org/Graphics/SVG/1.1/DTD/svg11.dtd">
<!-- Generated by graphviz version 2.43.0 (0)
 -->
<!-- Title: dtpo Pages: 1 -->
<svg width="1333pt" height="368pt"
 viewBox="0.00 0.00 1332.82 368.00" xmlns="http://www.w3.org/2000/svg" xmlns:xlink="http://www.w3.org/1999/xlink">
<g id="graph0" class="graph" transform="scale(1 1) rotate(0) translate(4 364)">
<title>dtpo</title>
<polygon fill="white" stroke="transparent" points="-4,4 -4,-364 1328.82,-364 1328.82,4 -4,4"/>
<!-- 0 -->
<g id="node1" class="node">
<title>0</title>
<ellipse fill="#eef3fb" stroke="black" cx="59.53" cy="-180" rx="59.56" ry="18"/>
<text text-anchor="middle" x="59.53" y="-177.2" font-family="Helvetica,sans-Serif" font-size="11.00">obs_5 ≤ &#45;0.332</text>
</g>
<!-- 1 -->
<g id="node2" class="node">
<title>1</title>
<ellipse fill="#eef3fb" stroke="black" cx="230.4" cy="-225" rx="61.17" ry="18"/>
<text text-anchor="middle" x="230.4" y="-222.2" font-family="Helvetica,sans-Serif" font-size="11.00">obs_166 ≤ 1.45</text>
</g>
<!-- 0&#45;&gt;1 -->
<g id="edge1" class="edge">
<title>0&#45;&gt;1</title>
<path fill="none" stroke="#555555" d="M104.9,-191.82C126.27,-197.52 152.09,-204.4 174.66,-210.41"/>
<polygon fill="#555555" stroke="#555555" points="173.88,-213.83 184.45,-213.02 175.69,-207.06 173.88,-213.83"/>
<text text-anchor="middle" x="144.06" y="-206" font-family="Helvetica,sans-Serif" font-size="10.00">yes</text>
</g>
<!-- 2 -->
<g id="node3" class="node">
<title>2</title>
<ellipse fill="#eef3fb" stroke="black" cx="230.4" cy="-126" rx="61.17" ry="18"/>
<text text-anchor="middle" x="230.4" y="-123.2" font-family="Helvetica,sans-Serif" font-size="11.00">obs_35 ≤ 0.772</text>
</g>
<!-- 0&#45;&gt;2 -->
<g id="edge2" class="edge">
<title>0&#45;&gt;2</title>
<path fill="none" stroke="#555555" d="M100.98,-167.07C124.24,-159.63 153.67,-150.22 178.49,-142.28"/>
<polygon fill="#555555" stroke="#555555" points="179.65,-145.58 188.11,-139.2 177.52,-138.92 179.65,-145.58"/>
<text text-anchor="middle" x="144.06" y="-157" font-family="Helvetica,sans-Serif" font-size="10.00">no</text>
</g>
<!-- 3 -->
<g id="node4" class="node">
<title>3</title>
<ellipse fill="#eef3fb" stroke="black" cx="411.49" cy="-288" rx="63.98" ry="18"/>
<text text-anchor="middle" x="411.49" y="-285.2" font-family="Helvetica,sans-Serif" font-size="11.00">obs_60 ≤ &#45;0.703</text>
</g>
<!-- 1&#45;&gt;3 -->
<g id="edge3" class="edge">
<title>1&#45;&gt;3</title>
<path fill="none" stroke="#555555" d="M270.7,-238.83C297.32,-248.19 332.7,-260.63 361.2,-270.66"/>
<polygon fill="#555555" stroke="#555555" points="360.38,-274.08 370.97,-274.1 362.7,-267.48 360.38,-274.08"/>
<text text-anchor="middle" x="316.74" y="-259" font-family="Helvetica,sans-Serif" font-size="10.00">yes</text>
</g>
<!-- 4 -->
<g id="node5" class="node">
<title>4</title>
<ellipse fill="#eef3fb" stroke="black" cx="411.49" cy="-225" rx="69.51" ry="18"/>
<text text-anchor="middle" x="411.49" y="-222.2" font-family="Helvetica,sans-Serif" font-size="11.00">obs_143 ≤ 0.0291</text>
</g>
<!-- 1&#45;&gt;4 -->
<g id="edge4" class="edge">
<title>1&#45;&gt;4</title>
<path fill="none" stroke="#555555" d="M292.03,-225C304.73,-225 318.29,-225 331.54,-225"/>
<polygon fill="#555555" stroke="#555555" points="331.6,-228.5 341.6,-225 331.6,-221.5 331.6,-228.5"/>
<text text-anchor="middle" x="316.74" y="-228" font-family="Helvetica,sans-Serif" font-size="10.00">no</text>
</g>
<!-- 11 -->
<g id="node16" class="node">
<title>11</title>
<ellipse fill="#eef3fb" stroke="black" cx="411.49" cy="-126" rx="61.17" ry="18"/>
<text text-anchor="middle" x="411.49" y="-123.2" font-family="Helvetica,sans-Serif" font-size="11.00">obs_142 ≤ 1.15</text>
</g>
<!-- 2&#45;&gt;11 -->
<g id="edge15" class="edge">
<title>2&#45;&gt;11</title>
<path fill="none" stroke="#555555" d="M292.03,-126C307.35,-126 323.93,-126 339.7,-126"/>
<polygon fill="#555555" stroke="#555555" points="339.92,-129.5 349.92,-126 339.92,-122.5 339.92,-129.5"/>
<text text-anchor="middle" x="316.74" y="-129" font-family="Helvetica,sans-Serif" font-size="10.00">yes</text>
</g>
<!-- 12 -->
<g id="node17" class="node">
<title>12</title>
<path fill="#c0b7ff" stroke="black" d="M433.49,-90C433.49,-90 389.49,-90 389.49,-90 383.49,-90 377.49,-84 377.49,-78 377.49,-78 377.49,-66 377.49,-66 377.49,-60 383.49,-54 389.49,-54 389.49,-54 433.49,-54 433.49,-54 439.49,-54 445.49,-60 445.49,-66 445.49,-66 445.49,-78 445.49,-78 445.49,-84 439.49,-90 433.49,-90"/>
<text text-anchor="middle" x="411.49" y="-75.2" font-family="Helvetica,sans-Serif" font-size="11.00">action 27</text>
<text text-anchor="middle" x="411.49" y="-63.2" font-family="Helvetica,sans-Serif" font-size="11.00">p=0.43</text>
</g>
<!-- 2&#45;&gt;12 -->
<g id="edge16" class="edge">
<title>2&#45;&gt;12</title>
<path fill="none" stroke="#555555" d="M273.84,-113.2C302.16,-104.67 339.25,-93.48 367.65,-84.92"/>
<polygon fill="#555555" stroke="#555555" points="368.74,-88.25 377.3,-82.01 366.72,-81.54 368.74,-88.25"/>
<text text-anchor="middle" x="316.74" y="-105" font-family="Helvetica,sans-Serif" font-size="10.00">no</text>
</g>
<!-- 5 -->
<g id="node6" class="node">
<title>5</title>
<path fill="#f5b7ff" stroke="black" d="M621.2,-360C621.2,-360 577.2,-360 577.2,-360 571.2,-360 565.2,-354 565.2,-348 565.2,-348 565.2,-336 565.2,-336 565.2,-330 571.2,-324 577.2,-324 577.2,-324 621.2,-324 621.2,-324 627.2,-324 633.2,-330 633.2,-336 633.2,-336 633.2,-348 633.2,-348 633.2,-354 627.2,-360 621.2,-360"/>
<text text-anchor="middle" x="599.2" y="-345.2" font-family="Helvetica,sans-Serif" font-size="11.00">action 45</text>
<text text-anchor="middle" x="599.2" y="-333.2" font-family="Helvetica,sans-Serif" font-size="11.00">p=0.80</text>
</g>
<!-- 3&#45;&gt;5 -->
<g id="edge5" class="edge">
<title>3&#45;&gt;5</title>
<path fill="none" stroke="#555555" d="M456.5,-300.8C486.38,-309.48 525.68,-320.91 555.31,-329.53"/>
<polygon fill="#555555" stroke="#555555" points="554.38,-332.9 564.96,-332.34 556.34,-326.18 554.38,-332.9"/>
<text text-anchor="middle" x="506.25" y="-319" font-family="Helvetica,sans-Serif" font-size="10.00">yes</text>
</g>
<!-- 6 -->
<g id="node7" class="node">
<title>6</title>
<ellipse fill="#eef3fb" stroke="black" cx="599.2" cy="-288" rx="67.9" ry="18"/>
<text text-anchor="middle" x="599.2" y="-285.2" font-family="Helvetica,sans-Serif" font-size="11.00">obs_81 ≤ &#45;0.0525</text>
</g>
<!-- 3&#45;&gt;6 -->
<g id="edge6" class="edge">
<title>3&#45;&gt;6</title>
<path fill="none" stroke="#555555" d="M475.36,-288C489.9,-288 505.53,-288 520.61,-288"/>
<polygon fill="#555555" stroke="#555555" points="520.94,-291.5 530.94,-288 520.94,-284.5 520.94,-291.5"/>
<text text-anchor="middle" x="506.25" y="-291" font-family="Helvetica,sans-Serif" font-size="10.00">no</text>
</g>
<!-- 9 -->
<g id="node14" class="node">
<title>9</title>
<path fill="#ffb7c0" stroke="black" d="M621.2,-252C621.2,-252 577.2,-252 577.2,-252 571.2,-252 565.2,-246 565.2,-240 565.2,-240 565.2,-228 565.2,-228 565.2,-222 571.2,-216 577.2,-216 577.2,-216 621.2,-216 621.2,-216 627.2,-216 633.2,-222 633.2,-228 633.2,-228 633.2,-240 633.2,-240 633.2,-246 627.2,-252 621.2,-252"/>
<text text-anchor="middle" x="599.2" y="-237.2" font-family="Helvetica,sans-Serif" font-size="11.00">action 21</text>
<text text-anchor="middle" x="599.2" y="-225.2" font-family="Helvetica,sans-Serif" font-size="11.00">p=0.64</text>
</g>
<!-- 4&#45;&gt;9 -->
<g id="edge13" class="edge">
<title>4&#45;&gt;9</title>
<path fill="none" stroke="#555555" d="M480.33,-228.29C505.28,-229.5 532.84,-230.83 555.04,-231.91"/>
<polygon fill="#555555" stroke="#555555" points="554.99,-235.41 565.14,-232.4 555.33,-228.42 554.99,-235.41"/>
<text text-anchor="middle" x="506.25" y="-232" font-family="Helvetica,sans-Serif" font-size="10.00">yes</text>
</g>
<!-- 10 -->
<g id="node15" class="node">
<title>10</title>
<path fill="#ffb7c0" stroke="black" d="M621.2,-198C621.2,-198 577.2,-198 577.2,-198 571.2,-198 565.2,-192 565.2,-186 565.2,-186 565.2,-174 565.2,-174 565.2,-168 571.2,-162 577.2,-162 577.2,-162 621.2,-162 621.2,-162 627.2,-162 633.2,-168 633.2,-174 633.2,-174 633.2,-186 633.2,-186 633.2,-192 627.2,-198 621.2,-198"/>
<text text-anchor="middle" x="599.2" y="-183.2" font-family="Helvetica,sans-Serif" font-size="11.00">action 21</text>
<text text-anchor="middle" x="599.2" y="-171.2" font-family="Helvetica,sans-Serif" font-size="11.00">p=0.95</text>
</g>
<!-- 4&#45;&gt;10 -->
<g id="edge14" class="edge">
<title>4&#45;&gt;10</title>
<path fill="none" stroke="#555555" d="M463.24,-212.7C492,-205.73 527.59,-197.11 555,-190.47"/>
<polygon fill="#555555" stroke="#555555" points="556.18,-193.78 565.08,-188.03 554.54,-186.98 556.18,-193.78"/>
<text text-anchor="middle" x="506.25" y="-206" font-family="Helvetica,sans-Serif" font-size="10.00">no</text>
</g>
<!-- 7 -->
<g id="node8" class="node">
<title>7</title>
<path fill="#f5b7ff" stroke="black" d="M807.1,-343C807.1,-343 763.1,-343 763.1,-343 757.1,-343 751.1,-337 751.1,-331 751.1,-331 751.1,-319 751.1,-319 751.1,-313 757.1,-307 763.1,-307 763.1,-307 807.1,-307 807.1,-307 813.1,-307 819.1,-313 819.1,-319 819.1,-319 819.1,-331 819.1,-331 819.1,-337 813.1,-343 807.1,-343"/>
<text text-anchor="middle" x="785.1" y="-328.2" font-family="Helvetica,sans-Serif" font-size="11.00">action 45</text>
<text text-anchor="middle" x="785.1" y="-316.2" font-family="Helvetica,sans-Serif" font-size="11.00">p=0.64</text>
</g>
<!-- 6&#45;&gt;7 -->
<g id="edge7" class="edge">
<title>6&#45;&gt;7</title>
<path fill="none" stroke="#555555" d="M653.89,-298.8C681.59,-304.38 714.93,-311.08 740.94,-316.32"/>
<polygon fill="#555555" stroke="#555555" points="740.39,-319.78 750.88,-318.32 741.77,-312.91 740.39,-319.78"/>
<text text-anchor="middle" x="692.15" y="-310" font-family="Helvetica,sans-Serif" font-size="10.00">yes</text>
</g>
<!-- 8 -->
<g id="node9" class="node">
<title>8</title>
<ellipse fill="#eef3fb" stroke="black" cx="785.1" cy="-271" rx="65.59" ry="18"/>
<text text-anchor="middle" x="785.1" y="-268.2" font-family="Helvetica,sans-Serif" font-size="11.00">obs_150 ≤ 0.264</text>
</g>
<!-- 6&#45;&gt;8 -->
<g id="edge8" class="edge">
<title>6&#45;&gt;8</title>
<path fill="none" stroke="#555555" d="M663.49,-282.15C679.41,-280.68 696.6,-279.09 712.87,-277.58"/>
<polygon fill="#555555" stroke="#555555" points="713.24,-281.07 722.87,-276.66 712.59,-274.1 713.24,-281.07"/>
<text text-anchor="middle" x="692.15" y="-283" font-family="Helvetica,sans-Serif" font-size="10.00">no</text>
</g>
<!-- 13 -->
<g id="node10" class="node">
<title>13</title>
<path fill="#f5b7ff" stroke="black" d="M986.39,-330C986.39,-330 942.39,-330 942.39,-330 936.39,-330 930.39,-324 930.39,-318 930.39,-318 930.39,-306 930.39,-306 930.39,-300 936.39,-294 942.39,-294 942.39,-294 986.39,-294 986.39,-294 992.39,-294 998.39,-300 998.39,-306 998.39,-306 998.39,-318 998.39,-318 998.39,-324 992.39,-330 986.39,-330"/>
<text text-anchor="middle" x="964.39" y="-315.2" font-family="Helvetica,sans-Serif" font-size="11.00">action 45</text>
<text text-anchor="middle" x="964.39" y="-303.2" font-family="Helvetica,sans-Serif" font-size="11.00">p=0.66</text>
</g>
<!-- 8&#45;&gt;13 -->
<g id="edge9" class="edge">
<title>8&#45;&gt;13</title>
<path fill="none" stroke="#555555" d="M835.96,-282.53C862.54,-288.68 894.92,-296.17 920.39,-302.05"/>
<polygon fill="#555555" stroke="#555555" points="919.6,-305.47 930.13,-304.31 921.18,-298.65 919.6,-305.47"/>
<text text-anchor="middle" x="878.05" y="-296" font-family="Helvetica,sans-Serif" font-size="10.00">yes</text>
</g>
<!-- 14 -->
<g id="node11" class="node">
<title>14</title>
<ellipse fill="#eef3fb" stroke="black" cx="964.39" cy="-258" rx="61.17" ry="18"/>
<text text-anchor="middle" x="964.39" y="-255.2" font-family="Helvetica,sans-Serif" font-size="11.00">obs_38 ≤ 0.366</text>
</g>
<!-- 8&#45;&gt;14 -->
<g id="edge10" class="edge">
<title>8&#45;&gt;14</title>
<path fill="none" stroke="#555555" d="M848.61,-266.42C863.43,-265.33 879.32,-264.16 894.42,-263.06"/>
<polygon fill="#555555" stroke="#555555" points="895,-266.52 904.71,-262.3 894.48,-259.54 895,-266.52"/>
<text text-anchor="middle" x="878.05" y="-267" font-family="Helvetica,sans-Serif" font-size="10.00">no</text>
</g>
<!-- 15 -->
<g id="node12" class="node">
<title>15</title>
<path fill="#f5b7ff" stroke="black" d="M1163.27,-328C1163.27,-328 1119.27,-328 1119.27,-328 1113.27,-328 1107.27,-322 1107.27,-316 1107.27,-316 1107.27,-304 1107.27,-304 1107.27,-298 1113.27,-292 1119.27,-292 1119.27,-292 1163.27,-292 1163.27,-292 1169.27,-292 1175.27,-298 1175.27,-304 1175.27,-304 1175.27,-316 1175.27,-316 1175.27,-322 1169.27,-328 1163.27,-328"/>
<text text-anchor="middle" x="1141.27" y="-313.2" font-family="Helvetica,sans-Serif" font-size="11.00">action 45</text>
<text text-anchor="middle" x="1141.27" y="-301.2" font-family="Helvetica,sans-Serif" font-size="11.00">p=0.44</text>
</g>
<!-- 14&#45;&gt;15 -->
<g id="edge11" class="edge">
<title>14&#45;&gt;15</title>
<path fill="none" stroke="#555555" d="M1008.17,-270.72C1035.37,-278.81 1070.45,-289.24 1097.62,-297.32"/>
<polygon fill="#555555" stroke="#555555" points="1096.66,-300.68 1107.24,-300.18 1098.66,-293.97 1096.66,-300.68"/>
<text text-anchor="middle" x="1050.73" y="-288" font-family="Helvetica,sans-Serif" font-size="10.00">yes</text>
</g>
<!-- 16 -->
<g id="node13" class="node">
<title>16</title>
<path fill="#f5b7ff" stroke="black" d="M1163.27,-274C1163.27,-274 1119.27,-274 1119.27,-274 1113.27,-274 1107.27,-268 1107.27,-262 1107.27,-262 1107.27,-250 1107.27,-250 1107.27,-244 1113.27,-238 1119.27,-238 1119.27,-238 1163.27,-238 1163.27,-238 1169.27,-238 1175.27,-244 1175.27,-250 1175.27,-250 1175.27,-262 1175.27,-262 1175.27,-268 1169.27,-274 1163.27,-274"/>
<text text-anchor="middle" x="1141.27" y="-259.2" font-family="Helvetica,sans-Serif" font-size="11.00">action 45</text>
<text text-anchor="middle" x="1141.27" y="-247.2" font-family="Helvetica,sans-Serif" font-size="11.00">p=0.53</text>
</g>
<!-- 14&#45;&gt;16 -->
<g id="edge12" class="edge">
<title>14&#45;&gt;16</title>
<path fill="none" stroke="#555555" d="M1026.06,-257.31C1049.46,-257.04 1075.69,-256.74 1097.11,-256.49"/>
<polygon fill="#555555" stroke="#555555" points="1097.24,-259.99 1107.2,-256.38 1097.16,-252.99 1097.24,-259.99"/>
<text text-anchor="middle" x="1050.73" y="-260" font-family="Helvetica,sans-Serif" font-size="10.00">no</text>
</g>
<!-- 17 -->
<g id="node18" class="node">
<title>17</title>
<ellipse fill="#eef3fb" stroke="black" cx="599.2" cy="-126" rx="61.17" ry="18"/>
<text text-anchor="middle" x="599.2" y="-123.2" font-family="Helvetica,sans-Serif" font-size="11.00">obs_125 ≤ 4.55</text>
</g>
<!-- 11&#45;&gt;17 -->
<g id="edge17" class="edge">
<title>11&#45;&gt;17</title>
<path fill="none" stroke="#555555" d="M473.04,-126C490.47,-126 509.62,-126 527.6,-126"/>
<polygon fill="#555555" stroke="#555555" points="527.73,-129.5 537.73,-126 527.73,-122.5 527.73,-129.5"/>
<text text-anchor="middle" x="506.25" y="-129" font-family="Helvetica,sans-Serif" font-size="10.00">yes</text>
</g>
<!-- 18 -->
<g id="node19" class="node">
<title>18</title>
<ellipse fill="#eef3fb" stroke="black" cx="599.2" cy="-72" rx="61.17" ry="18"/>
<text text-anchor="middle" x="599.2" y="-69.2" font-family="Helvetica,sans-Serif" font-size="11.00">obs_40 ≤ 0.495</text>
</g>
<!-- 11&#45;&gt;18 -->
<g id="edge18" class="edge">
<title>11&#45;&gt;18</title>
<path fill="none" stroke="#555555" d="M455.56,-113.48C482.31,-105.7 516.87,-95.65 545.27,-87.39"/>
<polygon fill="#555555" stroke="#555555" points="546.42,-90.7 555.04,-84.55 544.46,-83.98 546.42,-90.7"/>
<text text-anchor="middle" x="506.25" y="-103" font-family="Helvetica,sans-Serif" font-size="10.00">no</text>
</g>
<!-- 23 -->
<g id="node20" class="node">
<title>23</title>
<ellipse fill="#eef3fb" stroke="black" cx="785.1" cy="-180" rx="46.81" ry="18"/>
<text text-anchor="middle" x="785.1" y="-177.2" font-family="Helvetica,sans-Serif" font-size="11.00">obs_44 ≤ 6</text>
</g>
<!-- 17&#45;&gt;23 -->
<g id="edge19" class="edge">
<title>17&#45;&gt;23</title>
<path fill="none" stroke="#555555" d="M643.32,-138.66C671.62,-146.97 708.61,-157.83 737.57,-166.34"/>
<polygon fill="#555555" stroke="#555555" points="736.88,-169.78 747.46,-169.24 738.85,-163.06 736.88,-169.78"/>
<text text-anchor="middle" x="692.15" y="-157" font-family="Helvetica,sans-Serif" font-size="10.00">yes</text>
</g>
<!-- 24 -->
<g id="node21" class="node">
<title>24</title>
<path fill="#ffb7c9" stroke="black" d="M807.1,-144C807.1,-144 763.1,-144 763.1,-144 757.1,-144 751.1,-138 751.1,-132 751.1,-132 751.1,-120 751.1,-120 751.1,-114 757.1,-108 763.1,-108 763.1,-108 807.1,-108 807.1,-108 813.1,-108 819.1,-114 819.1,-120 819.1,-120 819.1,-132 819.1,-132 819.1,-138 813.1,-144 807.1,-144"/>
<text text-anchor="middle" x="785.1" y="-129.2" font-family="Helvetica,sans-Serif" font-size="11.00">action 42</text>
<text text-anchor="middle" x="785.1" y="-117.2" font-family="Helvetica,sans-Serif" font-size="11.00">p=0.33</text>
</g>
<!-- 17&#45;&gt;24 -->
<g id="edge20" class="edge">
<title>17&#45;&gt;24</title>
<path fill="none" stroke="#555555" d="M660.67,-126C686.84,-126 716.89,-126 740.78,-126"/>
<polygon fill="#555555" stroke="#555555" points="740.95,-129.5 750.95,-126 740.95,-122.5 740.95,-129.5"/>
<text text-anchor="middle" x="692.15" y="-129" font-family="Helvetica,sans-Serif" font-size="10.00">no</text>
</g>
<!-- 19 -->
<g id="node28" class="node">
<title>19</title>
<ellipse fill="#eef3fb" stroke="black" cx="785.1" cy="-72" rx="67.9" ry="18"/>
<text text-anchor="middle" x="785.1" y="-69.2" font-family="Helvetica,sans-Serif" font-size="11.00">obs_83 ≤ &#45;0.0447</text>
</g>
<!-- 18&#45;&gt;19 -->
<g id="edge27" class="edge">
<title>18&#45;&gt;19</title>
<path fill="none" stroke="#555555" d="M660.67,-72C675.44,-72 691.44,-72 706.88,-72"/>
<polygon fill="#555555" stroke="#555555" points="706.92,-75.5 716.92,-72 706.92,-68.5 706.92,-75.5"/>
<text text-anchor="middle" x="692.15" y="-75" font-family="Helvetica,sans-Serif" font-size="10.00">yes</text>
</g>
<!-- 20 -->
<g id="node29" class="node">
<title>20</title>
<path fill="#b7fff8" stroke="black" d="M807.1,-36C807.1,-36 763.1,-36 763.1,-36 757.1,-36 751.1,-30 751.1,-24 751.1,-24 751.1,-12 751.1,-12 751.1,-6 757.1,0 763.1,0 763.1,0 807.1,0 807.1,0 813.1,0 819.1,-6 819.1,-12 819.1,-12 819.1,-24 819.1,-24 819.1,-30 813.1,-36 807.1,-36"/>
<text text-anchor="middle" x="785.1" y="-21.2" font-family="Helvetica,sans-Serif" font-size="11.00">action 38</text>
<text text-anchor="middle" x="785.1" y="-9.2" font-family="Helvetica,sans-Serif" font-size="11.00">p=0.73</text>
</g>
<!-- 18&#45;&gt;20 -->
<g id="edge28" class="edge">
<title>18&#45;&gt;20</title>
<path fill="none" stroke="#555555" d="M643.32,-59.34C672.88,-50.66 711.94,-39.19 741.42,-30.53"/>
<polygon fill="#555555" stroke="#555555" points="742.41,-33.89 751.02,-27.71 740.44,-27.17 742.41,-33.89"/>
<text text-anchor="middle" x="692.15" y="-50" font-family="Helvetica,sans-Serif" font-size="10.00">no</text>
</g>
<!-- 25 -->
<g id="node22" class="node">
<title>25</title>
<ellipse fill="#eef3fb" stroke="black" cx="964.39" cy="-197" rx="57.25" ry="18"/>
<text text-anchor="middle" x="964.39" y="-194.2" font-family="Helvetica,sans-Serif" font-size="11.00">obs_55 ≤ 5.61</text>
</g>
<!-- 23&#45;&gt;25 -->
<g id="edge21" class="edge">
<title>23&#45;&gt;25</title>
<path fill="none" stroke="#555555" d="M830.84,-184.29C851.57,-186.28 876.58,-188.68 899.26,-190.85"/>
<polygon fill="#555555" stroke="#555555" points="899.21,-194.36 909.5,-191.83 899.88,-187.39 899.21,-194.36"/>
<text text-anchor="middle" x="878.05" y="-192" font-family="Helvetica,sans-Serif" font-size="10.00">yes</text>
</g>
<!-- 26 -->
<g id="node23" class="node">
<title>26</title>
<path fill="#b7bdff" stroke="black" d="M986.39,-161C986.39,-161 942.39,-161 942.39,-161 936.39,-161 930.39,-155 930.39,-149 930.39,-149 930.39,-137 930.39,-137 930.39,-131 936.39,-125 942.39,-125 942.39,-125 986.39,-125 986.39,-125 992.39,-125 998.39,-131 998.39,-137 998.39,-137 998.39,-149 998.39,-149 998.39,-155 992.39,-161 986.39,-161"/>
<text text-anchor="middle" x="964.39" y="-146.2" font-family="Helvetica,sans-Serif" font-size="11.00">action 14</text>
<text text-anchor="middle" x="964.39" y="-134.2" font-family="Helvetica,sans-Serif" font-size="11.00">p=0.32</text>
</g>
<!-- 23&#45;&gt;26 -->
<g id="edge22" class="edge">
<title>23&#45;&gt;26</title>
<path fill="none" stroke="#555555" d="M826.78,-171.51C854.73,-165.68 891.78,-157.94 920.25,-152"/>
<polygon fill="#555555" stroke="#555555" points="921.24,-155.37 930.32,-149.9 919.81,-148.52 921.24,-155.37"/>
<text text-anchor="middle" x="878.05" y="-165" font-family="Helvetica,sans-Serif" font-size="10.00">no</text>
</g>
<!-- 27 -->
<g id="node24" class="node">
<title>27</title>
<path fill="#ffb7b7" stroke="black" d="M1159.77,-218C1159.77,-218 1122.77,-218 1122.77,-218 1116.77,-218 1110.77,-212 1110.77,-206 1110.77,-206 1110.77,-194 1110.77,-194 1110.77,-188 1116.77,-182 1122.77,-182 1122.77,-182 1159.77,-182 1159.77,-182 1165.77,-182 1171.77,-188 1171.77,-194 1171.77,-194 1171.77,-206 1171.77,-206 1171.77,-212 1165.77,-218 1159.77,-218"/>
<text text-anchor="middle" x="1141.27" y="-203.2" font-family="Helvetica,sans-Serif" font-size="11.00">action 0</text>
<text text-anchor="middle" x="1141.27" y="-191.2" font-family="Helvetica,sans-Serif" font-size="11.00">p=0.04</text>
</g>
<!-- 25&#45;&gt;27 -->
<g id="edge23" class="edge">
<title>25&#45;&gt;27</title>
<path fill="none" stroke="#555555" d="M1021.69,-197.97C1047.32,-198.41 1077.05,-198.92 1100.34,-199.31"/>
<polygon fill="#555555" stroke="#555555" points="1100.48,-202.82 1110.54,-199.49 1100.6,-195.82 1100.48,-202.82"/>
<text text-anchor="middle" x="1050.73" y="-201" font-family="Helvetica,sans-Serif" font-size="10.00">yes</text>
</g>
<!-- 28 -->
<g id="node25" class="node">
<title>28</title>
<ellipse fill="#eef3fb" stroke="black" cx="1141.27" cy="-146" rx="65.59" ry="18"/>
<text text-anchor="middle" x="1141.27" y="-143.2" font-family="Helvetica,sans-Serif" font-size="11.00">obs_141 ≤ 0.405</text>
</g>
<!-- 25&#45;&gt;28 -->
<g id="edge24" class="edge">
<title>25&#45;&gt;28</title>
<path fill="none" stroke="#555555" d="M1006.83,-184.91C1030.46,-178.02 1060.36,-169.3 1085.86,-161.87"/>
<polygon fill="#555555" stroke="#555555" points="1087.14,-165.14 1095.76,-158.98 1085.18,-158.42 1087.14,-165.14"/>
<text text-anchor="middle" x="1050.73" y="-177" font-family="Helvetica,sans-Serif" font-size="10.00">no</text>
</g>
<!-- 29 -->
<g id="node26" class="node">
<title>29</title>
<path fill="#ffbdb7" stroke="black" d="M1312.82,-191C1312.82,-191 1268.82,-191 1268.82,-191 1262.82,-191 1256.82,-185 1256.82,-179 1256.82,-179 1256.82,-167 1256.82,-167 1256.82,-161 1262.82,-155 1268.82,-155 1268.82,-155 1312.82,-155 1312.82,-155 1318.82,-155 1324.82,-161 1324.82,-167 1324.82,-167 1324.82,-179 1324.82,-179 1324.82,-185 1318.82,-191 1312.82,-191"/>
<text text-anchor="middle" x="1290.82" y="-176.2" font-family="Helvetica,sans-Serif" font-size="11.00">action 34</text>
<text text-anchor="middle" x="1290.82" y="-164.2" font-family="Helvetica,sans-Serif" font-size="11.00">p=0.04</text>
</g>
<!-- 28&#45;&gt;29 -->
<g id="edge25" class="edge">
<title>28&#45;&gt;29</title>
<path fill="none" stroke="#555555" d="M1196.37,-155.9C1212.97,-158.94 1231,-162.24 1246.76,-165.12"/>
<polygon fill="#555555" stroke="#555555" points="1246.28,-168.59 1256.74,-166.95 1247.54,-161.7 1246.28,-168.59"/>
<text text-anchor="middle" x="1231.82" y="-166" font-family="Helvetica,sans-Serif" font-size="10.00">yes</text>
</g>
<!-- 30 -->
<g id="node27" class="node">
<title>30</title>
<path fill="#ffbdb7" stroke="black" d="M1312.82,-137C1312.82,-137 1268.82,-137 1268.82,-137 1262.82,-137 1256.82,-131 1256.82,-125 1256.82,-125 1256.82,-113 1256.82,-113 1256.82,-107 1262.82,-101 1268.82,-101 1268.82,-101 1312.82,-101 1312.82,-101 1318.82,-101 1324.82,-107 1324.82,-113 1324.82,-113 1324.82,-125 1324.82,-125 1324.82,-131 1318.82,-137 1312.82,-137"/>
<text text-anchor="middle" x="1290.82" y="-122.2" font-family="Helvetica,sans-Serif" font-size="11.00">action 34</text>
<text text-anchor="middle" x="1290.82" y="-110.2" font-family="Helvetica,sans-Serif" font-size="11.00">p=0.62</text>
</g>
<!-- 28&#45;&gt;30 -->
<g id="edge26" class="edge">
<title>28&#45;&gt;30</title>
<path fill="none" stroke="#555555" d="M1196.37,-136.1C1212.97,-133.06 1231,-129.76 1246.76,-126.88"/>
<polygon fill="#555555" stroke="#555555" points="1247.54,-130.3 1256.74,-125.05 1246.28,-123.41 1247.54,-130.3"/>
<text text-anchor="middle" x="1231.82" y="-133" font-family="Helvetica,sans-Serif" font-size="10.00">no</text>
</g>
<!-- 21 -->
<g id="node30" class="node">
<title>21</title>
<path fill="#f3ffb7" stroke="black" d="M986.39,-99C986.39,-99 942.39,-99 942.39,-99 936.39,-99 930.39,-93 930.39,-87 930.39,-87 930.39,-75 930.39,-75 930.39,-69 936.39,-63 942.39,-63 942.39,-63 986.39,-63 986.39,-63 992.39,-63 998.39,-69 998.39,-75 998.39,-75 998.39,-87 998.39,-87 998.39,-93 992.39,-99 986.39,-99"/>
<text text-anchor="middle" x="964.39" y="-84.2" font-family="Helvetica,sans-Serif" font-size="11.00">action 44</text>
<text text-anchor="middle" x="964.39" y="-72.2" font-family="Helvetica,sans-Serif" font-size="11.00">p=0.04</text>
</g>
<!-- 19&#45;&gt;21 -->
<g id="edge29" class="edge">
<title>19&#45;&gt;21</title>
<path fill="none" stroke="#555555" d="M852.12,-75.35C874.75,-76.5 899.5,-77.76 919.89,-78.79"/>
<polygon fill="#555555" stroke="#555555" points="919.96,-82.3 930.13,-79.31 920.32,-75.31 919.96,-82.3"/>
<text text-anchor="middle" x="878.05" y="-81" font-family="Helvetica,sans-Serif" font-size="10.00">yes</text>
</g>
<!-- 22 -->
<g id="node31" class="node">
<title>22</title>
<path fill="#ffb7c9" stroke="black" d="M986.39,-45C986.39,-45 942.39,-45 942.39,-45 936.39,-45 930.39,-39 930.39,-33 930.39,-33 930.39,-21 930.39,-21 930.39,-15 936.39,-9 942.39,-9 942.39,-9 986.39,-9 986.39,-9 992.39,-9 998.39,-15 998.39,-21 998.39,-21 998.39,-33 998.39,-33 998.39,-39 992.39,-45 986.39,-45"/>
<text text-anchor="middle" x="964.39" y="-30.2" font-family="Helvetica,sans-Serif" font-size="11.00">action 42</text>
<text text-anchor="middle" x="964.39" y="-18.2" font-family="Helvetica,sans-Serif" font-size="11.00">p=0.52</text>
</g>
<!-- 19&#45;&gt;22 -->
<g id="edge30" class="edge">
<title>19&#45;&gt;22</title>
<path fill="none" stroke="#555555" d="M835.02,-59.58C861.8,-52.79 894.68,-44.44 920.46,-37.9"/>
<polygon fill="#555555" stroke="#555555" points="921.49,-41.25 930.32,-35.39 919.77,-34.46 921.49,-41.25"/>
<text text-anchor="middle" x="878.05" y="-54" font-family="Helvetica,sans-Serif" font-size="10.00">no</text>
</g>
</g>
</svg>
