<?xml version="1.0" encoding="UTF-8" standalone="no"?>
<!DOCTYPE svg PUBLIC "-//W3C//DTD SVG 1.1//EN"
 "http://www.w3.org/Graphics/SVG/1.1/DTD/svg11.dtd">
<!-- Generated by graphviz version 2.43.0 (0)
 -->
<!-- Title: dtpo Pages: 1 -->
<svg width="1306pt" height="368pt"
 viewBox="0.00 0.00 1306.36 368.00" xmlns="http://www.w3.org/2000/svg" xmlns:xlink="http://www.w3.org/1999/xlink">
<g id="graph0" class="graph" transform="scale(1 1) rotate(0) translate(4 364)">
<title>dtpo</title>
<polygon fill="white" stroke="transparent" points="-4,4 -4,-364 1302.36,-364 1302.36,4 -4,4"/>
<!-- 0 -->
<g id="node1" class="node">
<title>0</title>
<ellipse fill="#eef3fb" stroke="black" cx="61.34" cy="-207" rx="61.17" ry="18"/>
<text text-anchor="middle" x="61.34" y="-204.2" font-family="Helvetica,sans-Serif" font-size="11.00">obs_261 ≤ 1.97</text>
</g>
<!-- 1 -->
<g id="node2" class="node">
<title>1</title>
<ellipse fill="#eef3fb" stroke="black" cx="236.41" cy="-234" rx="61.17" ry="18"/>
<text text-anchor="middle" x="236.41" y="-231.2" font-family="Helvetica,sans-Serif" font-size="11.00">obs_488 ≤ 3.82</text>
</g>
<!-- 0&#45;&gt;1 -->
<g id="edge1" class="edge">
<title>0&#45;&gt;1</title>
<path fill="none" stroke="#555555" d="M116.15,-215.39C133.82,-218.15 153.62,-221.24 171.93,-224.1"/>
<polygon fill="#555555" stroke="#555555" points="171.51,-227.57 181.93,-225.66 172.59,-220.66 171.51,-227.57"/>
<text text-anchor="middle" x="147.67" y="-224" font-family="Helvetica,sans-Serif" font-size="10.00">yes</text>
</g>
<!-- 2 -->
<g id="node3" class="node">
<title>2</title>
<ellipse fill="#eef3fb" stroke="black" cx="236.41" cy="-180" rx="63.98" ry="18"/>
<text text-anchor="middle" x="236.41" y="-177.2" font-family="Helvetica,sans-Serif" font-size="11.00">obs_408 ≤ &#45;0.48</text>
</g>
<!-- 0&#45;&gt;2 -->
<g id="edge2" class="edge">
<title>0&#45;&gt;2</title>
<path fill="none" stroke="#555555" d="M116.15,-198.61C133.16,-195.95 152.14,-192.99 169.87,-190.22"/>
<polygon fill="#555555" stroke="#555555" points="170.8,-193.62 180.14,-188.62 169.72,-186.71 170.8,-193.62"/>
<text text-anchor="middle" x="147.67" y="-197" font-family="Helvetica,sans-Serif" font-size="10.00">no</text>
</g>
<!-- 3 -->
<g id="node4" class="node">
<title>3</title>
<path fill="#ffb7b7" stroke="black" d="M429.99,-306C429.99,-306 392.99,-306 392.99,-306 386.99,-306 380.99,-300 380.99,-294 380.99,-294 380.99,-282 380.99,-282 380.99,-276 386.99,-270 392.99,-270 392.99,-270 429.99,-270 429.99,-270 435.99,-270 441.99,-276 441.99,-282 441.99,-282 441.99,-294 441.99,-294 441.99,-300 435.99,-306 429.99,-306"/>
<text text-anchor="middle" x="411.49" y="-291.2" font-family="Helvetica,sans-Serif" font-size="11.00">action 0</text>
<text text-anchor="middle" x="411.49" y="-279.2" font-family="Helvetica,sans-Serif" font-size="11.00">p=0.99</text>
</g>
<!-- 1&#45;&gt;3 -->
<g id="edge3" class="edge">
<title>1&#45;&gt;3</title>
<path fill="none" stroke="#555555" d="M279.31,-247.07C307.29,-255.8 343.84,-267.2 371.25,-275.76"/>
<polygon fill="#555555" stroke="#555555" points="370.32,-279.13 380.91,-278.77 372.4,-272.45 370.32,-279.13"/>
<text text-anchor="middle" x="325.16" y="-265" font-family="Helvetica,sans-Serif" font-size="10.00">yes</text>
</g>
<!-- 4 -->
<g id="node5" class="node">
<title>4</title>
<ellipse fill="#eef3fb" stroke="black" cx="411.49" cy="-234" rx="61.17" ry="18"/>
<text text-anchor="middle" x="411.49" y="-231.2" font-family="Helvetica,sans-Serif" font-size="11.00">obs_380 ≤ 1.02</text>
</g>
<!-- 1&#45;&gt;4 -->
<g id="edge4" class="edge">
<title>1&#45;&gt;4</title>
<path fill="none" stroke="#555555" d="M297.95,-234C311.52,-234 326.03,-234 339.97,-234"/>
<polygon fill="#555555" stroke="#555555" points="339.99,-237.5 349.99,-234 339.99,-230.5 339.99,-237.5"/>
<text text-anchor="middle" x="325.16" y="-237" font-family="Helvetica,sans-Serif" font-size="10.00">no</text>
</g>
<!-- 7 -->
<g id="node14" class="node">
<title>7</title>
<path fill="#b7edff" stroke="black" d="M433.49,-198C433.49,-198 389.49,-198 389.49,-198 383.49,-198 377.49,-192 377.49,-186 377.49,-186 377.49,-174 377.49,-174 377.49,-168 383.49,-162 389.49,-162 389.49,-162 433.49,-162 433.49,-162 439.49,-162 445.49,-168 445.49,-174 445.49,-174 445.49,-186 445.49,-186 445.49,-192 439.49,-198 433.49,-198"/>
<text text-anchor="middle" x="411.49" y="-183.2" font-family="Helvetica,sans-Serif" font-size="11.00">action 30</text>
<text text-anchor="middle" x="411.49" y="-171.2" font-family="Helvetica,sans-Serif" font-size="11.00">p=0.88</text>
</g>
<!-- 2&#45;&gt;7 -->
<g id="edge13" class="edge">
<title>2&#45;&gt;7</title>
<path fill="none" stroke="#555555" d="M300.39,-180C322.61,-180 347.08,-180 367.29,-180"/>
<polygon fill="#555555" stroke="#555555" points="367.44,-183.5 377.44,-180 367.44,-176.5 367.44,-183.5"/>
<text text-anchor="middle" x="325.16" y="-183" font-family="Helvetica,sans-Serif" font-size="10.00">yes</text>
</g>
<!-- 8 -->
<g id="node15" class="node">
<title>8</title>
<ellipse fill="#eef3fb" stroke="black" cx="411.49" cy="-126" rx="61.17" ry="18"/>
<text text-anchor="middle" x="411.49" y="-123.2" font-family="Helvetica,sans-Serif" font-size="11.00">obs_255 ≤ 1.71</text>
</g>
<!-- 2&#45;&gt;8 -->
<g id="edge14" class="edge">
<title>2&#45;&gt;8</title>
<path fill="none" stroke="#555555" d="M279.75,-166.79C303.7,-159.32 333.81,-149.92 359.1,-142.03"/>
<polygon fill="#555555" stroke="#555555" points="360.39,-145.3 368.89,-138.98 358.3,-138.62 360.39,-145.3"/>
<text text-anchor="middle" x="325.16" y="-157" font-family="Helvetica,sans-Serif" font-size="10.00">no</text>
</g>
<!-- 5 -->
<g id="node6" class="node">
<title>5</title>
<path fill="#b7edff" stroke="black" d="M606.17,-306C606.17,-306 562.17,-306 562.17,-306 556.17,-306 550.17,-300 550.17,-294 550.17,-294 550.17,-282 550.17,-282 550.17,-276 556.17,-270 562.17,-270 562.17,-270 606.17,-270 606.17,-270 612.17,-270 618.17,-276 618.17,-282 618.17,-282 618.17,-294 618.17,-294 618.17,-300 612.17,-306 606.17,-306"/>
<text text-anchor="middle" x="584.17" y="-291.2" font-family="Helvetica,sans-Serif" font-size="11.00">action 30</text>
<text text-anchor="middle" x="584.17" y="-279.2" font-family="Helvetica,sans-Serif" font-size="11.00">p=0.93</text>
</g>
<!-- 4&#45;&gt;5 -->
<g id="edge5" class="edge">
<title>4&#45;&gt;5</title>
<path fill="none" stroke="#555555" d="M453.81,-247.07C479.96,-255.35 513.72,-266.03 540.19,-274.4"/>
<polygon fill="#555555" stroke="#555555" points="539.36,-277.81 549.95,-277.49 541.47,-271.14 539.36,-277.81"/>
<text text-anchor="middle" x="497.83" y="-265" font-family="Helvetica,sans-Serif" font-size="10.00">yes</text>
</g>
<!-- 6 -->
<g id="node7" class="node">
<title>6</title>
<ellipse fill="#eef3fb" stroke="black" cx="584.17" cy="-234" rx="61.17" ry="18"/>
<text text-anchor="middle" x="584.17" y="-231.2" font-family="Helvetica,sans-Serif" font-size="11.00">obs_259 ≤ 1.12</text>
</g>
<!-- 4&#45;&gt;6 -->
<g id="edge6" class="edge">
<title>4&#45;&gt;6</title>
<path fill="none" stroke="#555555" d="M473.15,-234C485.85,-234 499.35,-234 512.38,-234"/>
<polygon fill="#555555" stroke="#555555" points="512.71,-237.5 522.71,-234 512.71,-230.5 512.71,-237.5"/>
<text text-anchor="middle" x="497.83" y="-237" font-family="Helvetica,sans-Serif" font-size="10.00">no</text>
</g>
<!-- 9 -->
<g id="node8" class="node">
<title>9</title>
<path fill="#ffb7b7" stroke="black" d="M777.74,-306C777.74,-306 740.74,-306 740.74,-306 734.74,-306 728.74,-300 728.74,-294 728.74,-294 728.74,-282 728.74,-282 728.74,-276 734.74,-270 740.74,-270 740.74,-270 777.74,-270 777.74,-270 783.74,-270 789.74,-276 789.74,-282 789.74,-282 789.74,-294 789.74,-294 789.74,-300 783.74,-306 777.74,-306"/>
<text text-anchor="middle" x="759.24" y="-291.2" font-family="Helvetica,sans-Serif" font-size="11.00">action 0</text>
<text text-anchor="middle" x="759.24" y="-279.2" font-family="Helvetica,sans-Serif" font-size="11.00">p=0.97</text>
</g>
<!-- 6&#45;&gt;9 -->
<g id="edge7" class="edge">
<title>6&#45;&gt;9</title>
<path fill="none" stroke="#555555" d="M627.06,-247.07C655.04,-255.8 691.59,-267.2 719,-275.76"/>
<polygon fill="#555555" stroke="#555555" points="718.07,-279.13 728.66,-278.77 720.15,-272.45 718.07,-279.13"/>
<text text-anchor="middle" x="670.5" y="-265" font-family="Helvetica,sans-Serif" font-size="10.00">yes</text>
</g>
<!-- 10 -->
<g id="node9" class="node">
<title>10</title>
<ellipse fill="#eef3fb" stroke="black" cx="759.24" cy="-234" rx="61.17" ry="18"/>
<text text-anchor="middle" x="759.24" y="-231.2" font-family="Helvetica,sans-Serif" font-size="11.00">obs_191 ≤ 1.75</text>
</g>
<!-- 6&#45;&gt;10 -->
<g id="edge8" class="edge">
<title>6&#45;&gt;10</title>
<path fill="none" stroke="#555555" d="M645.7,-234C659.27,-234 673.78,-234 687.72,-234"/>
<polygon fill="#555555" stroke="#555555" points="687.74,-237.5 697.74,-234 687.74,-230.5 687.74,-237.5"/>
<text text-anchor="middle" x="670.5" y="-237" font-family="Helvetica,sans-Serif" font-size="10.00">no</text>
</g>
<!-- 21 -->
<g id="node10" class="node">
<title>21</title>
<ellipse fill="#eef3fb" stroke="black" cx="944.55" cy="-288" rx="71.62" ry="18"/>
<text text-anchor="middle" x="944.55" y="-285.2" font-family="Helvetica,sans-Serif" font-size="11.00">obs_487 ≤ &#45;0.0523</text>
</g>
<!-- 10&#45;&gt;21 -->
<g id="edge9" class="edge">
<title>10&#45;&gt;21</title>
<path fill="none" stroke="#555555" d="M803.22,-246.66C828.38,-254.07 860.44,-263.52 887.56,-271.51"/>
<polygon fill="#555555" stroke="#555555" points="886.73,-274.91 897.31,-274.38 888.71,-268.2 886.73,-274.91"/>
<text text-anchor="middle" x="847.99" y="-264" font-family="Helvetica,sans-Serif" font-size="10.00">yes</text>
</g>
<!-- 22 -->
<g id="node11" class="node">
<title>22</title>
<path fill="#ffb7d8" stroke="black" d="M966.55,-252C966.55,-252 922.55,-252 922.55,-252 916.55,-252 910.55,-246 910.55,-240 910.55,-240 910.55,-228 910.55,-228 910.55,-222 916.55,-216 922.55,-216 922.55,-216 966.55,-216 966.55,-216 972.55,-216 978.55,-222 978.55,-228 978.55,-228 978.55,-240 978.55,-240 978.55,-246 972.55,-252 966.55,-252"/>
<text text-anchor="middle" x="944.55" y="-237.2" font-family="Helvetica,sans-Serif" font-size="11.00">action 29</text>
<text text-anchor="middle" x="944.55" y="-225.2" font-family="Helvetica,sans-Serif" font-size="11.00">p=0.49</text>
</g>
<!-- 10&#45;&gt;22 -->
<g id="edge10" class="edge">
<title>10&#45;&gt;22</title>
<path fill="none" stroke="#555555" d="M820.77,-234C846.75,-234 876.52,-234 900.23,-234"/>
<polygon fill="#555555" stroke="#555555" points="900.33,-237.5 910.33,-234 900.33,-230.5 900.33,-237.5"/>
<text text-anchor="middle" x="847.99" y="-237" font-family="Helvetica,sans-Serif" font-size="10.00">no</text>
</g>
<!-- 29 -->
<g id="node12" class="node">
<title>29</title>
<path fill="#b7edff" stroke="black" d="M1145.23,-360C1145.23,-360 1101.23,-360 1101.23,-360 1095.23,-360 1089.23,-354 1089.23,-348 1089.23,-348 1089.23,-336 1089.23,-336 1089.23,-330 1095.23,-324 1101.23,-324 1101.23,-324 1145.23,-324 1145.23,-324 1151.23,-324 1157.23,-330 1157.23,-336 1157.23,-336 1157.23,-348 1157.23,-348 1157.23,-354 1151.23,-360 1145.23,-360"/>
<text text-anchor="middle" x="1123.23" y="-345.2" font-family="Helvetica,sans-Serif" font-size="11.00">action 30</text>
<text text-anchor="middle" x="1123.23" y="-333.2" font-family="Helvetica,sans-Serif" font-size="11.00">p=0.63</text>
</g>
<!-- 21&#45;&gt;29 -->
<g id="edge11" class="edge">
<title>21&#45;&gt;29</title>
<path fill="none" stroke="#555555" d="M991.05,-301.91C1018.25,-310.22 1052.59,-320.72 1079.32,-328.89"/>
<polygon fill="#555555" stroke="#555555" points="1078.57,-332.32 1089.16,-331.89 1080.62,-325.62 1078.57,-332.32"/>
<text text-anchor="middle" x="1041.1" y="-322" font-family="Helvetica,sans-Serif" font-size="10.00">yes</text>
</g>
<!-- 30 -->
<g id="node13" class="node">
<title>30</title>
<path fill="#f5b7ff" stroke="black" d="M1145.23,-306C1145.23,-306 1101.23,-306 1101.23,-306 1095.23,-306 1089.23,-300 1089.23,-294 1089.23,-294 1089.23,-282 1089.23,-282 1089.23,-276 1095.23,-270 1101.23,-270 1101.23,-270 1145.23,-270 1145.23,-270 1151.23,-270 1157.23,-276 1157.23,-282 1157.23,-282 1157.23,-294 1157.23,-294 1157.23,-300 1151.23,-306 1145.23,-306"/>
<text text-anchor="middle" x="1123.23" y="-291.2" font-family="Helvetica,sans-Serif" font-size="11.00">action 45</text>
<text text-anchor="middle" x="1123.23" y="-279.2" font-family="Helvetica,sans-Serif" font-size="11.00">p=1.00</text>
</g>
<!-- 21&#45;&gt;30 -->
<g id="edge12" class="edge">
<title>21&#45;&gt;30</title>
<path fill="none" stroke="#555555" d="M1016.14,-288C1037.39,-288 1060.06,-288 1078.98,-288"/>
<polygon fill="#555555" stroke="#555555" points="1079.06,-291.5 1089.06,-288 1079.06,-284.5 1079.06,-291.5"/>
<text text-anchor="middle" x="1041.1" y="-291" font-family="Helvetica,sans-Serif" font-size="10.00">no</text>
</g>
<!-- 11 -->
<g id="node16" class="node">
<title>11</title>
<ellipse fill="#eef3fb" stroke="black" cx="584.17" cy="-126" rx="61.17" ry="18"/>
<text text-anchor="middle" x="584.17" y="-123.2" font-family="Helvetica,sans-Serif" font-size="11.00">obs_193 ≤ 1.62</text>
</g>
<!-- 8&#45;&gt;11 -->
<g id="edge15" class="edge">
<title>8&#45;&gt;11</title>
<path fill="none" stroke="#555555" d="M473.15,-126C485.85,-126 499.35,-126 512.38,-126"/>
<polygon fill="#555555" stroke="#555555" points="512.71,-129.5 522.71,-126 512.71,-122.5 512.71,-129.5"/>
<text text-anchor="middle" x="497.83" y="-129" font-family="Helvetica,sans-Serif" font-size="10.00">yes</text>
</g>
<!-- 12 -->
<g id="node17" class="node">
<title>12</title>
<path fill="#ffb7b7" stroke="black" d="M602.67,-90C602.67,-90 565.67,-90 565.67,-90 559.67,-90 553.67,-84 553.67,-78 553.67,-78 553.67,-66 553.67,-66 553.67,-60 559.67,-54 565.67,-54 565.67,-54 602.67,-54 602.67,-54 608.67,-54 614.67,-60 614.67,-66 614.67,-66 614.67,-78 614.67,-78 614.67,-84 608.67,-90 602.67,-90"/>
<text text-anchor="middle" x="584.17" y="-75.2" font-family="Helvetica,sans-Serif" font-size="11.00">action 0</text>
<text text-anchor="middle" x="584.17" y="-63.2" font-family="Helvetica,sans-Serif" font-size="11.00">p=0.94</text>
</g>
<!-- 8&#45;&gt;12 -->
<g id="edge16" class="edge">
<title>8&#45;&gt;12</title>
<path fill="none" stroke="#555555" d="M453.81,-112.93C481.1,-104.29 516.67,-93.04 543.6,-84.52"/>
<polygon fill="#555555" stroke="#555555" points="544.98,-87.75 553.46,-81.4 542.87,-81.08 544.98,-87.75"/>
<text text-anchor="middle" x="497.83" y="-103" font-family="Helvetica,sans-Serif" font-size="10.00">no</text>
</g>
<!-- 13 -->
<g id="node18" class="node">
<title>13</title>
<ellipse fill="#eef3fb" stroke="black" cx="759.24" cy="-126" rx="57.25" ry="18"/>
<text text-anchor="middle" x="759.24" y="-123.2" font-family="Helvetica,sans-Serif" font-size="11.00">obs_18 ≤ 1.47</text>
</g>
<!-- 11&#45;&gt;13 -->
<g id="edge17" class="edge">
<title>11&#45;&gt;13</title>
<path fill="none" stroke="#555555" d="M645.7,-126C660.59,-126 676.61,-126 691.77,-126"/>
<polygon fill="#555555" stroke="#555555" points="692.1,-129.5 702.1,-126 692.1,-122.5 692.1,-129.5"/>
<text text-anchor="middle" x="670.5" y="-129" font-family="Helvetica,sans-Serif" font-size="10.00">yes</text>
</g>
<!-- 14 -->
<g id="node19" class="node">
<title>14</title>
<ellipse fill="#eef3fb" stroke="black" cx="759.24" cy="-72" rx="63.98" ry="18"/>
<text text-anchor="middle" x="759.24" y="-69.2" font-family="Helvetica,sans-Serif" font-size="11.00">obs_13 ≤ &#45;0.473</text>
</g>
<!-- 11&#45;&gt;14 -->
<g id="edge18" class="edge">
<title>11&#45;&gt;14</title>
<path fill="none" stroke="#555555" d="M627.06,-112.93C650.82,-105.52 680.76,-96.17 706.04,-88.29"/>
<polygon fill="#555555" stroke="#555555" points="707.33,-91.55 715.83,-85.23 705.24,-84.87 707.33,-91.55"/>
<text text-anchor="middle" x="670.5" y="-103" font-family="Helvetica,sans-Serif" font-size="10.00">no</text>
</g>
<!-- 17 -->
<g id="node20" class="node">
<title>17</title>
<ellipse fill="#eef3fb" stroke="black" cx="944.55" cy="-180" rx="61.17" ry="18"/>
<text text-anchor="middle" x="944.55" y="-177.2" font-family="Helvetica,sans-Serif" font-size="11.00">obs_257 ≤ 1.59</text>
</g>
<!-- 13&#45;&gt;17 -->
<g id="edge19" class="edge">
<title>13&#45;&gt;17</title>
<path fill="none" stroke="#555555" d="M801.84,-138.25C828.2,-146.02 862.53,-156.13 890.8,-164.46"/>
<polygon fill="#555555" stroke="#555555" points="889.94,-167.86 900.52,-167.33 891.92,-161.14 889.94,-167.86"/>
<text text-anchor="middle" x="847.99" y="-156" font-family="Helvetica,sans-Serif" font-size="10.00">yes</text>
</g>
<!-- 18 -->
<g id="node21" class="node">
<title>18</title>
<ellipse fill="#eef3fb" stroke="black" cx="944.55" cy="-126" rx="63.98" ry="18"/>
<text text-anchor="middle" x="944.55" y="-123.2" font-family="Helvetica,sans-Serif" font-size="11.00">obs_220 ≤ &#45;2.06</text>
</g>
<!-- 13&#45;&gt;18 -->
<g id="edge20" class="edge">
<title>13&#45;&gt;18</title>
<path fill="none" stroke="#555555" d="M816.49,-126C833.54,-126 852.54,-126 870.53,-126"/>
<polygon fill="#555555" stroke="#555555" points="870.69,-129.5 880.69,-126 870.69,-122.5 870.69,-129.5"/>
<text text-anchor="middle" x="847.99" y="-129" font-family="Helvetica,sans-Serif" font-size="10.00">no</text>
</g>
<!-- 15 -->
<g id="node30" class="node">
<title>15</title>
<path fill="#b7edff" stroke="black" d="M966.55,-90C966.55,-90 922.55,-90 922.55,-90 916.55,-90 910.55,-84 910.55,-78 910.55,-78 910.55,-66 910.55,-66 910.55,-60 916.55,-54 922.55,-54 922.55,-54 966.55,-54 966.55,-54 972.55,-54 978.55,-60 978.55,-66 978.55,-66 978.55,-78 978.55,-78 978.55,-84 972.55,-90 966.55,-90"/>
<text text-anchor="middle" x="944.55" y="-75.2" font-family="Helvetica,sans-Serif" font-size="11.00">action 30</text>
<text text-anchor="middle" x="944.55" y="-63.2" font-family="Helvetica,sans-Serif" font-size="11.00">p=0.82</text>
</g>
<!-- 14&#45;&gt;15 -->
<g id="edge29" class="edge">
<title>14&#45;&gt;15</title>
<path fill="none" stroke="#555555" d="M823.07,-72C848.5,-72 877.23,-72 900.26,-72"/>
<polygon fill="#555555" stroke="#555555" points="900.4,-75.5 910.4,-72 900.4,-68.5 900.4,-75.5"/>
<text text-anchor="middle" x="847.99" y="-75" font-family="Helvetica,sans-Serif" font-size="10.00">yes</text>
</g>
<!-- 16 -->
<g id="node31" class="node">
<title>16</title>
<path fill="#ffb7b7" stroke="black" d="M963.05,-36C963.05,-36 926.05,-36 926.05,-36 920.05,-36 914.05,-30 914.05,-24 914.05,-24 914.05,-12 914.05,-12 914.05,-6 920.05,0 926.05,0 926.05,0 963.05,0 963.05,0 969.05,0 975.05,-6 975.05,-12 975.05,-12 975.05,-24 975.05,-24 975.05,-30 969.05,-36 963.05,-36"/>
<text text-anchor="middle" x="944.55" y="-21.2" font-family="Helvetica,sans-Serif" font-size="11.00">action 0</text>
<text text-anchor="middle" x="944.55" y="-9.2" font-family="Helvetica,sans-Serif" font-size="11.00">p=0.64</text>
</g>
<!-- 14&#45;&gt;16 -->
<g id="edge30" class="edge">
<title>14&#45;&gt;16</title>
<path fill="none" stroke="#555555" d="M804.15,-59.07C834.56,-50.11 874.71,-38.28 904.1,-29.62"/>
<polygon fill="#555555" stroke="#555555" points="905.41,-32.88 914.02,-26.7 903.43,-26.17 905.41,-32.88"/>
<text text-anchor="middle" x="847.99" y="-52" font-family="Helvetica,sans-Serif" font-size="10.00">no</text>
</g>
<!-- 19 -->
<g id="node22" class="node">
<title>19</title>
<ellipse fill="#eef3fb" stroke="black" cx="1123.23" cy="-234" rx="57.25" ry="18"/>
<text text-anchor="middle" x="1123.23" y="-231.2" font-family="Helvetica,sans-Serif" font-size="11.00">obs_80 ≤ 1.69</text>
</g>
<!-- 17&#45;&gt;19 -->
<g id="edge21" class="edge">
<title>17&#45;&gt;19</title>
<path fill="none" stroke="#555555" d="M987.87,-192.93C1013.03,-200.63 1045.11,-210.43 1071.61,-218.53"/>
<polygon fill="#555555" stroke="#555555" points="1070.89,-221.97 1081.47,-221.54 1072.93,-215.27 1070.89,-221.97"/>
<text text-anchor="middle" x="1041.1" y="-214" font-family="Helvetica,sans-Serif" font-size="10.00">yes</text>
</g>
<!-- 20 -->
<g id="node23" class="node">
<title>20</title>
<path fill="#b7edff" stroke="black" d="M1145.23,-198C1145.23,-198 1101.23,-198 1101.23,-198 1095.23,-198 1089.23,-192 1089.23,-186 1089.23,-186 1089.23,-174 1089.23,-174 1089.23,-168 1095.23,-162 1101.23,-162 1101.23,-162 1145.23,-162 1145.23,-162 1151.23,-162 1157.23,-168 1157.23,-174 1157.23,-174 1157.23,-186 1157.23,-186 1157.23,-192 1151.23,-198 1145.23,-198"/>
<text text-anchor="middle" x="1123.23" y="-183.2" font-family="Helvetica,sans-Serif" font-size="11.00">action 30</text>
<text text-anchor="middle" x="1123.23" y="-171.2" font-family="Helvetica,sans-Serif" font-size="11.00">p=0.84</text>
</g>
<!-- 17&#45;&gt;20 -->
<g id="edge22" class="edge">
<title>17&#45;&gt;20</title>
<path fill="none" stroke="#555555" d="M1006.35,-180C1030.2,-180 1057.02,-180 1078.85,-180"/>
<polygon fill="#555555" stroke="#555555" points="1079.13,-183.5 1089.13,-180 1079.13,-176.5 1079.13,-183.5"/>
<text text-anchor="middle" x="1041.1" y="-183" font-family="Helvetica,sans-Serif" font-size="10.00">no</text>
</g>
<!-- 23 -->
<g id="node26" class="node">
<title>23</title>
<path fill="#ffb7b7" stroke="black" d="M1141.73,-144C1141.73,-144 1104.73,-144 1104.73,-144 1098.73,-144 1092.73,-138 1092.73,-132 1092.73,-132 1092.73,-120 1092.73,-120 1092.73,-114 1098.73,-108 1104.73,-108 1104.73,-108 1141.73,-108 1141.73,-108 1147.73,-108 1153.73,-114 1153.73,-120 1153.73,-120 1153.73,-132 1153.73,-132 1153.73,-138 1147.73,-144 1141.73,-144"/>
<text text-anchor="middle" x="1123.23" y="-129.2" font-family="Helvetica,sans-Serif" font-size="11.00">action 0</text>
<text text-anchor="middle" x="1123.23" y="-117.2" font-family="Helvetica,sans-Serif" font-size="11.00">p=0.67</text>
</g>
<!-- 18&#45;&gt;23 -->
<g id="edge25" class="edge">
<title>18&#45;&gt;23</title>
<path fill="none" stroke="#555555" d="M1008.34,-126C1032.88,-126 1060.31,-126 1082.1,-126"/>
<polygon fill="#555555" stroke="#555555" points="1082.31,-129.5 1092.31,-126 1082.31,-122.5 1082.31,-129.5"/>
<text text-anchor="middle" x="1041.1" y="-129" font-family="Helvetica,sans-Serif" font-size="10.00">yes</text>
</g>
<!-- 24 -->
<g id="node27" class="node">
<title>24</title>
<ellipse fill="#eef3fb" stroke="black" cx="1123.23" cy="-72" rx="57.25" ry="18"/>
<text text-anchor="middle" x="1123.23" y="-69.2" font-family="Helvetica,sans-Serif" font-size="11.00">obs_264 ≤ 2.8</text>
</g>
<!-- 18&#45;&gt;24 -->
<g id="edge26" class="edge">
<title>18&#45;&gt;24</title>
<path fill="none" stroke="#555555" d="M988.77,-112.79C1013.86,-105.12 1045.59,-95.42 1071.82,-87.41"/>
<polygon fill="#555555" stroke="#555555" points="1073.04,-90.7 1081.58,-84.42 1070.99,-84 1073.04,-90.7"/>
<text text-anchor="middle" x="1041.1" y="-102" font-family="Helvetica,sans-Serif" font-size="10.00">no</text>
</g>
<!-- 27 -->
<g id="node24" class="node">
<title>27</title>
<path fill="#ffb7b7" stroke="black" d="M1282.86,-279C1282.86,-279 1245.86,-279 1245.86,-279 1239.86,-279 1233.86,-273 1233.86,-267 1233.86,-267 1233.86,-255 1233.86,-255 1233.86,-249 1239.86,-243 1245.86,-243 1245.86,-243 1282.86,-243 1282.86,-243 1288.86,-243 1294.86,-249 1294.86,-255 1294.86,-255 1294.86,-267 1294.86,-267 1294.86,-273 1288.86,-279 1282.86,-279"/>
<text text-anchor="middle" x="1264.36" y="-264.2" font-family="Helvetica,sans-Serif" font-size="11.00">action 0</text>
<text text-anchor="middle" x="1264.36" y="-252.2" font-family="Helvetica,sans-Serif" font-size="11.00">p=0.60</text>
</g>
<!-- 19&#45;&gt;27 -->
<g id="edge23" class="edge">
<title>19&#45;&gt;27</title>
<path fill="none" stroke="#555555" d="M1172.5,-243.37C1189.24,-246.62 1207.8,-250.22 1223.76,-253.31"/>
<polygon fill="#555555" stroke="#555555" points="1223.34,-256.8 1233.82,-255.27 1224.67,-249.93 1223.34,-256.8"/>
<text text-anchor="middle" x="1205.36" y="-253" font-family="Helvetica,sans-Serif" font-size="10.00">yes</text>
</g>
<!-- 28 -->
<g id="node25" class="node">
<title>28</title>
<path fill="#ffb7b7" stroke="black" d="M1282.86,-225C1282.86,-225 1245.86,-225 1245.86,-225 1239.86,-225 1233.86,-219 1233.86,-213 1233.86,-213 1233.86,-201 1233.86,-201 1233.86,-195 1239.86,-189 1245.86,-189 1245.86,-189 1282.86,-189 1282.86,-189 1288.86,-189 1294.86,-195 1294.86,-201 1294.86,-201 1294.86,-213 1294.86,-213 1294.86,-219 1288.86,-225 1282.86,-225"/>
<text text-anchor="middle" x="1264.36" y="-210.2" font-family="Helvetica,sans-Serif" font-size="11.00">action 0</text>
<text text-anchor="middle" x="1264.36" y="-198.2" font-family="Helvetica,sans-Serif" font-size="11.00">p=0.84</text>
</g>
<!-- 19&#45;&gt;28 -->
<g id="edge24" class="edge">
<title>19&#45;&gt;28</title>
<path fill="none" stroke="#555555" d="M1172.5,-224.63C1189.24,-221.38 1207.8,-217.78 1223.76,-214.69"/>
<polygon fill="#555555" stroke="#555555" points="1224.67,-218.07 1233.82,-212.73 1223.34,-211.2 1224.67,-218.07"/>
<text text-anchor="middle" x="1205.36" y="-222" font-family="Helvetica,sans-Serif" font-size="10.00">no</text>
</g>
<!-- 25 -->
<g id="node28" class="node">
<title>25</title>
<path fill="#b7edff" stroke="black" d="M1286.36,-144C1286.36,-144 1242.36,-144 1242.36,-144 1236.36,-144 1230.36,-138 1230.36,-132 1230.36,-132 1230.36,-120 1230.36,-120 1230.36,-114 1236.36,-108 1242.36,-108 1242.36,-108 1286.36,-108 1286.36,-108 1292.36,-108 1298.36,-114 1298.36,-120 1298.36,-120 1298.36,-132 1298.36,-132 1298.36,-138 1292.36,-144 1286.36,-144"/>
<text text-anchor="middle" x="1264.36" y="-129.2" font-family="Helvetica,sans-Serif" font-size="11.00">action 30</text>
<text text-anchor="middle" x="1264.36" y="-117.2" font-family="Helvetica,sans-Serif" font-size="11.00">p=0.56</text>
</g>
<!-- 24&#45;&gt;25 -->
<g id="edge27" class="edge">
<title>24&#45;&gt;25</title>
<path fill="none" stroke="#555555" d="M1160.06,-85.91C1178.52,-93.07 1201.16,-101.86 1220.53,-109.38"/>
<polygon fill="#555555" stroke="#555555" points="1219.45,-112.71 1230.04,-113.07 1221.98,-106.19 1219.45,-112.71"/>
<text text-anchor="middle" x="1205.36" y="-108" font-family="Helvetica,sans-Serif" font-size="10.00">yes</text>
</g>
<!-- 26 -->
<g id="node29" class="node">
<title>26</title>
<path fill="#b7edff" stroke="black" d="M1286.36,-90C1286.36,-90 1242.36,-90 1242.36,-90 1236.36,-90 1230.36,-84 1230.36,-78 1230.36,-78 1230.36,-66 1230.36,-66 1230.36,-60 1236.36,-54 1242.36,-54 1242.36,-54 1286.36,-54 1286.36,-54 1292.36,-54 1298.36,-60 1298.36,-66 1298.36,-66 1298.36,-78 1298.36,-78 1298.36,-84 1292.36,-90 1286.36,-90"/>
<text text-anchor="middle" x="1264.36" y="-75.2" font-family="Helvetica,sans-Serif" font-size="11.00">action 30</text>
<text text-anchor="middle" x="1264.36" y="-63.2" font-family="Helvetica,sans-Serif" font-size="11.00">p=0.98</text>
</g>
<!-- 24&#45;&gt;26 -->
<g id="edge28" class="edge">
<title>24&#45;&gt;26</title>
<path fill="none" stroke="#555555" d="M1180.42,-72C1193.62,-72 1207.48,-72 1220.02,-72"/>
<polygon fill="#555555" stroke="#555555" points="1220.19,-75.5 1230.19,-72 1220.19,-68.5 1220.19,-75.5"/>
<text text-anchor="middle" x="1205.36" y="-75" font-family="Helvetica,sans-Serif" font-size="10.00">no</text>
</g>
</g>
</svg>
