<?xml version="1.0" encoding="UTF-8" standalone="no"?>
<!DOCTYPE svg PUBLIC "-//W3C//DTD SVG 1.1//EN"
 "http://www.w3.org/Graphics/SVG/1.1/DTD/svg11.dtd">
<!-- Generated by graphviz version 2.43.0 (0)
 -->
<!-- Title: dtpo Pages: 1 -->
<svg width="950pt" height="518pt"
 viewBox="0.00 0.00 950.05 518.00" xmlns="http://www.w3.org/2000/svg" xmlns:xlink="http://www.w3.org/1999/xlink">
<g id="graph0" class="graph" transform="scale(1 1) rotate(0) translate(4 514)">
<title>dtpo</title>
<polygon fill="white" stroke="transparent" points="-4,4 -4,-514 946.05,-514 946.05,4 -4,4"/>
<!-- 0 -->
<g id="node1" class="node">
<title>0</title>
<ellipse fill="#eef3fb" stroke="black" cx="561.55" cy="-492" rx="61.17" ry="18"/>
<text text-anchor="middle" x="561.55" y="-489.2" font-family="Helvetica,sans-Serif" font-size="11.00">obs_46 ≤ 0.194</text>
</g>
<!-- 1 -->
<g id="node2" class="node">
<title>1</title>
<ellipse fill="#eef3fb" stroke="black" cx="489.55" cy="-413" rx="61.17" ry="18"/>
<text text-anchor="middle" x="489.55" y="-410.2" font-family="Helvetica,sans-Serif" font-size="11.00">obs_143 ≤ 1.32</text>
</g>
<!-- 0&#45;&gt;1 -->
<g id="edge1" class="edge">
<title>0&#45;&gt;1</title>
<path fill="none" stroke="#555555" d="M545.92,-474.29C536.02,-463.7 523.04,-449.82 512.03,-438.05"/>
<polygon fill="#555555" stroke="#555555" points="514.52,-435.59 505.14,-430.68 509.41,-440.37 514.52,-435.59"/>
<text text-anchor="middle" x="539.55" y="-450" font-family="Helvetica,sans-Serif" font-size="10.00">yes</text>
</g>
<!-- 2 -->
<g id="node3" class="node">
<title>2</title>
<ellipse fill="#eef3fb" stroke="black" cx="661.55" cy="-413" rx="53.54" ry="18"/>
<text text-anchor="middle" x="661.55" y="-410.2" font-family="Helvetica,sans-Serif" font-size="11.00">obs_6 ≤ 1.24</text>
</g>
<!-- 0&#45;&gt;2 -->
<g id="edge2" class="edge">
<title>0&#45;&gt;2</title>
<path fill="none" stroke="#555555" d="M582.27,-475.05C596.98,-463.72 616.91,-448.37 633.11,-435.89"/>
<polygon fill="#555555" stroke="#555555" points="635.41,-438.54 641.19,-429.67 631.14,-433 635.41,-438.54"/>
<text text-anchor="middle" x="624.05" y="-450" font-family="Helvetica,sans-Serif" font-size="10.00">no</text>
</g>
<!-- 3 -->
<g id="node4" class="node">
<title>3</title>
<ellipse fill="#eef3fb" stroke="black" cx="317.55" cy="-334" rx="63.98" ry="18"/>
<text text-anchor="middle" x="317.55" y="-331.2" font-family="Helvetica,sans-Serif" font-size="11.00">obs_58 ≤ &#45;0.168</text>
</g>
<!-- 1&#45;&gt;3 -->
<g id="edge3" class="edge">
<title>1&#45;&gt;3</title>
<path fill="none" stroke="#555555" d="M457.19,-397.52C429.53,-385.13 389.55,-367.23 359.44,-353.76"/>
<polygon fill="#555555" stroke="#555555" points="360.6,-350.44 350.04,-349.55 357.74,-356.83 360.6,-350.44"/>
<text text-anchor="middle" x="423.55" y="-371" font-family="Helvetica,sans-Serif" font-size="10.00">yes</text>
</g>
<!-- 4 -->
<g id="node5" class="node">
<title>4</title>
<ellipse fill="#eef3fb" stroke="black" cx="489.55" cy="-334" rx="63.98" ry="18"/>
<text text-anchor="middle" x="489.55" y="-331.2" font-family="Helvetica,sans-Serif" font-size="11.00">obs_73 ≤ &#45;0.758</text>
</g>
<!-- 1&#45;&gt;4 -->
<g id="edge4" class="edge">
<title>1&#45;&gt;4</title>
<path fill="none" stroke="#555555" d="M489.55,-394.91C489.55,-385.34 489.55,-373.18 489.55,-362.32"/>
<polygon fill="#555555" stroke="#555555" points="493.05,-362.04 489.55,-352.04 486.05,-362.04 493.05,-362.04"/>
<text text-anchor="middle" x="496.05" y="-371" font-family="Helvetica,sans-Serif" font-size="10.00">no</text>
</g>
<!-- 7 -->
<g id="node22" class="node">
<title>7</title>
<ellipse fill="#eef3fb" stroke="black" cx="661.55" cy="-334" rx="63.98" ry="18"/>
<text text-anchor="middle" x="661.55" y="-331.2" font-family="Helvetica,sans-Serif" font-size="11.00">obs_73 ≤ &#45;0.731</text>
</g>
<!-- 2&#45;&gt;7 -->
<g id="edge21" class="edge">
<title>2&#45;&gt;7</title>
<path fill="none" stroke="#555555" d="M661.55,-394.91C661.55,-385.34 661.55,-373.18 661.55,-362.32"/>
<polygon fill="#555555" stroke="#555555" points="665.05,-362.04 661.55,-352.04 658.05,-362.04 665.05,-362.04"/>
<text text-anchor="middle" x="670.55" y="-371" font-family="Helvetica,sans-Serif" font-size="10.00">yes</text>
</g>
<!-- 8 -->
<g id="node23" class="node">
<title>8</title>
<ellipse fill="#eef3fb" stroke="black" cx="828.55" cy="-334" rx="57.25" ry="18"/>
<text text-anchor="middle" x="828.55" y="-331.2" font-family="Helvetica,sans-Serif" font-size="11.00">obs_43 ≤ 1.79</text>
</g>
<!-- 2&#45;&gt;8 -->
<g id="edge22" class="edge">
<title>2&#45;&gt;8</title>
<path fill="none" stroke="#555555" d="M691.79,-398.06C718.84,-385.58 758.7,-367.2 788.42,-353.5"/>
<polygon fill="#555555" stroke="#555555" points="790.06,-356.6 797.68,-349.23 787.13,-350.24 790.06,-356.6"/>
<text text-anchor="middle" x="762.05" y="-371" font-family="Helvetica,sans-Serif" font-size="10.00">no</text>
</g>
<!-- 5 -->
<g id="node6" class="node">
<title>5</title>
<ellipse fill="#eef3fb" stroke="black" cx="176.55" cy="-255" rx="61.17" ry="18"/>
<text text-anchor="middle" x="176.55" y="-252.2" font-family="Helvetica,sans-Serif" font-size="11.00">obs_36 ≤ 0.321</text>
</g>
<!-- 3&#45;&gt;5 -->
<g id="edge5" class="edge">
<title>3&#45;&gt;5</title>
<path fill="none" stroke="#555555" d="M289.69,-317.79C267.77,-305.82 237.04,-289.04 213.14,-275.98"/>
<polygon fill="#555555" stroke="#555555" points="214.8,-272.9 204.35,-271.18 211.44,-279.05 214.8,-272.9"/>
<text text-anchor="middle" x="264.55" y="-292" font-family="Helvetica,sans-Serif" font-size="10.00">yes</text>
</g>
<!-- 6 -->
<g id="node7" class="node">
<title>6</title>
<ellipse fill="#eef3fb" stroke="black" cx="317.55" cy="-255" rx="61.17" ry="18"/>
<text text-anchor="middle" x="317.55" y="-252.2" font-family="Helvetica,sans-Serif" font-size="11.00">obs_55 ≤ 0.023</text>
</g>
<!-- 3&#45;&gt;6 -->
<g id="edge6" class="edge">
<title>3&#45;&gt;6</title>
<path fill="none" stroke="#555555" d="M317.55,-315.91C317.55,-306.34 317.55,-294.18 317.55,-283.32"/>
<polygon fill="#555555" stroke="#555555" points="321.05,-283.04 317.55,-273.04 314.05,-283.04 321.05,-283.04"/>
<text text-anchor="middle" x="324.05" y="-292" font-family="Helvetica,sans-Serif" font-size="10.00">no</text>
</g>
<!-- 21 -->
<g id="node20" class="node">
<title>21</title>
<path fill="#eaffb7" stroke="black" d="M452.55,-273C452.55,-273 408.55,-273 408.55,-273 402.55,-273 396.55,-267 396.55,-261 396.55,-261 396.55,-249 396.55,-249 396.55,-243 402.55,-237 408.55,-237 408.55,-237 452.55,-237 452.55,-237 458.55,-237 464.55,-243 464.55,-249 464.55,-249 464.55,-261 464.55,-261 464.55,-267 458.55,-273 452.55,-273"/>
<text text-anchor="middle" x="430.55" y="-258.2" font-family="Helvetica,sans-Serif" font-size="11.00">action 23</text>
<text text-anchor="middle" x="430.55" y="-246.2" font-family="Helvetica,sans-Serif" font-size="11.00">p=0.81</text>
</g>
<!-- 4&#45;&gt;21 -->
<g id="edge19" class="edge">
<title>4&#45;&gt;21</title>
<path fill="none" stroke="#555555" d="M476.74,-316.29C468.89,-306.04 458.68,-292.72 449.86,-281.2"/>
<polygon fill="#555555" stroke="#555555" points="452.59,-279.02 443.73,-273.21 447.04,-283.27 452.59,-279.02"/>
<text text-anchor="middle" x="473.55" y="-292" font-family="Helvetica,sans-Serif" font-size="10.00">yes</text>
</g>
<!-- 22 -->
<g id="node21" class="node">
<title>22</title>
<path fill="#f9ffb7" stroke="black" d="M538.55,-273C538.55,-273 494.55,-273 494.55,-273 488.55,-273 482.55,-267 482.55,-261 482.55,-261 482.55,-249 482.55,-249 482.55,-243 488.55,-237 494.55,-237 494.55,-237 538.55,-237 538.55,-237 544.55,-237 550.55,-243 550.55,-249 550.55,-249 550.55,-261 550.55,-261 550.55,-267 544.55,-273 538.55,-273"/>
<text text-anchor="middle" x="516.55" y="-258.2" font-family="Helvetica,sans-Serif" font-size="11.00">action 10</text>
<text text-anchor="middle" x="516.55" y="-246.2" font-family="Helvetica,sans-Serif" font-size="11.00">p=0.99</text>
</g>
<!-- 4&#45;&gt;22 -->
<g id="edge20" class="edge">
<title>4&#45;&gt;22</title>
<path fill="none" stroke="#555555" d="M495.54,-315.91C498.96,-306.14 503.34,-293.68 507.2,-282.65"/>
<polygon fill="#555555" stroke="#555555" points="510.56,-283.64 510.57,-273.04 503.96,-281.32 510.56,-283.64"/>
<text text-anchor="middle" x="512.05" y="-292" font-family="Helvetica,sans-Serif" font-size="10.00">no</text>
</g>
<!-- 17 -->
<g id="node8" class="node">
<title>17</title>
<ellipse fill="#eef3fb" stroke="black" cx="65.55" cy="-176" rx="65.59" ry="18"/>
<text text-anchor="middle" x="65.55" y="-173.2" font-family="Helvetica,sans-Serif" font-size="11.00">obs_55 ≤ 0.0256</text>
</g>
<!-- 5&#45;&gt;17 -->
<g id="edge7" class="edge">
<title>5&#45;&gt;17</title>
<path fill="none" stroke="#555555" d="M153.82,-238.23C137.46,-226.89 115.2,-211.44 97.12,-198.9"/>
<polygon fill="#555555" stroke="#555555" points="98.84,-195.84 88.63,-193.01 94.85,-201.59 98.84,-195.84"/>
<text text-anchor="middle" x="137.55" y="-213" font-family="Helvetica,sans-Serif" font-size="10.00">yes</text>
</g>
<!-- 18 -->
<g id="node9" class="node">
<title>18</title>
<path fill="#ffb7b7" stroke="black" d="M198.05,-194C198.05,-194 161.05,-194 161.05,-194 155.05,-194 149.05,-188 149.05,-182 149.05,-182 149.05,-170 149.05,-170 149.05,-164 155.05,-158 161.05,-158 161.05,-158 198.05,-158 198.05,-158 204.05,-158 210.05,-164 210.05,-170 210.05,-170 210.05,-182 210.05,-182 210.05,-188 204.05,-194 198.05,-194"/>
<text text-anchor="middle" x="179.55" y="-179.2" font-family="Helvetica,sans-Serif" font-size="11.00">action 0</text>
<text text-anchor="middle" x="179.55" y="-167.2" font-family="Helvetica,sans-Serif" font-size="11.00">p=0.50</text>
</g>
<!-- 5&#45;&gt;18 -->
<g id="edge8" class="edge">
<title>5&#45;&gt;18</title>
<path fill="none" stroke="#555555" d="M177.21,-236.91C177.58,-227.34 178.06,-215.18 178.48,-204.32"/>
<polygon fill="#555555" stroke="#555555" points="181.99,-204.17 178.88,-194.04 175,-203.9 181.99,-204.17"/>
<text text-anchor="middle" x="185.05" y="-213" font-family="Helvetica,sans-Serif" font-size="10.00">no</text>
</g>
<!-- 11 -->
<g id="node12" class="node">
<title>11</title>
<ellipse fill="#eef3fb" stroke="black" cx="308.55" cy="-176" rx="61.17" ry="18"/>
<text text-anchor="middle" x="308.55" y="-173.2" font-family="Helvetica,sans-Serif" font-size="11.00">obs_44 ≤ 0.374</text>
</g>
<!-- 6&#45;&gt;11 -->
<g id="edge11" class="edge">
<title>6&#45;&gt;11</title>
<path fill="none" stroke="#555555" d="M315.55,-236.91C314.42,-227.24 312.98,-214.93 311.7,-203.98"/>
<polygon fill="#555555" stroke="#555555" points="315.17,-203.57 310.54,-194.04 308.22,-204.38 315.17,-203.57"/>
<text text-anchor="middle" x="323.55" y="-213" font-family="Helvetica,sans-Serif" font-size="10.00">yes</text>
</g>
<!-- 12 -->
<g id="node13" class="node">
<title>12</title>
<ellipse fill="#eef3fb" stroke="black" cx="449.55" cy="-176" rx="61.17" ry="18"/>
<text text-anchor="middle" x="449.55" y="-173.2" font-family="Helvetica,sans-Serif" font-size="11.00">obs_67 ≤ 0.107</text>
</g>
<!-- 6&#45;&gt;12 -->
<g id="edge12" class="edge">
<title>6&#45;&gt;12</title>
<path fill="none" stroke="#555555" d="M343.94,-238.6C364.18,-226.8 392.29,-210.4 414.42,-197.49"/>
<polygon fill="#555555" stroke="#555555" points="416.32,-200.43 423.2,-192.37 412.8,-194.39 416.32,-200.43"/>
<text text-anchor="middle" x="398.05" y="-213" font-family="Helvetica,sans-Serif" font-size="10.00">no</text>
</g>
<!-- 19 -->
<g id="node10" class="node">
<title>19</title>
<path fill="#ffb7b7" stroke="black" d="M72.05,-115C72.05,-115 35.05,-115 35.05,-115 29.05,-115 23.05,-109 23.05,-103 23.05,-103 23.05,-91 23.05,-91 23.05,-85 29.05,-79 35.05,-79 35.05,-79 72.05,-79 72.05,-79 78.05,-79 84.05,-85 84.05,-91 84.05,-91 84.05,-103 84.05,-103 84.05,-109 78.05,-115 72.05,-115"/>
<text text-anchor="middle" x="53.55" y="-100.2" font-family="Helvetica,sans-Serif" font-size="11.00">action 0</text>
<text text-anchor="middle" x="53.55" y="-88.2" font-family="Helvetica,sans-Serif" font-size="11.00">p=0.43</text>
</g>
<!-- 17&#45;&gt;19 -->
<g id="edge9" class="edge">
<title>17&#45;&gt;19</title>
<path fill="none" stroke="#555555" d="M62.88,-157.91C61.38,-148.24 59.46,-135.93 57.75,-124.98"/>
<polygon fill="#555555" stroke="#555555" points="61.2,-124.38 56.2,-115.04 54.28,-125.46 61.2,-124.38"/>
<text text-anchor="middle" x="69.55" y="-134" font-family="Helvetica,sans-Serif" font-size="10.00">yes</text>
</g>
<!-- 20 -->
<g id="node11" class="node">
<title>20</title>
<path fill="#f5b7ff" stroke="black" d="M158.55,-115C158.55,-115 114.55,-115 114.55,-115 108.55,-115 102.55,-109 102.55,-103 102.55,-103 102.55,-91 102.55,-91 102.55,-85 108.55,-79 114.55,-79 114.55,-79 158.55,-79 158.55,-79 164.55,-79 170.55,-85 170.55,-91 170.55,-91 170.55,-103 170.55,-103 170.55,-109 164.55,-115 158.55,-115"/>
<text text-anchor="middle" x="136.55" y="-100.2" font-family="Helvetica,sans-Serif" font-size="11.00">action 45</text>
<text text-anchor="middle" x="136.55" y="-88.2" font-family="Helvetica,sans-Serif" font-size="11.00">p=0.71</text>
</g>
<!-- 17&#45;&gt;20 -->
<g id="edge10" class="edge">
<title>17&#45;&gt;20</title>
<path fill="none" stroke="#555555" d="M80.95,-158.29C90.5,-147.94 102.93,-134.46 113.62,-122.87"/>
<polygon fill="#555555" stroke="#555555" points="116.47,-124.93 120.68,-115.21 111.33,-120.19 116.47,-124.93"/>
<text text-anchor="middle" x="112.05" y="-134" font-family="Helvetica,sans-Serif" font-size="10.00">no</text>
</g>
<!-- 27 -->
<g id="node14" class="node">
<title>27</title>
<path fill="#ffb7b7" stroke="black" d="M250.05,-115C250.05,-115 213.05,-115 213.05,-115 207.05,-115 201.05,-109 201.05,-103 201.05,-103 201.05,-91 201.05,-91 201.05,-85 207.05,-79 213.05,-79 213.05,-79 250.05,-79 250.05,-79 256.05,-79 262.05,-85 262.05,-91 262.05,-91 262.05,-103 262.05,-103 262.05,-109 256.05,-115 250.05,-115"/>
<text text-anchor="middle" x="231.55" y="-100.2" font-family="Helvetica,sans-Serif" font-size="11.00">action 0</text>
<text text-anchor="middle" x="231.55" y="-88.2" font-family="Helvetica,sans-Serif" font-size="11.00">p=0.41</text>
</g>
<!-- 11&#45;&gt;27 -->
<g id="edge13" class="edge">
<title>11&#45;&gt;27</title>
<path fill="none" stroke="#555555" d="M291.84,-158.29C281.39,-147.84 267.75,-134.2 256.08,-122.53"/>
<polygon fill="#555555" stroke="#555555" points="258.3,-119.8 248.75,-115.21 253.35,-124.75 258.3,-119.8"/>
<text text-anchor="middle" x="284.55" y="-134" font-family="Helvetica,sans-Serif" font-size="10.00">yes</text>
</g>
<!-- 28 -->
<g id="node15" class="node">
<title>28</title>
<path fill="#d2ffb7" stroke="black" d="M336.55,-115C336.55,-115 292.55,-115 292.55,-115 286.55,-115 280.55,-109 280.55,-103 280.55,-103 280.55,-91 280.55,-91 280.55,-85 286.55,-79 292.55,-79 292.55,-79 336.55,-79 336.55,-79 342.55,-79 348.55,-85 348.55,-91 348.55,-91 348.55,-103 348.55,-103 348.55,-109 342.55,-115 336.55,-115"/>
<text text-anchor="middle" x="314.55" y="-100.2" font-family="Helvetica,sans-Serif" font-size="11.00">action 15</text>
<text text-anchor="middle" x="314.55" y="-88.2" font-family="Helvetica,sans-Serif" font-size="11.00">p=0.59</text>
</g>
<!-- 11&#45;&gt;28 -->
<g id="edge14" class="edge">
<title>11&#45;&gt;28</title>
<path fill="none" stroke="#555555" d="M309.88,-157.91C310.62,-148.34 311.57,-136.18 312.42,-125.32"/>
<polygon fill="#555555" stroke="#555555" points="315.93,-125.28 313.22,-115.04 308.95,-124.74 315.93,-125.28"/>
<text text-anchor="middle" x="319.05" y="-134" font-family="Helvetica,sans-Serif" font-size="10.00">no</text>
</g>
<!-- 23 -->
<g id="node16" class="node">
<title>23</title>
<path fill="#ffb7b7" stroke="black" d="M429.05,-115C429.05,-115 392.05,-115 392.05,-115 386.05,-115 380.05,-109 380.05,-103 380.05,-103 380.05,-91 380.05,-91 380.05,-85 386.05,-79 392.05,-79 392.05,-79 429.05,-79 429.05,-79 435.05,-79 441.05,-85 441.05,-91 441.05,-91 441.05,-103 441.05,-103 441.05,-109 435.05,-115 429.05,-115"/>
<text text-anchor="middle" x="410.55" y="-100.2" font-family="Helvetica,sans-Serif" font-size="11.00">action 0</text>
<text text-anchor="middle" x="410.55" y="-88.2" font-family="Helvetica,sans-Serif" font-size="11.00">p=0.49</text>
</g>
<!-- 12&#45;&gt;23 -->
<g id="edge15" class="edge">
<title>12&#45;&gt;23</title>
<path fill="none" stroke="#555555" d="M440.89,-157.91C435.84,-147.94 429.37,-135.17 423.7,-123.97"/>
<polygon fill="#555555" stroke="#555555" points="426.82,-122.38 419.18,-115.04 420.57,-125.54 426.82,-122.38"/>
<text text-anchor="middle" x="441.55" y="-134" font-family="Helvetica,sans-Serif" font-size="10.00">yes</text>
</g>
<!-- 24 -->
<g id="node17" class="node">
<title>24</title>
<ellipse fill="#eef3fb" stroke="black" cx="516.55" cy="-97" rx="57.25" ry="18"/>
<text text-anchor="middle" x="516.55" y="-94.2" font-family="Helvetica,sans-Serif" font-size="11.00">obs_36 ≤ 0.33</text>
</g>
<!-- 12&#45;&gt;24 -->
<g id="edge16" class="edge">
<title>12&#45;&gt;24</title>
<path fill="none" stroke="#555555" d="M464.08,-158.29C473.21,-147.8 485.15,-134.08 495.33,-122.39"/>
<polygon fill="#555555" stroke="#555555" points="498.11,-124.52 502.04,-114.68 492.83,-119.92 498.11,-124.52"/>
<text text-anchor="middle" x="494.05" y="-134" font-family="Helvetica,sans-Serif" font-size="10.00">no</text>
</g>
<!-- 29 -->
<g id="node18" class="node">
<title>29</title>
<path fill="#e1ffb7" stroke="black" d="M495.05,-36C495.05,-36 458.05,-36 458.05,-36 452.05,-36 446.05,-30 446.05,-24 446.05,-24 446.05,-12 446.05,-12 446.05,-6 452.05,0 458.05,0 458.05,0 495.05,0 495.05,0 501.05,0 507.05,-6 507.05,-12 507.05,-12 507.05,-24 507.05,-24 507.05,-30 501.05,-36 495.05,-36"/>
<text text-anchor="middle" x="476.55" y="-21.2" font-family="Helvetica,sans-Serif" font-size="11.00">action 2</text>
<text text-anchor="middle" x="476.55" y="-9.2" font-family="Helvetica,sans-Serif" font-size="11.00">p=0.47</text>
</g>
<!-- 24&#45;&gt;29 -->
<g id="edge17" class="edge">
<title>24&#45;&gt;29</title>
<path fill="none" stroke="#555555" d="M507.67,-78.91C502.49,-68.94 495.85,-56.17 490.04,-44.97"/>
<polygon fill="#555555" stroke="#555555" points="493.11,-43.3 485.4,-36.04 486.9,-46.53 493.11,-43.3"/>
<text text-anchor="middle" x="508.55" y="-55" font-family="Helvetica,sans-Serif" font-size="10.00">yes</text>
</g>
<!-- 30 -->
<g id="node19" class="node">
<title>30</title>
<path fill="#ffb7b7" stroke="black" d="M574.05,-36C574.05,-36 537.05,-36 537.05,-36 531.05,-36 525.05,-30 525.05,-24 525.05,-24 525.05,-12 525.05,-12 525.05,-6 531.05,0 537.05,0 537.05,0 574.05,0 574.05,0 580.05,0 586.05,-6 586.05,-12 586.05,-12 586.05,-24 586.05,-24 586.05,-30 580.05,-36 574.05,-36"/>
<text text-anchor="middle" x="555.55" y="-21.2" font-family="Helvetica,sans-Serif" font-size="11.00">action 0</text>
<text text-anchor="middle" x="555.55" y="-9.2" font-family="Helvetica,sans-Serif" font-size="11.00">p=0.50</text>
</g>
<!-- 24&#45;&gt;30 -->
<g id="edge18" class="edge">
<title>24&#45;&gt;30</title>
<path fill="none" stroke="#555555" d="M525.2,-78.91C530.25,-68.94 536.72,-56.17 542.39,-44.97"/>
<polygon fill="#555555" stroke="#555555" points="545.52,-46.54 546.91,-36.04 539.27,-43.38 545.52,-46.54"/>
<text text-anchor="middle" x="545.05" y="-55" font-family="Helvetica,sans-Serif" font-size="10.00">no</text>
</g>
<!-- 9 -->
<g id="node24" class="node">
<title>9</title>
<path fill="#eaffb7" stroke="black" d="M624.55,-273C624.55,-273 580.55,-273 580.55,-273 574.55,-273 568.55,-267 568.55,-261 568.55,-261 568.55,-249 568.55,-249 568.55,-243 574.55,-237 580.55,-237 580.55,-237 624.55,-237 624.55,-237 630.55,-237 636.55,-243 636.55,-249 636.55,-249 636.55,-261 636.55,-261 636.55,-267 630.55,-273 624.55,-273"/>
<text text-anchor="middle" x="602.55" y="-258.2" font-family="Helvetica,sans-Serif" font-size="11.00">action 23</text>
<text text-anchor="middle" x="602.55" y="-246.2" font-family="Helvetica,sans-Serif" font-size="11.00">p=0.42</text>
</g>
<!-- 7&#45;&gt;9 -->
<g id="edge23" class="edge">
<title>7&#45;&gt;9</title>
<path fill="none" stroke="#555555" d="M648.74,-316.29C640.89,-306.04 630.68,-292.72 621.86,-281.2"/>
<polygon fill="#555555" stroke="#555555" points="624.59,-279.02 615.73,-273.21 619.04,-283.27 624.59,-279.02"/>
<text text-anchor="middle" x="645.55" y="-292" font-family="Helvetica,sans-Serif" font-size="10.00">yes</text>
</g>
<!-- 10 -->
<g id="node25" class="node">
<title>10</title>
<ellipse fill="#eef3fb" stroke="black" cx="715.55" cy="-255" rx="61.17" ry="18"/>
<text text-anchor="middle" x="715.55" y="-252.2" font-family="Helvetica,sans-Serif" font-size="11.00">obs_44 ≤ 0.372</text>
</g>
<!-- 7&#45;&gt;10 -->
<g id="edge24" class="edge">
<title>7&#45;&gt;10</title>
<path fill="none" stroke="#555555" d="M673.26,-316.29C680.48,-306 689.87,-292.61 697.97,-281.06"/>
<polygon fill="#555555" stroke="#555555" points="700.98,-282.87 703.85,-272.68 695.24,-278.85 700.98,-282.87"/>
<text text-anchor="middle" x="699.05" y="-292" font-family="Helvetica,sans-Serif" font-size="10.00">no</text>
</g>
<!-- 15 -->
<g id="node30" class="node">
<title>15</title>
<path fill="#ffe3b7" stroke="black" d="M850.55,-273C850.55,-273 806.55,-273 806.55,-273 800.55,-273 794.55,-267 794.55,-261 794.55,-261 794.55,-249 794.55,-249 794.55,-243 800.55,-237 806.55,-237 806.55,-237 850.55,-237 850.55,-237 856.55,-237 862.55,-243 862.55,-249 862.55,-249 862.55,-261 862.55,-261 862.55,-267 856.55,-273 850.55,-273"/>
<text text-anchor="middle" x="828.55" y="-258.2" font-family="Helvetica,sans-Serif" font-size="11.00">action 39</text>
<text text-anchor="middle" x="828.55" y="-246.2" font-family="Helvetica,sans-Serif" font-size="11.00">p=0.67</text>
</g>
<!-- 8&#45;&gt;15 -->
<g id="edge29" class="edge">
<title>8&#45;&gt;15</title>
<path fill="none" stroke="#555555" d="M828.55,-315.91C828.55,-306.34 828.55,-294.18 828.55,-283.32"/>
<polygon fill="#555555" stroke="#555555" points="832.05,-283.04 828.55,-273.04 825.05,-283.04 832.05,-283.04"/>
<text text-anchor="middle" x="837.55" y="-292" font-family="Helvetica,sans-Serif" font-size="10.00">yes</text>
</g>
<!-- 16 -->
<g id="node31" class="node">
<title>16</title>
<path fill="#b7e4ff" stroke="black" d="M930.05,-273C930.05,-273 893.05,-273 893.05,-273 887.05,-273 881.05,-267 881.05,-261 881.05,-261 881.05,-249 881.05,-249 881.05,-243 887.05,-237 893.05,-237 893.05,-237 930.05,-237 930.05,-237 936.05,-237 942.05,-243 942.05,-249 942.05,-249 942.05,-261 942.05,-261 942.05,-267 936.05,-273 930.05,-273"/>
<text text-anchor="middle" x="911.55" y="-258.2" font-family="Helvetica,sans-Serif" font-size="11.00">action 9</text>
<text text-anchor="middle" x="911.55" y="-246.2" font-family="Helvetica,sans-Serif" font-size="11.00">p=0.54</text>
</g>
<!-- 8&#45;&gt;16 -->
<g id="edge30" class="edge">
<title>8&#45;&gt;16</title>
<path fill="none" stroke="#555555" d="M846.15,-316.67C857.58,-306.07 872.67,-292.06 885.48,-280.18"/>
<polygon fill="#555555" stroke="#555555" points="888.16,-282.47 893.11,-273.11 883.39,-277.34 888.16,-282.47"/>
<text text-anchor="middle" x="881.05" y="-292" font-family="Helvetica,sans-Serif" font-size="10.00">no</text>
</g>
<!-- 13 -->
<g id="node26" class="node">
<title>13</title>
<ellipse fill="#eef3fb" stroke="black" cx="670.55" cy="-176" rx="53.54" ry="18"/>
<text text-anchor="middle" x="670.55" y="-173.2" font-family="Helvetica,sans-Serif" font-size="11.00">obs_60 ≤ 1.5</text>
</g>
<!-- 10&#45;&gt;13 -->
<g id="edge25" class="edge">
<title>10&#45;&gt;13</title>
<path fill="none" stroke="#555555" d="M705.56,-236.91C699.69,-226.87 692.16,-213.99 685.59,-202.74"/>
<polygon fill="#555555" stroke="#555555" points="688.42,-200.64 680.35,-193.78 682.37,-204.18 688.42,-200.64"/>
<text text-anchor="middle" x="705.55" y="-213" font-family="Helvetica,sans-Serif" font-size="10.00">yes</text>
</g>
<!-- 14 -->
<g id="node27" class="node">
<title>14</title>
<path fill="#d2ffb7" stroke="black" d="M798.55,-194C798.55,-194 754.55,-194 754.55,-194 748.55,-194 742.55,-188 742.55,-182 742.55,-182 742.55,-170 742.55,-170 742.55,-164 748.55,-158 754.55,-158 754.55,-158 798.55,-158 798.55,-158 804.55,-158 810.55,-164 810.55,-170 810.55,-170 810.55,-182 810.55,-182 810.55,-188 804.55,-194 798.55,-194"/>
<text text-anchor="middle" x="776.55" y="-179.2" font-family="Helvetica,sans-Serif" font-size="11.00">action 15</text>
<text text-anchor="middle" x="776.55" y="-167.2" font-family="Helvetica,sans-Serif" font-size="11.00">p=0.42</text>
</g>
<!-- 10&#45;&gt;14 -->
<g id="edge26" class="edge">
<title>10&#45;&gt;14</title>
<path fill="none" stroke="#555555" d="M728.78,-237.29C736.9,-227.04 747.46,-213.72 756.58,-202.2"/>
<polygon fill="#555555" stroke="#555555" points="759.45,-204.22 762.91,-194.21 753.96,-199.87 759.45,-204.22"/>
<text text-anchor="middle" x="757.05" y="-213" font-family="Helvetica,sans-Serif" font-size="10.00">no</text>
</g>
<!-- 25 -->
<g id="node28" class="node">
<title>25</title>
<path fill="#ffb7b7" stroke="black" d="M647.05,-115C647.05,-115 610.05,-115 610.05,-115 604.05,-115 598.05,-109 598.05,-103 598.05,-103 598.05,-91 598.05,-91 598.05,-85 604.05,-79 610.05,-79 610.05,-79 647.05,-79 647.05,-79 653.05,-79 659.05,-85 659.05,-91 659.05,-91 659.05,-103 659.05,-103 659.05,-109 653.05,-115 647.05,-115"/>
<text text-anchor="middle" x="628.55" y="-100.2" font-family="Helvetica,sans-Serif" font-size="11.00">action 0</text>
<text text-anchor="middle" x="628.55" y="-88.2" font-family="Helvetica,sans-Serif" font-size="11.00">p=0.37</text>
</g>
<!-- 13&#45;&gt;25 -->
<g id="edge27" class="edge">
<title>13&#45;&gt;25</title>
<path fill="none" stroke="#555555" d="M661.22,-157.91C655.79,-147.94 648.82,-135.17 642.71,-123.97"/>
<polygon fill="#555555" stroke="#555555" points="645.7,-122.14 637.84,-115.04 639.56,-125.5 645.7,-122.14"/>
<text text-anchor="middle" x="661.55" y="-134" font-family="Helvetica,sans-Serif" font-size="10.00">yes</text>
</g>
<!-- 26 -->
<g id="node29" class="node">
<title>26</title>
<path fill="#b7bdff" stroke="black" d="M733.55,-115C733.55,-115 689.55,-115 689.55,-115 683.55,-115 677.55,-109 677.55,-103 677.55,-103 677.55,-91 677.55,-91 677.55,-85 683.55,-79 689.55,-79 689.55,-79 733.55,-79 733.55,-79 739.55,-79 745.55,-85 745.55,-91 745.55,-91 745.55,-103 745.55,-103 745.55,-109 739.55,-115 733.55,-115"/>
<text text-anchor="middle" x="711.55" y="-100.2" font-family="Helvetica,sans-Serif" font-size="11.00">action 14</text>
<text text-anchor="middle" x="711.55" y="-88.2" font-family="Helvetica,sans-Serif" font-size="11.00">p=0.74</text>
</g>
<!-- 13&#45;&gt;26 -->
<g id="edge28" class="edge">
<title>13&#45;&gt;26</title>
<path fill="none" stroke="#555555" d="M679.65,-157.91C684.95,-147.94 691.76,-135.17 697.72,-123.97"/>
<polygon fill="#555555" stroke="#555555" points="700.86,-125.51 702.47,-115.04 694.68,-122.22 700.86,-125.51"/>
<text text-anchor="middle" x="700.05" y="-134" font-family="Helvetica,sans-Serif" font-size="10.00">no</text>
</g>
</g>
</svg>
