<?xml version="1.0" encoding="UTF-8" standalone="no"?>
<!DOCTYPE svg PUBLIC "-//W3C//DTD SVG 1.1//EN"
 "http://www.w3.org/Graphics/SVG/1.1/DTD/svg11.dtd">
<!-- Generated by graphviz version 2.43.0 (0)
 -->
<!-- Title: dtpo Pages: 1 -->
<svg width="769pt" height="755pt"
 viewBox="0.00 0.00 768.50 755.00" xmlns="http://www.w3.org/2000/svg" xmlns:xlink="http://www.w3.org/1999/xlink">
<g id="graph0" class="graph" transform="scale(1 1) rotate(0) translate(4 751)">
<title>dtpo</title>
<polygon fill="white" stroke="transparent" points="-4,4 -4,-751 764.5,-751 764.5,4 -4,4"/>
<!-- 0 -->
<g id="node1" class="node">
<title>0</title>
<ellipse fill="#eef3fb" stroke="black" cx="126" cy="-729" rx="67.9" ry="18"/>
<text text-anchor="middle" x="126" y="-726.2" font-family="Helvetica,sans-Serif" font-size="11.00">obs_380 ≤ &#45;0.343</text>
</g>
<!-- 1 -->
<g id="node2" class="node">
<title>1</title>
<path fill="#b7edff" stroke="black" d="M128,-668C128,-668 84,-668 84,-668 78,-668 72,-662 72,-656 72,-656 72,-644 72,-644 72,-638 78,-632 84,-632 84,-632 128,-632 128,-632 134,-632 140,-638 140,-644 140,-644 140,-656 140,-656 140,-662 134,-668 128,-668"/>
<text text-anchor="middle" x="106" y="-653.2" font-family="Helvetica,sans-Serif" font-size="11.00">action 30</text>
<text text-anchor="middle" x="106" y="-641.2" font-family="Helvetica,sans-Serif" font-size="11.00">p=0.99</text>
</g>
<!-- 0&#45;&gt;1 -->
<g id="edge1" class="edge">
<title>0&#45;&gt;1</title>
<path fill="none" stroke="#555555" d="M121.56,-710.91C119.05,-701.24 115.85,-688.93 113.01,-677.98"/>
<polygon fill="#555555" stroke="#555555" points="116.33,-676.84 110.43,-668.04 109.55,-678.6 116.33,-676.84"/>
<text text-anchor="middle" x="127" y="-687" font-family="Helvetica,sans-Serif" font-size="10.00">yes</text>
</g>
<!-- 2 -->
<g id="node3" class="node">
<title>2</title>
<ellipse fill="#eef3fb" stroke="black" cx="224" cy="-650" rx="65.59" ry="18"/>
<text text-anchor="middle" x="224" y="-647.2" font-family="Helvetica,sans-Serif" font-size="11.00">obs_634 ≤ 0.882</text>
</g>
<!-- 0&#45;&gt;2 -->
<g id="edge2" class="edge">
<title>0&#45;&gt;2</title>
<path fill="none" stroke="#555555" d="M146.78,-711.67C160.82,-700.64 179.53,-685.94 195.02,-673.77"/>
<polygon fill="#555555" stroke="#555555" points="197.55,-676.24 203.25,-667.31 193.22,-670.73 197.55,-676.24"/>
<text text-anchor="middle" x="187.5" y="-687" font-family="Helvetica,sans-Serif" font-size="10.00">no</text>
</g>
<!-- 3 -->
<g id="node4" class="node">
<title>3</title>
<ellipse fill="#eef3fb" stroke="black" cx="134" cy="-571" rx="63.98" ry="18"/>
<text text-anchor="middle" x="134" y="-568.2" font-family="Helvetica,sans-Serif" font-size="11.00">obs_579 ≤ &#45;12.9</text>
</g>
<!-- 2&#45;&gt;3 -->
<g id="edge3" class="edge">
<title>2&#45;&gt;3</title>
<path fill="none" stroke="#555555" d="M204.91,-632.67C192.15,-621.75 175.16,-607.21 161.01,-595.11"/>
<polygon fill="#555555" stroke="#555555" points="162.93,-592.15 153.06,-588.31 158.38,-597.47 162.93,-592.15"/>
<text text-anchor="middle" x="194" y="-608" font-family="Helvetica,sans-Serif" font-size="10.00">yes</text>
</g>
<!-- 4 -->
<g id="node5" class="node">
<title>4</title>
<ellipse fill="#eef3fb" stroke="black" cx="287" cy="-571" rx="71.62" ry="18"/>
<text text-anchor="middle" x="287" y="-568.2" font-family="Helvetica,sans-Serif" font-size="11.00">obs_487 ≤ &#45;0.0563</text>
</g>
<!-- 2&#45;&gt;4 -->
<g id="edge4" class="edge">
<title>2&#45;&gt;4</title>
<path fill="none" stroke="#555555" d="M237.67,-632.29C246.17,-621.9 257.26,-608.35 266.77,-596.72"/>
<polygon fill="#555555" stroke="#555555" points="269.73,-598.63 273.36,-588.68 264.32,-594.2 269.73,-598.63"/>
<text text-anchor="middle" x="266.5" y="-608" font-family="Helvetica,sans-Serif" font-size="10.00">no</text>
</g>
<!-- 5 -->
<g id="node6" class="node">
<title>5</title>
<path fill="#b7edff" stroke="black" d="M56,-510C56,-510 12,-510 12,-510 6,-510 0,-504 0,-498 0,-498 0,-486 0,-486 0,-480 6,-474 12,-474 12,-474 56,-474 56,-474 62,-474 68,-480 68,-486 68,-486 68,-498 68,-498 68,-504 62,-510 56,-510"/>
<text text-anchor="middle" x="34" y="-495.2" font-family="Helvetica,sans-Serif" font-size="11.00">action 30</text>
<text text-anchor="middle" x="34" y="-483.2" font-family="Helvetica,sans-Serif" font-size="11.00">p=0.76</text>
</g>
<!-- 3&#45;&gt;5 -->
<g id="edge5" class="edge">
<title>3&#45;&gt;5</title>
<path fill="none" stroke="#555555" d="M112.79,-553.67C98.76,-542.87 80.15,-528.53 64.53,-516.51"/>
<polygon fill="#555555" stroke="#555555" points="66.28,-513.43 56.22,-510.11 62,-518.98 66.28,-513.43"/>
<text text-anchor="middle" x="99" y="-529" font-family="Helvetica,sans-Serif" font-size="10.00">yes</text>
</g>
<!-- 6 -->
<g id="node7" class="node">
<title>6</title>
<ellipse fill="#eef3fb" stroke="black" cx="158" cy="-492" rx="71.62" ry="18"/>
<text text-anchor="middle" x="158" y="-489.2" font-family="Helvetica,sans-Serif" font-size="11.00">obs_487 ≤ &#45;0.0354</text>
</g>
<!-- 3&#45;&gt;6 -->
<g id="edge6" class="edge">
<title>3&#45;&gt;6</title>
<path fill="none" stroke="#555555" d="M139.33,-552.91C142.37,-543.14 146.26,-530.68 149.69,-519.65"/>
<polygon fill="#555555" stroke="#555555" points="153.05,-520.63 152.69,-510.04 146.37,-518.55 153.05,-520.63"/>
<text text-anchor="middle" x="154.5" y="-529" font-family="Helvetica,sans-Serif" font-size="10.00">no</text>
</g>
<!-- 7 -->
<g id="node10" class="node">
<title>7</title>
<path fill="#ffb7b7" stroke="black" d="M300.5,-510C300.5,-510 263.5,-510 263.5,-510 257.5,-510 251.5,-504 251.5,-498 251.5,-498 251.5,-486 251.5,-486 251.5,-480 257.5,-474 263.5,-474 263.5,-474 300.5,-474 300.5,-474 306.5,-474 312.5,-480 312.5,-486 312.5,-486 312.5,-498 312.5,-498 312.5,-504 306.5,-510 300.5,-510"/>
<text text-anchor="middle" x="282" y="-495.2" font-family="Helvetica,sans-Serif" font-size="11.00">action 0</text>
<text text-anchor="middle" x="282" y="-483.2" font-family="Helvetica,sans-Serif" font-size="11.00">p=0.96</text>
</g>
<!-- 4&#45;&gt;7 -->
<g id="edge9" class="edge">
<title>4&#45;&gt;7</title>
<path fill="none" stroke="#555555" d="M285.89,-552.91C285.27,-543.34 284.48,-531.18 283.77,-520.32"/>
<polygon fill="#555555" stroke="#555555" points="287.25,-519.79 283.11,-510.04 280.26,-520.25 287.25,-519.79"/>
<text text-anchor="middle" x="294" y="-529" font-family="Helvetica,sans-Serif" font-size="10.00">yes</text>
</g>
<!-- 8 -->
<g id="node11" class="node">
<title>8</title>
<ellipse fill="#eef3fb" stroke="black" cx="392" cy="-492" rx="61.17" ry="18"/>
<text text-anchor="middle" x="392" y="-489.2" font-family="Helvetica,sans-Serif" font-size="11.00">obs_130 ≤ 0.23</text>
</g>
<!-- 4&#45;&gt;8 -->
<g id="edge10" class="edge">
<title>4&#45;&gt;8</title>
<path fill="none" stroke="#555555" d="M309.01,-553.86C324.37,-542.59 345.07,-527.42 361.95,-515.04"/>
<polygon fill="#555555" stroke="#555555" points="364.38,-517.59 370.38,-508.86 360.24,-511.95 364.38,-517.59"/>
<text text-anchor="middle" x="352.5" y="-529" font-family="Helvetica,sans-Serif" font-size="10.00">no</text>
</g>
<!-- 13 -->
<g id="node8" class="node">
<title>13</title>
<path fill="#ffb7b7" stroke="black" d="M132.5,-431C132.5,-431 95.5,-431 95.5,-431 89.5,-431 83.5,-425 83.5,-419 83.5,-419 83.5,-407 83.5,-407 83.5,-401 89.5,-395 95.5,-395 95.5,-395 132.5,-395 132.5,-395 138.5,-395 144.5,-401 144.5,-407 144.5,-407 144.5,-419 144.5,-419 144.5,-425 138.5,-431 132.5,-431"/>
<text text-anchor="middle" x="114" y="-416.2" font-family="Helvetica,sans-Serif" font-size="11.00">action 0</text>
<text text-anchor="middle" x="114" y="-404.2" font-family="Helvetica,sans-Serif" font-size="11.00">p=0.96</text>
</g>
<!-- 6&#45;&gt;13 -->
<g id="edge7" class="edge">
<title>6&#45;&gt;13</title>
<path fill="none" stroke="#555555" d="M148.23,-473.91C142.54,-463.94 135.24,-451.17 128.84,-439.97"/>
<polygon fill="#555555" stroke="#555555" points="131.74,-437.99 123.74,-431.04 125.66,-441.46 131.74,-437.99"/>
<text text-anchor="middle" x="148" y="-450" font-family="Helvetica,sans-Serif" font-size="10.00">yes</text>
</g>
<!-- 14 -->
<g id="node9" class="node">
<title>14</title>
<path fill="#ffb7b7" stroke="black" d="M211.5,-431C211.5,-431 174.5,-431 174.5,-431 168.5,-431 162.5,-425 162.5,-419 162.5,-419 162.5,-407 162.5,-407 162.5,-401 168.5,-395 174.5,-395 174.5,-395 211.5,-395 211.5,-395 217.5,-395 223.5,-401 223.5,-407 223.5,-407 223.5,-419 223.5,-419 223.5,-425 217.5,-431 211.5,-431"/>
<text text-anchor="middle" x="193" y="-416.2" font-family="Helvetica,sans-Serif" font-size="11.00">action 0</text>
<text text-anchor="middle" x="193" y="-404.2" font-family="Helvetica,sans-Serif" font-size="11.00">p=1.00</text>
</g>
<!-- 6&#45;&gt;14 -->
<g id="edge8" class="edge">
<title>6&#45;&gt;14</title>
<path fill="none" stroke="#555555" d="M165.77,-473.91C170.25,-464.04 175.99,-451.42 181.04,-440.31"/>
<polygon fill="#555555" stroke="#555555" points="184.3,-441.59 185.25,-431.04 177.93,-438.7 184.3,-441.59"/>
<text text-anchor="middle" x="184.5" y="-450" font-family="Helvetica,sans-Serif" font-size="10.00">no</text>
</g>
<!-- 9 -->
<g id="node12" class="node">
<title>9</title>
<path fill="#b7edff" stroke="black" d="M374,-431C374,-431 330,-431 330,-431 324,-431 318,-425 318,-419 318,-419 318,-407 318,-407 318,-401 324,-395 330,-395 330,-395 374,-395 374,-395 380,-395 386,-401 386,-407 386,-407 386,-419 386,-419 386,-425 380,-431 374,-431"/>
<text text-anchor="middle" x="352" y="-416.2" font-family="Helvetica,sans-Serif" font-size="11.00">action 30</text>
<text text-anchor="middle" x="352" y="-404.2" font-family="Helvetica,sans-Serif" font-size="11.00">p=0.80</text>
</g>
<!-- 8&#45;&gt;9 -->
<g id="edge11" class="edge">
<title>8&#45;&gt;9</title>
<path fill="none" stroke="#555555" d="M383.12,-473.91C377.94,-463.94 371.31,-451.17 365.49,-439.97"/>
<polygon fill="#555555" stroke="#555555" points="368.57,-438.3 360.85,-431.04 362.36,-441.53 368.57,-438.3"/>
<text text-anchor="middle" x="384" y="-450" font-family="Helvetica,sans-Serif" font-size="10.00">yes</text>
</g>
<!-- 10 -->
<g id="node13" class="node">
<title>10</title>
<ellipse fill="#eef3fb" stroke="black" cx="470" cy="-413" rx="65.59" ry="18"/>
<text text-anchor="middle" x="470" y="-410.2" font-family="Helvetica,sans-Serif" font-size="11.00">obs_282 ≤ 0.852</text>
</g>
<!-- 8&#45;&gt;10 -->
<g id="edge12" class="edge">
<title>8&#45;&gt;10</title>
<path fill="none" stroke="#555555" d="M408.92,-474.29C419.76,-463.6 433.98,-449.56 445.98,-437.71"/>
<polygon fill="#555555" stroke="#555555" points="448.45,-440.19 453.11,-430.68 443.53,-435.21 448.45,-440.19"/>
<text text-anchor="middle" x="442.5" y="-450" font-family="Helvetica,sans-Serif" font-size="10.00">no</text>
</g>
<!-- 11 -->
<g id="node14" class="node">
<title>11</title>
<ellipse fill="#eef3fb" stroke="black" cx="392" cy="-334" rx="65.59" ry="18"/>
<text text-anchor="middle" x="392" y="-331.2" font-family="Helvetica,sans-Serif" font-size="11.00">obs_271 ≤ 0.811</text>
</g>
<!-- 10&#45;&gt;11 -->
<g id="edge13" class="edge">
<title>10&#45;&gt;11</title>
<path fill="none" stroke="#555555" d="M453.08,-395.29C442.24,-384.6 428.02,-370.56 416.02,-358.71"/>
<polygon fill="#555555" stroke="#555555" points="418.47,-356.21 408.89,-351.68 413.55,-361.19 418.47,-356.21"/>
<text text-anchor="middle" x="445" y="-371" font-family="Helvetica,sans-Serif" font-size="10.00">yes</text>
</g>
<!-- 12 -->
<g id="node15" class="node">
<title>12</title>
<path fill="#b7edff" stroke="black" d="M532,-352C532,-352 488,-352 488,-352 482,-352 476,-346 476,-340 476,-340 476,-328 476,-328 476,-322 482,-316 488,-316 488,-316 532,-316 532,-316 538,-316 544,-322 544,-328 544,-328 544,-340 544,-340 544,-346 538,-352 532,-352"/>
<text text-anchor="middle" x="510" y="-337.2" font-family="Helvetica,sans-Serif" font-size="11.00">action 30</text>
<text text-anchor="middle" x="510" y="-325.2" font-family="Helvetica,sans-Serif" font-size="11.00">p=0.87</text>
</g>
<!-- 10&#45;&gt;12 -->
<g id="edge14" class="edge">
<title>10&#45;&gt;12</title>
<path fill="none" stroke="#555555" d="M478.88,-394.91C484.06,-384.94 490.69,-372.17 496.51,-360.97"/>
<polygon fill="#555555" stroke="#555555" points="499.64,-362.53 501.15,-352.04 493.43,-359.3 499.64,-362.53"/>
<text text-anchor="middle" x="499.5" y="-371" font-family="Helvetica,sans-Serif" font-size="10.00">no</text>
</g>
<!-- 15 -->
<g id="node16" class="node">
<title>15</title>
<ellipse fill="#eef3fb" stroke="black" cx="320" cy="-255" rx="61.17" ry="18"/>
<text text-anchor="middle" x="320" y="-252.2" font-family="Helvetica,sans-Serif" font-size="11.00">obs_196 ≤ 1.64</text>
</g>
<!-- 11&#45;&gt;15 -->
<g id="edge15" class="edge">
<title>11&#45;&gt;15</title>
<path fill="none" stroke="#555555" d="M376.38,-316.29C366.47,-305.7 353.49,-291.82 342.49,-280.05"/>
<polygon fill="#555555" stroke="#555555" points="344.98,-277.59 335.59,-272.68 339.87,-282.37 344.98,-277.59"/>
<text text-anchor="middle" x="370" y="-292" font-family="Helvetica,sans-Serif" font-size="10.00">yes</text>
</g>
<!-- 16 -->
<g id="node17" class="node">
<title>16</title>
<ellipse fill="#eef3fb" stroke="black" cx="465" cy="-255" rx="65.59" ry="18"/>
<text text-anchor="middle" x="465" y="-252.2" font-family="Helvetica,sans-Serif" font-size="11.00">obs_294 ≤ 0.468</text>
</g>
<!-- 11&#45;&gt;16 -->
<g id="edge16" class="edge">
<title>11&#45;&gt;16</title>
<path fill="none" stroke="#555555" d="M407.84,-316.29C417.88,-305.7 431.04,-291.82 442.2,-280.05"/>
<polygon fill="#555555" stroke="#555555" points="444.85,-282.34 449.19,-272.68 439.77,-277.52 444.85,-282.34"/>
<text text-anchor="middle" x="439.5" y="-292" font-family="Helvetica,sans-Serif" font-size="10.00">no</text>
</g>
<!-- 23 -->
<g id="node18" class="node">
<title>23</title>
<ellipse fill="#eef3fb" stroke="black" cx="216" cy="-176" rx="65.59" ry="18"/>
<text text-anchor="middle" x="216" y="-173.2" font-family="Helvetica,sans-Serif" font-size="11.00">obs_245 ≤ 0.504</text>
</g>
<!-- 15&#45;&gt;23 -->
<g id="edge17" class="edge">
<title>15&#45;&gt;23</title>
<path fill="none" stroke="#555555" d="M298.45,-238.05C283.35,-226.87 262.97,-211.77 246.24,-199.39"/>
<polygon fill="#555555" stroke="#555555" points="248,-196.34 237.88,-193.2 243.83,-201.96 248,-196.34"/>
<text text-anchor="middle" x="284" y="-213" font-family="Helvetica,sans-Serif" font-size="10.00">yes</text>
</g>
<!-- 24 -->
<g id="node19" class="node">
<title>24</title>
<path fill="#b7edff" stroke="black" d="M356,-194C356,-194 312,-194 312,-194 306,-194 300,-188 300,-182 300,-182 300,-170 300,-170 300,-164 306,-158 312,-158 312,-158 356,-158 356,-158 362,-158 368,-164 368,-170 368,-170 368,-182 368,-182 368,-188 362,-194 356,-194"/>
<text text-anchor="middle" x="334" y="-179.2" font-family="Helvetica,sans-Serif" font-size="11.00">action 30</text>
<text text-anchor="middle" x="334" y="-167.2" font-family="Helvetica,sans-Serif" font-size="11.00">p=0.88</text>
</g>
<!-- 15&#45;&gt;24 -->
<g id="edge18" class="edge">
<title>15&#45;&gt;24</title>
<path fill="none" stroke="#555555" d="M323.11,-236.91C324.87,-227.24 327.1,-214.93 329.09,-203.98"/>
<polygon fill="#555555" stroke="#555555" points="332.56,-204.51 330.9,-194.04 325.67,-203.25 332.56,-204.51"/>
<text text-anchor="middle" x="334.5" y="-213" font-family="Helvetica,sans-Serif" font-size="10.00">no</text>
</g>
<!-- 17 -->
<g id="node24" class="node">
<title>17</title>
<ellipse fill="#eef3fb" stroke="black" cx="454" cy="-176" rx="63.98" ry="18"/>
<text text-anchor="middle" x="454" y="-173.2" font-family="Helvetica,sans-Serif" font-size="11.00">obs_273 ≤ &#45;1.12</text>
</g>
<!-- 16&#45;&gt;17 -->
<g id="edge23" class="edge">
<title>16&#45;&gt;17</title>
<path fill="none" stroke="#555555" d="M462.56,-236.91C461.18,-227.24 459.42,-214.93 457.85,-203.98"/>
<polygon fill="#555555" stroke="#555555" points="461.31,-203.45 456.43,-194.04 454.38,-204.44 461.31,-203.45"/>
<text text-anchor="middle" x="470" y="-213" font-family="Helvetica,sans-Serif" font-size="10.00">yes</text>
</g>
<!-- 18 -->
<g id="node25" class="node">
<title>18</title>
<ellipse fill="#eef3fb" stroke="black" cx="604" cy="-176" rx="67.9" ry="18"/>
<text text-anchor="middle" x="604" y="-173.2" font-family="Helvetica,sans-Serif" font-size="11.00">obs_380 ≤ &#45;0.244</text>
</g>
<!-- 16&#45;&gt;18 -->
<g id="edge24" class="edge">
<title>16&#45;&gt;18</title>
<path fill="none" stroke="#555555" d="M492.79,-238.6C514.06,-226.82 543.58,-210.47 566.87,-197.57"/>
<polygon fill="#555555" stroke="#555555" points="568.73,-200.54 575.78,-192.63 565.33,-194.42 568.73,-200.54"/>
<text text-anchor="middle" x="549.5" y="-213" font-family="Helvetica,sans-Serif" font-size="10.00">no</text>
</g>
<!-- 25 -->
<g id="node20" class="node">
<title>25</title>
<ellipse fill="#eef3fb" stroke="black" cx="182" cy="-97" rx="63.98" ry="18"/>
<text text-anchor="middle" x="182" y="-94.2" font-family="Helvetica,sans-Serif" font-size="11.00">obs_238 ≤ &#45;1.24</text>
</g>
<!-- 23&#45;&gt;25 -->
<g id="edge19" class="edge">
<title>23&#45;&gt;25</title>
<path fill="none" stroke="#555555" d="M208.45,-157.91C204.1,-148.04 198.52,-135.42 193.62,-124.31"/>
<polygon fill="#555555" stroke="#555555" points="196.77,-122.78 189.52,-115.04 190.36,-125.6 196.77,-122.78"/>
<text text-anchor="middle" x="211" y="-134" font-family="Helvetica,sans-Serif" font-size="10.00">yes</text>
</g>
<!-- 26 -->
<g id="node21" class="node">
<title>26</title>
<path fill="#ffb7b7" stroke="black" d="M312.5,-115C312.5,-115 275.5,-115 275.5,-115 269.5,-115 263.5,-109 263.5,-103 263.5,-103 263.5,-91 263.5,-91 263.5,-85 269.5,-79 275.5,-79 275.5,-79 312.5,-79 312.5,-79 318.5,-79 324.5,-85 324.5,-91 324.5,-91 324.5,-103 324.5,-103 324.5,-109 318.5,-115 312.5,-115"/>
<text text-anchor="middle" x="294" y="-100.2" font-family="Helvetica,sans-Serif" font-size="11.00">action 0</text>
<text text-anchor="middle" x="294" y="-88.2" font-family="Helvetica,sans-Serif" font-size="11.00">p=0.54</text>
</g>
<!-- 23&#45;&gt;26 -->
<g id="edge20" class="edge">
<title>23&#45;&gt;26</title>
<path fill="none" stroke="#555555" d="M232.92,-158.29C243.51,-147.84 257.33,-134.2 269.15,-122.53"/>
<polygon fill="#555555" stroke="#555555" points="271.91,-124.72 276.57,-115.21 266.99,-119.74 271.91,-124.72"/>
<text text-anchor="middle" x="266.5" y="-134" font-family="Helvetica,sans-Serif" font-size="10.00">no</text>
</g>
<!-- 29 -->
<g id="node22" class="node">
<title>29</title>
<path fill="#b7edff" stroke="black" d="M163,-36C163,-36 119,-36 119,-36 113,-36 107,-30 107,-24 107,-24 107,-12 107,-12 107,-6 113,0 119,0 119,0 163,0 163,0 169,0 175,-6 175,-12 175,-12 175,-24 175,-24 175,-30 169,-36 163,-36"/>
<text text-anchor="middle" x="141" y="-21.2" font-family="Helvetica,sans-Serif" font-size="11.00">action 30</text>
<text text-anchor="middle" x="141" y="-9.2" font-family="Helvetica,sans-Serif" font-size="11.00">p=0.63</text>
</g>
<!-- 25&#45;&gt;29 -->
<g id="edge21" class="edge">
<title>25&#45;&gt;29</title>
<path fill="none" stroke="#555555" d="M172.9,-78.91C167.59,-68.94 160.79,-56.17 154.83,-44.97"/>
<polygon fill="#555555" stroke="#555555" points="157.86,-43.22 150.07,-36.04 151.68,-46.51 157.86,-43.22"/>
<text text-anchor="middle" x="173" y="-55" font-family="Helvetica,sans-Serif" font-size="10.00">yes</text>
</g>
<!-- 30 -->
<g id="node23" class="node">
<title>30</title>
<path fill="#ffb7b7" stroke="black" d="M242.5,-36C242.5,-36 205.5,-36 205.5,-36 199.5,-36 193.5,-30 193.5,-24 193.5,-24 193.5,-12 193.5,-12 193.5,-6 199.5,0 205.5,0 205.5,0 242.5,0 242.5,0 248.5,0 254.5,-6 254.5,-12 254.5,-12 254.5,-24 254.5,-24 254.5,-30 248.5,-36 242.5,-36"/>
<text text-anchor="middle" x="224" y="-21.2" font-family="Helvetica,sans-Serif" font-size="11.00">action 0</text>
<text text-anchor="middle" x="224" y="-9.2" font-family="Helvetica,sans-Serif" font-size="11.00">p=0.70</text>
</g>
<!-- 25&#45;&gt;30 -->
<g id="edge22" class="edge">
<title>25&#45;&gt;30</title>
<path fill="none" stroke="#555555" d="M191.32,-78.91C196.76,-68.94 203.73,-56.17 209.83,-44.97"/>
<polygon fill="#555555" stroke="#555555" points="212.99,-46.5 214.7,-36.04 206.84,-43.14 212.99,-46.5"/>
<text text-anchor="middle" x="212.5" y="-55" font-family="Helvetica,sans-Serif" font-size="10.00">no</text>
</g>
<!-- 19 -->
<g id="node26" class="node">
<title>19</title>
<path fill="#b7edff" stroke="black" d="M425,-115C425,-115 381,-115 381,-115 375,-115 369,-109 369,-103 369,-103 369,-91 369,-91 369,-85 375,-79 381,-79 381,-79 425,-79 425,-79 431,-79 437,-85 437,-91 437,-91 437,-103 437,-103 437,-109 431,-115 425,-115"/>
<text text-anchor="middle" x="403" y="-100.2" font-family="Helvetica,sans-Serif" font-size="11.00">action 30</text>
<text text-anchor="middle" x="403" y="-88.2" font-family="Helvetica,sans-Serif" font-size="11.00">p=0.78</text>
</g>
<!-- 17&#45;&gt;19 -->
<g id="edge25" class="edge">
<title>17&#45;&gt;19</title>
<path fill="none" stroke="#555555" d="M442.68,-157.91C436.01,-147.84 427.45,-134.91 419.98,-123.64"/>
<polygon fill="#555555" stroke="#555555" points="422.73,-121.45 414.29,-115.04 416.89,-125.31 422.73,-121.45"/>
<text text-anchor="middle" x="441" y="-134" font-family="Helvetica,sans-Serif" font-size="10.00">yes</text>
</g>
<!-- 20 -->
<g id="node27" class="node">
<title>20</title>
<path fill="#ffb7b7" stroke="black" d="M504.5,-115C504.5,-115 467.5,-115 467.5,-115 461.5,-115 455.5,-109 455.5,-103 455.5,-103 455.5,-91 455.5,-91 455.5,-85 461.5,-79 467.5,-79 467.5,-79 504.5,-79 504.5,-79 510.5,-79 516.5,-85 516.5,-91 516.5,-91 516.5,-103 516.5,-103 516.5,-109 510.5,-115 504.5,-115"/>
<text text-anchor="middle" x="486" y="-100.2" font-family="Helvetica,sans-Serif" font-size="11.00">action 0</text>
<text text-anchor="middle" x="486" y="-88.2" font-family="Helvetica,sans-Serif" font-size="11.00">p=0.72</text>
</g>
<!-- 17&#45;&gt;20 -->
<g id="edge26" class="edge">
<title>17&#45;&gt;20</title>
<path fill="none" stroke="#555555" d="M461.1,-157.91C465.2,-148.04 470.45,-135.42 475.07,-124.31"/>
<polygon fill="#555555" stroke="#555555" points="478.31,-125.62 478.92,-115.04 471.85,-122.93 478.31,-125.62"/>
<text text-anchor="middle" x="478.5" y="-134" font-family="Helvetica,sans-Serif" font-size="10.00">no</text>
</g>
<!-- 21 -->
<g id="node28" class="node">
<title>21</title>
<path fill="#b7edff" stroke="black" d="M597,-115C597,-115 553,-115 553,-115 547,-115 541,-109 541,-103 541,-103 541,-91 541,-91 541,-85 547,-79 553,-79 553,-79 597,-79 597,-79 603,-79 609,-85 609,-91 609,-91 609,-103 609,-103 609,-109 603,-115 597,-115"/>
<text text-anchor="middle" x="575" y="-100.2" font-family="Helvetica,sans-Serif" font-size="11.00">action 30</text>
<text text-anchor="middle" x="575" y="-88.2" font-family="Helvetica,sans-Serif" font-size="11.00">p=0.61</text>
</g>
<!-- 18&#45;&gt;21 -->
<g id="edge27" class="edge">
<title>18&#45;&gt;21</title>
<path fill="none" stroke="#555555" d="M595.82,-158.04C593.49,-152.93 591.03,-147.29 589,-142 586.91,-136.58 584.88,-130.7 583.05,-125.05"/>
<polygon fill="#555555" stroke="#555555" points="586.32,-123.79 579.99,-115.3 579.64,-125.89 586.32,-123.79"/>
<text text-anchor="middle" x="598" y="-134" font-family="Helvetica,sans-Serif" font-size="10.00">yes</text>
</g>
<!-- 22 -->
<g id="node29" class="node">
<title>22</title>
<ellipse fill="#eef3fb" stroke="black" cx="691" cy="-97" rx="63.98" ry="18"/>
<text text-anchor="middle" x="691" y="-94.2" font-family="Helvetica,sans-Serif" font-size="11.00">obs_222 ≤ &#45;2.82</text>
</g>
<!-- 18&#45;&gt;22 -->
<g id="edge28" class="edge">
<title>18&#45;&gt;22</title>
<path fill="none" stroke="#555555" d="M622.45,-158.67C634.79,-147.75 651.22,-133.21 664.89,-121.11"/>
<polygon fill="#555555" stroke="#555555" points="667.41,-123.55 672.58,-114.31 662.77,-118.31 667.41,-123.55"/>
<text text-anchor="middle" x="658.5" y="-134" font-family="Helvetica,sans-Serif" font-size="10.00">no</text>
</g>
<!-- 27 -->
<g id="node30" class="node">
<title>27</title>
<path fill="#ffb7b7" stroke="black" d="M669.5,-36C669.5,-36 632.5,-36 632.5,-36 626.5,-36 620.5,-30 620.5,-24 620.5,-24 620.5,-12 620.5,-12 620.5,-6 626.5,0 632.5,0 632.5,0 669.5,0 669.5,0 675.5,0 681.5,-6 681.5,-12 681.5,-12 681.5,-24 681.5,-24 681.5,-30 675.5,-36 669.5,-36"/>
<text text-anchor="middle" x="651" y="-21.2" font-family="Helvetica,sans-Serif" font-size="11.00">action 0</text>
<text text-anchor="middle" x="651" y="-9.2" font-family="Helvetica,sans-Serif" font-size="11.00">p=0.72</text>
</g>
<!-- 22&#45;&gt;27 -->
<g id="edge29" class="edge">
<title>22&#45;&gt;27</title>
<path fill="none" stroke="#555555" d="M682.12,-78.91C676.94,-68.94 670.31,-56.17 664.49,-44.97"/>
<polygon fill="#555555" stroke="#555555" points="667.57,-43.3 659.85,-36.04 661.36,-46.53 667.57,-43.3"/>
<text text-anchor="middle" x="682" y="-55" font-family="Helvetica,sans-Serif" font-size="10.00">yes</text>
</g>
<!-- 28 -->
<g id="node31" class="node">
<title>28</title>
<path fill="#ffb7b7" stroke="black" d="M748.5,-36C748.5,-36 711.5,-36 711.5,-36 705.5,-36 699.5,-30 699.5,-24 699.5,-24 699.5,-12 699.5,-12 699.5,-6 705.5,0 711.5,0 711.5,0 748.5,0 748.5,0 754.5,0 760.5,-6 760.5,-12 760.5,-12 760.5,-24 760.5,-24 760.5,-30 754.5,-36 748.5,-36"/>
<text text-anchor="middle" x="730" y="-21.2" font-family="Helvetica,sans-Serif" font-size="11.00">action 0</text>
<text text-anchor="middle" x="730" y="-9.2" font-family="Helvetica,sans-Serif" font-size="11.00">p=0.55</text>
</g>
<!-- 22&#45;&gt;28 -->
<g id="edge30" class="edge">
<title>22&#45;&gt;28</title>
<path fill="none" stroke="#555555" d="M699.66,-78.91C704.7,-68.94 711.18,-56.17 716.84,-44.97"/>
<polygon fill="#555555" stroke="#555555" points="719.97,-46.54 721.37,-36.04 713.73,-43.38 719.97,-46.54"/>
<text text-anchor="middle" x="718.5" y="-55" font-family="Helvetica,sans-Serif" font-size="10.00">no</text>
</g>
</g>
</svg>
